<svg xmlns="http://www.w3.org/2000/svg" xmlns:xlink="http://www.w3.org/1999/xlink" width="356" height="290" viewBox="0 0 356 290" fill="none"><defs><rect id="path_0" x="0" y="0" width="356" height="290" /></defs><g opacity="1" transform="translate(0 0)  rotate(0 178 145)"><mask id="bg-mask-0" fill="white"><use xlink:href="#path_0"></use></mask><g mask="url(#bg-mask-0)" ><g opacity="1" transform="translate(34 38.999999999999744)  rotate(0 144 105.90151029619359)"><g opacity="1" transform="translate(0 0)  rotate(180 139.4471100314205 105.90151029619359)"><path id="路径 3434" fill-rule="evenodd" style="fill:#E7ECFF" transform="translate(0 0)  rotate(0 139.4471100314205 105.90151029619359)" opacity="1" d="M142.56 0L253.82 10.59L278.89 133.89L149.33 211.8L0 160.13L24.58 30.08L142.56 0Z" /></g><g opacity="1" transform="translate(24.005158822529534 30.181602120604385)  rotate(0 79.11494502594037 37.96788143228036)"><g opacity="1" transform="translate(81.11759735642228 0.2374246051526334)  rotate(0 38.43527707934069 12.879852253212226)"><path id="路径 3435" fill-rule="evenodd" style="fill:#FFFFFF" transform="translate(0 0)  rotate(0 38.43527707934069 12.879852253212226)" opacity="1" d="M25.18 13.81C29.63 11.46 33.56 16.99 33.56 16.99C33.56 16.99 31.79 8.03 38.08 6.9C43.78 5.88 45.88 13.81 45.88 13.81C45.88 13.81 47.15 -1.63 57.5 0.14C69 2.11 65.39 18.71 65.39 18.71C65.39 18.71 67.08 15.11 71.74 16.15C77.66 17.46 76.83 25.76 76.83 25.76L0 25.76L22.68 20.26C22.68 20.26 22.22 15.38 25.18 13.81Z" /></g><g opacity="1" transform="translate(80.87606104743409 0)  rotate(0 38.676914502223326 13.121505312672546)"><path id="路径 3436" fill-rule="evenodd" style="fill:#000045" transform="translate(0 0)  rotate(0 38.676914502223326 13.121505312672546)" opacity="1" d="M0.18 25.76Z M0 26.03C0.02 26.16 0.12 26.24 0.24 26.24L77.07 26.24C77.2 26.24 77.3 26.14 77.31 26.02C77.31 26.02 77.62 22.98 76.56 20.25C75.84 18.39 74.49 16.69 72.03 16.15C68.81 15.43 66.95 16.85 66.07 17.88C66.37 15.9 66.8 11.59 65.72 7.7C64.74 4.15 62.49 0.95 57.78 0.15C53.52 -0.58 50.76 1.51 48.97 4.29C47.05 7.31 46.28 11.13 46.01 12.96C45.62 11.91 44.88 10.29 43.71 8.97C42.43 7.53 40.66 6.47 38.28 6.9C35.66 7.37 34.37 9.14 33.78 11.11C33.19 13.07 33.31 15.23 33.44 16.41C32.83 15.71 31.75 14.63 30.41 13.93C28.95 13.18 27.17 12.85 25.31 13.83C24.07 14.5 23.39 15.71 23.03 16.92C22.62 18.35 22.64 19.78 22.67 20.31C20.44 20.84 0.18 25.76 0.18 25.76C0.07 25.8 -0.01 25.91 0 26.03Z M2.25896 25.7597Z M76.849 25.7597C76.889 25.0397 76.959 22.6197 76.109 20.4197C75.439 18.7097 74.209 17.1197 71.929 16.6197C67.469 15.6297 65.859 19.0497 65.859 19.0497C65.799 19.1697 65.679 19.2097 65.559 19.1797C65.439 19.1397 65.369 19.0197 65.399 18.8897C65.399 18.8897 66.689 12.9897 65.259 7.82974C64.319 4.43974 62.189 1.38974 57.699 0.609742C53.679 -0.0602583 51.069 1.92974 49.379 4.54974C46.809 8.57974 46.359 14.0697 46.359 14.0697C46.349 14.1797 46.259 14.2797 46.139 14.2897C46.029 14.2997 45.919 14.2297 45.889 14.1097C45.889 14.1097 45.149 11.3097 43.349 9.28974C42.179 7.96974 40.549 6.97974 38.369 7.36974C35.959 7.80974 34.789 9.44974 34.249 11.2497C33.409 14.0197 34.039 17.1997 34.039 17.1997C34.059 17.3097 33.999 17.4197 33.899 17.4497C33.799 17.4997 33.669 17.4697 33.609 17.3797C33.609 17.3797 32.229 15.4197 30.179 14.3597C28.849 13.6697 27.239 13.3697 25.539 14.2697C24.419 14.8597 23.819 15.9597 23.499 17.0597C22.999 18.7597 23.159 20.4697 23.159 20.4697C23.169 20.5897 23.099 20.6997 22.979 20.7297C22.979 20.7297 7.76896 24.4197 2.25896 25.7597C13.959 25.7597 72.759 25.7597 76.849 25.7597Z " /></g><g opacity="1" transform="translate(0.22947574975175997 53.140322155869725)  rotate(0 32.43965754662575 11.283554789776286)"><path id="路径 3437" fill-rule="evenodd" style="fill:#FFFFFF" transform="translate(0 0)  rotate(0 32.43965754662575 11.283554789776286)" opacity="1" d="M35.82 0.01C44.66 0.37 44.53 12.48 44.53 12.48C44.53 12.48 45.91 8.23 49.68 8.86C54.26 9.64 54.14 17.45 54.14 17.45C54.14 17.45 55.62 13.88 59.64 14.13C65.6 14.5 64.85 22.57 64.85 22.57L0 22.57L16.62 18.08C16.62 18.08 15.26 13.57 19.85 11.3C23.66 9.42 26.56 12.48 26.56 12.48C26.56 12.48 26.44 -0.39 35.82 0.01Z" /></g><g opacity="1" transform="translate(0 52.91102163481578)  rotate(0 32.66910638146575 11.512370614872468)"><path id="路径 3438" fill-rule="evenodd" style="fill:#000045" transform="translate(0 0)  rotate(0 32.66910638146575 11.512370614872468)" opacity="1" d="M0.17 22.58Z M43.93 6.54C42.83 3.39 40.59 0.2 36.06 0.01C31.24 -0.2 28.86 2.99 27.68 6.24C26.8 8.7 26.61 11.17 26.57 12.21C25.64 11.44 23.1 9.79 19.98 11.32C15.84 13.37 16.36 17.17 16.57 18.14L0.17 22.58C0.06 22.61 -0.01 22.71 0 22.83C0.02 22.94 0.11 23.02 0.23 23.02L65.08 23.02C65.2 23.02 65.3 22.94 65.31 22.82C65.31 22.82 65.5 20.77 64.93 18.66C64.35 16.51 62.99 14.33 59.88 14.13C56.91 13.94 55.27 15.77 54.57 16.84C54.51 15.81 54.31 13.99 53.67 12.36C53 10.68 51.86 9.18 49.95 8.86C47.96 8.53 46.6 9.48 45.74 10.51C45.4 10.93 45.14 11.36 44.95 11.71C44.87 10.56 44.64 8.56 43.93 6.54Z M1.9565 22.5684Z M46.0965 10.8084C45.3065 11.7584 44.9765 12.7784 44.9765 12.7784C44.9365 12.8984 44.8265 12.9584 44.7165 12.9384C44.6065 12.9184 44.5265 12.8184 44.5265 12.7084C44.5265 12.7084 44.5565 9.72836 43.4965 6.68836C42.4565 3.69836 40.3465 0.638358 36.0365 0.468358C31.4765 0.278358 29.2265 3.32836 28.1165 6.39836C26.9865 9.52836 27.0165 12.7084 27.0165 12.7084C27.0165 12.7984 26.9565 12.8784 26.8765 12.9284C26.7865 12.9584 26.6865 12.9384 26.6165 12.8684C26.6165 12.8684 23.8365 9.92836 20.1865 11.7384C15.7765 13.9084 17.0665 18.2384 17.0665 18.2384C17.0865 18.2984 17.0865 18.3584 17.0565 18.4084C17.0265 18.4784 16.9665 18.5084 16.9065 18.5284L1.9565 22.5684L64.8665 22.5684C64.8965 22.0184 64.9265 20.4084 64.4865 18.7884C63.9565 16.7984 62.7165 14.7784 59.8565 14.5884C56.0065 14.3484 54.5765 17.7684 54.5765 17.7684C54.5365 17.8684 54.4265 17.9284 54.3165 17.8984C54.2165 17.8784 54.1365 17.7884 54.1365 17.6784C54.1365 17.6784 54.1765 14.9084 53.2465 12.5284C52.6365 10.9884 51.6165 9.60836 49.8665 9.31836C48.0865 9.01836 46.8665 9.87836 46.0965 10.8084Z " /></g></g><g opacity="1" transform="translate(121.87788214661005 64.59601519625537)  rotate(0 83.06105892669498 28.765398433999195)"><g opacity="1" transform="translate(4.967013606968055 15.402312084537208)  rotate(0 80.45681738233758 20.940409406763493)"><path id="路径 3439" fill-rule="evenodd" style="fill:#FFFFFF" transform="translate(0 0)  rotate(0 80.45681738233758 20.940409406763493)" opacity="1" d="M0.01 0L160.91 41.88L0 8.99L0.01 0Z" /></g><g opacity="1" transform="translate(4.725845279122724 15.166045961584508)  rotate(0 80.69813628713362 21.182278427782236)"><path id="路径 3440" fill-rule="evenodd" style="fill:#000045" transform="translate(0 0)  rotate(0 80.69813628713362 21.182278427782236)" opacity="1" d="M0 9.22Z M0.19 9.45L161.11 42.36C161.23 42.38 161.36 42.3 161.39 42.17C161.42 42.05 161.34 41.92 161.22 41.89L0.32 0C0.24 -0.01 0.17 0 0.11 0.05C0.05 0.1 0.01 0.17 0.01 0.24L0 9.22C0 9.34 0.08 9.43 0.19 9.45Z M0.483533 9.02952Z M152.264 40.0495C119.594 31.5495 7.08353 2.26952 0.493533 0.549519L0.483533 9.02952L152.264 40.0495Z " /></g><g opacity="1" transform="translate(0.2421024873063738 0.24767593539792915)  rotate(0 82.81927992668182 28.517698843532376)"><path id="路径 3441" fill-rule="evenodd" style="fill:#FFFFFF" transform="translate(0 0)  rotate(0 82.81927992668182 28.517698843532376)" opacity="1" d="M0 0L165.64 57.04L4.74 15.15L0 0Z" /></g><g opacity="1" transform="translate(0 0)  rotate(0 83.0610150635737 28.765398433999195)"><path id="路径 3442" fill-rule="evenodd" style="fill:#000045" transform="translate(0 0)  rotate(0 83.0610150635737 28.765398433999195)" opacity="1" d="M4.75 15.48Z M0.07 0.07C0.01 0.13 -0.02 0.22 0.01 0.32L4.75 15.48C4.77 15.55 4.84 15.62 4.92 15.63L165.82 57.53C165.95 57.55 166.07 57.48 166.11 57.35C166.15 57.24 166.08 57.1 165.96 57.06L0.32 0.02C0.23 -0.02 0.14 0 0.07 0.07Z M5.17431 15.2009Z M159.874 55.4709L0.614315 0.630907L5.17431 15.2009L159.874 55.4709Z " /></g></g><g opacity="1" transform="translate(179.69412217965981 57.39612482884827)  rotate(0 32.540963052728344 9.65947172614564)"><g opacity="1" transform="translate(53.34586801081071 3.616623873340962)  rotate(5.154604969808638 3.0805553997332606 2.1983480939485416)"><path id="路径 3443" fill-rule="evenodd" style="fill:#FFFFFF" transform="translate(0 0)  rotate(0 3.0805553997332606 2.1983480939485416)" opacity="1" d="M0 1.65L0.72 0L4.38 0C4.38 0 6.1 1.72 6.16 3C6.22 4.28 4.38 4.4 4.38 4.4L0 1.65Z" /></g><g opacity="1" transform="translate(53.10432864406233 3.3736696746239243)  rotate(5.154604969808638 3.322701075097068 2.437720270743808)"><path id="路径 3444" fill-rule="evenodd" style="fill:#000045" transform="translate(0 0)  rotate(0 3.322701075097068 2.437720270743808)" opacity="1" d="M4.8 0.07Z M4.5 4.84C4.54 4.86 4.59 4.88 4.64 4.87C4.64 4.87 5.36 4.83 5.93 4.49C6.34 4.24 6.67 3.85 6.64 3.23C6.62 2.68 6.32 2.06 5.95 1.51C5.43 0.71 4.8 0.07 4.8 0.07C4.75 0.03 4.69 0 4.63 0L0.97 0C0.87 0 0.78 0.06 0.75 0.15L0.02 1.79C-0.03 1.9 0.01 2.04 0.11 2.1L4.5 4.84Z M4.5268 0.485974Z M1.1268 0.485974L0.546802 1.80597C0.546802 1.80597 4.6868 4.38597 4.6868 4.38597C4.8568 4.36597 5.3068 4.29597 5.6768 4.07597C5.9468 3.90597 6.1768 3.65597 6.1568 3.25597C6.1368 2.78597 5.8668 2.24597 5.5468 1.77597C5.1568 1.17597 4.6968 0.665974 4.5268 0.485974L1.1268 0.485974Z " /></g><g opacity="1" transform="translate(46.33794403294874 1.0533127631343375)  rotate(5.154569374667197 9.045489331734203 4.763820989380919)"><path id="路径 3445" fill-rule="evenodd" style="fill:#FFFFFF" transform="translate(0 0)  rotate(0 9.045489331734203 4.763820989380919)" opacity="1" d="M10.6 3.2L8.63 4.15C8.63 4.15 10.7 5.01 11.95 5.41C13.2 5.82 12.26 7.65 12.26 7.65C12.26 7.65 11.28 7.9 9.18 8.27C8.55483 8.38558 7.93517 8.5674 7.28805 8.75727C5.47162 9.29025 3.43878 9.88672 0.46 9.26L0 4.15C0 4.15 5.6 1.86 7.35 1.3C8.8 0.83 15.26 0.2 17.41 0C17.59 -0.02 17.76 0.05 17.89 0.17C18.02 0.29 18.09 0.46 18.09 0.64C18.08 1.05 17.8 1.4 17.4 1.5L10.6 3.2Z" /></g><g opacity="1" transform="translate(46.096602654847715 0.8140899185420158)  rotate(5.154569374667197 9.286577689139841 5.005664965714257)"><path id="路径 3446" fill-rule="evenodd" style="fill:#000045" transform="translate(0 0)  rotate(0 9.286577689139841 5.005664965714257)" opacity="1" d="M18.57 0.87Z M18.3 0.23C18.12 0.07 17.88 -0.02 17.63 0C15.47 0.2 8.97 0.84 7.52 1.31C5.76 1.87 0.15 4.17 0.15 4.17C0.05 4.21 -0.01 4.31 0 4.41L0.46 9.52C0.47 9.63 0.55 9.71 0.65 9.74C4.74 10.6 7.06 9.19 9.46 8.75C11.57 8.37 12.56 8.13 12.56 8.13C12.62 8.11 12.68 8.06 12.71 8C12.71 8 13.08 7.28 13.08 6.61C13.08 6.1 12.89 5.62 12.27 5.42C11.41 5.14 10.15 4.65 9.46 4.37L10.92 3.67L17.7 1.98C18.2 1.85 18.56 1.4 18.57 0.88L18.57 0.87C18.58 0.63 18.48 0.4 18.3 0.23Z M18.088 0.881743Z M10.728 3.22174C10.748 3.21174 10.758 3.21174 10.778 3.20174L17.578 1.50174C17.868 1.43174 18.078 1.17174 18.088 0.881743L18.088 0.871743C18.088 0.761743 18.048 0.661743 17.968 0.591743C17.888 0.511743 17.788 0.471743 17.678 0.481743C17.678 0.481743 17.678 0.481743 17.678 0.481743C15.538 0.681743 9.10798 1.31174 7.65798 1.77174C6.09798 2.27174 1.43798 4.17174 0.497975 4.54174L0.927976 9.29174C4.81798 10.0717 7.05798 8.70174 9.37798 8.28174C11.058 7.97174 12.018 7.75174 12.328 7.69174C12.418 7.49174 12.598 7.04174 12.598 6.61174C12.598 6.30174 12.488 6.01174 12.118 5.88174C10.858 5.47174 8.77798 4.62174 8.77798 4.62174C8.68797 4.57174 8.62798 4.49174 8.62798 4.40174C8.62798 4.30174 8.67798 4.22174 8.76798 4.18174L10.728 3.22174Z M18.1429 1.02646Z M18.2829 1.11646C18.2229 1.09646 18.1729 1.06646 18.1429 1.02646C18.1529 1.04646 18.1729 1.09646 18.2829 1.11646Z M18.0907 0.9012Z M18.1307 1.0012C18.1107 0.9712 18.0907 0.9312 18.0907 0.9012C18.0907 0.9312 18.1007 0.9712 18.1307 1.0012Z " /></g><g opacity="1" transform="translate(0.24134782116533682 2.4966057255523277)  rotate(0 24.497526669203403 8.29183724020971)"><path id="路径 3447" fill-rule="evenodd" style="fill:#FFFFFF" transform="translate(0 0)  rotate(0 24.497526669203403 8.29183724020971)" opacity="1" d="M4 16.58L0 3.78L21.93 2.26C21.93 2.26 38.34 -0.28 40.84 0.03C43.34 0.33 43.86 0.79 43.86 0.79L48.2 0.79C48.2 0.79 49.58 4.92 48.71 8.57L44.87 9.46C44.87 9.46 43.78 10.74 41.71 11.37C39.63 11.99 22.65 13.94 22.65 13.94L4 16.58Z" /></g><g opacity="1" transform="translate(0 2.251681400906366)  rotate(0 24.738596226703404 8.533631025692456)"><path id="路径 3448" fill-rule="evenodd" style="fill:#000045" transform="translate(0 0)  rotate(0 24.738596226703404 8.533631025692456)" opacity="1" d="M0.22 3.79Z M0.01 4.1L4.01 16.9C4.05 17.01 4.16 17.09 4.28 17.06L22.92 14.42C23.19 14.39 39.95 12.47 42.02 11.84C43.9 11.27 44.99 10.19 45.24 9.91L49 9.05C49.09 9.03 49.16 8.96 49.18 8.88C50.07 5.16 48.67 0.95 48.67 0.95C48.64 0.85 48.55 0.79 48.44 0.79L44.18 0.79C43.95 0.65 43.18 0.28 41.11 0.03C38.63 -0.27 22.61 2.2 22.15 2.26L0.22 3.79C0.15 3.79 0.08 3.84 0.04 3.9C0 3.95 -0.01 4.04 0.01 4.1Z M0.563491 4.2521Z M22.1935 2.7421L0.563491 4.2521L4.41349 16.5621L22.8535 13.9421C22.8635 13.9421 22.8635 13.9421 22.8635 13.9421C22.8635 13.9421 39.8035 12.0121 41.8835 11.3821C43.8835 10.7821 44.9235 9.5521 44.9235 9.5521C44.9635 9.5121 45.0035 9.4721 45.0635 9.4621L48.7435 8.6221C49.4335 5.4921 48.5035 2.0521 48.2635 1.2621L44.1035 1.2621C44.0435 1.2621 43.9935 1.2421 43.9435 1.2121C43.9435 1.2121 43.4435 0.792098 41.0535 0.502098C38.5535 0.202098 22.2135 2.7421 22.2135 2.7421C22.2035 2.7421 22.1935 2.7421 22.1935 2.7421Z " /></g><g opacity="1" transform="translate(44.31047235447117 4.430405502228126)  rotate(0 0.622453966514978 3.2949472352247544)"><path id="路径 3449" fill-rule="evenodd" style="fill:#000045" transform="translate(0 0)  rotate(0 0.622453966514978 3.2949472352247544)" opacity="1" d="M1.19 6.37C1.17 6.51 1.06 6.6 0.92 6.59C0.79 6.58 0.7 6.46 0.71 6.32C1.01 3.25 0.01 0.33 0.01 0.33C-0.03 0.2 0.04 0.06 0.17 0.01C0.29 -0.03 0.42 0.04 0.47 0.17C0.47 0.17 1.5 3.19 1.19 6.37Z" /></g></g><g opacity="1" transform="translate(170.76423152263732 30.049960943107756)  rotate(0 13.209973909892547 15.454870977161308)"><g opacity="1" transform="translate(6.630971863108048 20.21905786494008)  rotate(0 1.3084571252117303 1.9014346930709485)"><path id="路径 3450" fill-rule="evenodd" style="fill:#000045" transform="translate(0 0)  rotate(0 1.3084571252117303 1.9014346930709485)" opacity="1" d="M1.14 0L2.62 0.41L2.62 3.8C1.63 2.96 0 1.31 0 1.31L1.14 0Z" /></g><g opacity="1" transform="translate(7.949035944155813 20.65975134330025)  rotate(-11.179477957912692 5.492950993353966 4.491955708907452)"><path id="路径 3451" fill-rule="evenodd" style="fill:#FFFFFF" transform="translate(0 0)  rotate(0 5.492950993353966 4.491955708907452)" opacity="1" d="M1.79 0L5.89 0.57L10.99 3.11L9.12 8.78C5.7 9.48 2.18 8.28 0 6.22L1.79 0Z" /></g><g opacity="1" transform="translate(7.704786024869614 20.41862791363655)  rotate(-11.179477957912692 5.735339298550663 4.734483888769959)"><path id="路径 3452" fill-rule="evenodd" style="fill:#000045" transform="translate(0 0)  rotate(0 5.735339298550663 4.734483888769959)" opacity="1" d="M11.46 3.42Z M9.41 9.27C9.49 9.25 9.56 9.19 9.59 9.1L11.46 3.42C11.49 3.31 11.44 3.18 11.33 3.13L6.24 0.59C6.22 0.58 6.19 0.58 6.16 0.57L2.06 0C1.95 -0.01 1.83 0.06 1.8 0.18L0.01 6.39C-0.02 6.48 0.01 6.57 0.08 6.63C2.31 8.75 5.92 9.98 9.41 9.27Z M10.9388 3.47123Z M6.0588 1.04123L2.2088 0.511228L0.518804 6.38123C2.6188 8.31123 5.9388 9.43123 9.1688 8.81123L10.9388 3.47123L6.0588 1.04123Z " /></g><g opacity="1" transform="translate(4.8983674578954 9.060084133224413)  rotate(-24.64838301519547 8.708912604724429 8.846876952896144)"><path id="路径 3453" fill-rule="evenodd" style="fill:#FFFFFF" transform="translate(0 0)  rotate(0 8.708912604724429 8.846876952896144)" opacity="1" d="M0.19 8.61C-0.12 7.82 -0.23 6.08 1.32 5.47C2.88 4.85 3.95 5.97 3.95 5.97L4.69 5.97L8.2 0L16.66 1.96L17.42 10.29C17.42 10.29 15.72 13.22 15.13 14.32C14.52 15.42 13.48 16.79 12.02 17.29C8.53 18.48 5.34 16.82 3.95 14.95C2.56 13.09 2.7 10.45 2.7 10.45C1.72 10.2 0.51 9.4 0.19 8.61Z" /></g><g opacity="1" transform="translate(4.659286106245885 8.818612605563976)  rotate(-24.64838301519547 8.947789237105766 9.088335512586072)"><path id="路径 3454" fill-rule="evenodd" style="fill:#000045" transform="translate(0 0)  rotate(0 8.947789237105766 9.088335512586072)" opacity="1" d="M4.29 5.97Z M1.47 5.48C-0.25 6.16 -0.14 8.07 0.21 8.94C0.53 9.74 1.68 10.56 2.69 10.88C2.69 11.53 2.78 13.72 3.99 15.34C5.43 17.27 8.73 18.99 12.34 17.76C13.86 17.24 14.95 15.82 15.57 14.68C16.17 13.58 17.87 10.65 17.87 10.65C17.89 10.61 17.9 10.56 17.89 10.51L17.14 2.18C17.13 2.08 17.05 1.99 16.95 1.97L8.5 0.01C8.4 -0.02 8.29 0.03 8.24 0.12L4.79 5.97L4.29 5.97C3.99 5.72 2.93 4.91 1.47 5.48Z M4.01733 6.37703Z M2.99733 10.457C3.10733 10.487 3.18733 10.597 3.17733 10.707C3.17733 10.707 3.03733 13.257 4.38733 15.047C5.72733 16.857 8.81733 18.457 12.1773 17.307C13.5873 16.827 14.5773 15.497 15.1473 14.447C15.6973 13.447 17.1573 10.917 17.4073 10.477L16.6773 2.39703L8.56733 0.517026L5.13733 6.33703C5.08733 6.41703 5.00733 6.45703 4.92733 6.45703L4.18733 6.45703C4.11733 6.45703 4.05733 6.42703 4.01733 6.37703C4.01733 6.37703 3.05733 5.37703 1.65733 5.93703C0.25733 6.48703 0.37733 8.04703 0.65733 8.75703C0.76733 9.04703 1.01733 9.32703 1.32733 9.58703C1.80733 9.98703 2.43733 10.317 2.99733 10.457Z " /></g><g opacity="1" transform="translate(2.8411534030364862 3.4971625781240654)  rotate(-24.64838301519547 10.36882050685606 9.077881085959673)"><path id="路径 3455" fill-rule="evenodd" style="fill:#000045" transform="translate(0 0)  rotate(0 10.36882050685606 9.077881085959673)" opacity="1" d="M15.68 18.16L17.19 15.53C14.67 14.21 14.54 11.76 14.43 10.11C14.32 8.46 14.17 7.55 13.08 7.39C12 7.23 10.33 8.53 10.33 8.53C9.82 7.25 9.02 7.43 8.22 8.29C7.44 9.16 6.06 9.79 6.06 9.79C5.58 10.83 4.2 13.32 3.94 12.97C3.67 12.62 3.74 11.19 3.74 11.19C1.44 9.48 0.09 11.55 0.09 11.55C0.09 11.55 -0.5 8.19 1.31 4.3C3.12 0.41 7.29 1 7.29 1C9.11 -0.29 14.9 -1.02 18.53 3.29C22.16 7.6 20.22 15.02 20.22 15.02L19.64 14.15C18.48 17.78 15.68 18.16 15.68 18.16Z" /></g><g opacity="1" transform="translate(6.0728857620393875 18.076657275895926)  rotate(-24.64838301519547 1.127128853715057 1.2469537073151624)"><path id="路径 3456" fill-rule="evenodd" style="fill:#000045" transform="translate(0 0)  rotate(0 1.127128853715057 1.2469537073151624)" opacity="1" d="M2.22 2.13C2.29 2.24 2.25 2.39 2.14 2.46C2.03 2.53 1.88 2.49 1.81 2.38C1.03 1.1 0.1 0.44 0.1 0.44C0 0.36 -0.03 0.21 0.04 0.1C0.12 -0.01 0.27 -0.03 0.38 0.04C0.38 0.04 1.39 0.75 2.22 2.13Z" /></g><g opacity="1" transform="translate(6.2789979782053 19.35583383485244)  rotate(-24.64838301519547 0.8314188056096264 0.43835924572010154)"><path id="路径 3457" fill-rule="evenodd" style="fill:#000045" transform="translate(0 0)  rotate(0 0.8314188056096264 0.43835924572010154)" opacity="1" d="M1.38 0C1.51 -0.02 1.63 0.07 1.66 0.2C1.68 0.33 1.6 0.46 1.46 0.48C0.99 0.56 0.34 0.86 0.34 0.86C0.21 0.91 0.07 0.86 0.02 0.73C-0.03 0.61 0.02 0.47 0.14 0.41C0.14 0.41 0.86 0.1 1.38 0Z" /></g><g opacity="1" transform="translate(16.73007084352413 18.69197945764732)  rotate(-24.64838301519547 0.3606412745745486 1.102724839807284)"><path id="路径 3458" fill-rule="evenodd" style="fill:#000045" transform="translate(0 0)  rotate(0 0.3606412745745486 1.102724839807284)" opacity="1" d="M0.48 2C0.46 2.13 0.34 2.22 0.21 2.2C0.08 2.19 -0.01 2.06 0 1.93L0.24 0.21C0.26 0.08 0.38 -0.02 0.52 0C0.65 0.02 0.74 0.14 0.72 0.27L0.48 2Z" /></g><g opacity="1" transform="translate(11.821681936295978 14.931180805866605)  rotate(-24.64838301519547 1.6616725513785062 0.8647376148697674)"><path id="路径 3459" fill-rule="evenodd" style="fill:#000045" transform="translate(0 0)  rotate(0 1.6616725513785062 0.8647376148697674)" opacity="1" d="M3.29 1.37C3.36 1.49 3.31 1.63 3.2 1.7C3.08 1.76 2.94 1.72 2.87 1.61C1.99 0.02 0.32 0.58 0.32 0.58C0.19 0.62 0.05 0.55 0.01 0.43C-0.03 0.3 0.04 0.16 0.16 0.12C0.16 0.12 2.21 -0.57 3.29 1.37Z" /></g><g opacity="1" transform="translate(13.351999136581732 21.318032071607888)  rotate(-175.58310658259663 1.6616693552981159 0.8647288543621766)"><path id="路径 3460" fill-rule="evenodd" style="fill:#000045" transform="translate(0 0)  rotate(0 1.6616693552981159 0.8647288543621766)" opacity="1" d="M3.29 1.37C3.36 1.49 3.31 1.63 3.2 1.7C3.08 1.76 2.94 1.72 2.87 1.61C1.99 0.02 0.32 0.58 0.32 0.58C0.19 0.62 0.05 0.55 0.01 0.43C-0.03 0.3 0.04 0.16 0.16 0.12C0.16 0.12 2.21 -0.57 3.29 1.37Z" /></g><g opacity="1" transform="translate(17.66837334579619 14.544771284705275)  rotate(-24.64838301519547 1.0044048047389014 0.2947563088100312)"><path id="路径 3461" fill-rule="evenodd" style="fill:#000045" transform="translate(0 0)  rotate(0 1.0044048047389014 0.2947563088100312)" opacity="1" d="M1.84 0.12C1.97 0.16 2.04 0.29 2 0.42C1.96 0.55 1.82 0.62 1.7 0.58C0.99 0.36 0.32 0.58 0.32 0.58C0.19 0.62 0.05 0.55 0.01 0.42C-0.03 0.29 0.04 0.16 0.17 0.12C0.17 0.12 0.99 -0.15 1.84 0.12Z" /></g><g opacity="1" transform="translate(18.317695451158706 16.521176315483967)  rotate(-24.64838301519547 0.586376049412911 0.586376049412911)"><path id="椭圆 188" fill-rule="evenodd" style="fill:#000045" transform="translate(0 0)  rotate(0 0.586376049412911 0.586376049412911)" opacity="1" d="M0.59,0C0.26,0 0,0.26 0,0.59C0,0.91 0.26,1.17 0.59,1.17C0.91,1.17 1.17,0.91 1.17,0.59C1.17,0.26 0.91,0 0.59,0Z " /></g><g opacity="1" transform="translate(12.926078628977063 17.278298189618038)  rotate(-24.64838301519547 0.586376049412911 0.586376049412911)"><path id="椭圆 189" fill-rule="evenodd" style="fill:#000045" transform="translate(0 0)  rotate(0 0.586376049412911 0.586376049412911)" opacity="1" d="M0.59,0C0.26,0 0,0.26 0,0.59C0,0.91 0.26,1.17 0.59,1.17C0.91,1.17 1.17,0.91 1.17,0.59C1.17,0.26 0.91,0 0.59,0Z " /></g></g><g opacity="1" transform="translate(159.9176066631948 55.10293695107916)  rotate(0 15.816711110278057 25.09915988564736)"><g opacity="1" transform="translate(0.24173325773672688 7.726392993752045)  rotate(0 15.574905421109609 21.116200823228738)"><path id="路径 3462" fill-rule="evenodd" style="fill:#FFFFFF" transform="translate(0 0)  rotate(0 15.574905421109609 21.116200823228738)" opacity="1" d="M30.2 0C32.33 6.24 30.2 42.23 30.2 42.23L0 36.65C0.97 25.99 7.97 2.74 7.97 2.74L30.2 0Z" /></g><g opacity="1" transform="translate(0 7.489536069232937)  rotate(0 15.816711110278057 21.35439185103089)"><path id="路径 3463" fill-rule="evenodd" style="fill:#000045" transform="translate(0 0)  rotate(0 15.816711110278057 21.35439185103089)" opacity="1" d="M8.18 2.74Z M30.59 42.66C30.65 42.62 30.68 42.56 30.68 42.48C30.68 42.48 31.73 24.83 31.63 12.11C31.58 6.63 31.32 2.05 30.67 0.16C30.64 0.06 30.53 -0.01 30.41 0L8.18 2.74C8.09 2.75 8.01 2.82 7.98 2.91C7.98 2.91 0.98 26.19 0 36.86C-0.01 36.99 0.07 37.1 0.2 37.13L30.4 42.7C30.47 42.72 30.54 42.7 30.59 42.66Z M8.40287 3.20465Z M0.502866 36.6946C3.06287 37.1646 27.3829 41.6547 30.2229 42.1847C30.3529 39.9047 31.2429 23.9046 31.1429 12.1146C31.1029 6.87465 30.8629 2.46465 30.2729 0.504648L8.40287 3.20465C7.80287 5.19465 1.50287 26.4546 0.502866 36.6946Z " /></g><g opacity="1" transform="translate(5.977627655165502 0)  rotate(0 12.735054664444952 6.711800157008792)"><path id="路径 3464" fill-rule="evenodd" style="fill:#3D61FF" transform="translate(0 0)  rotate(0 12.735054664444952 6.711800157008792)" opacity="1" d="M24.6 4.53C25.49 5.25 25.53 7.24 25.44 8.57C25.42 8.86 25.27 9.13 25.04 9.31C24.8 9.48 24.5 9.55 24.22 9.48C23.59 9.35 22.64 9.24 21.26 9.21C19.9723 9.19778 16.5975 10.0822 12.9278 11.0439C7.59183 12.4422 1.63245 14.004 0.56 13.21C-1.25 11.86 1.66 1.55 4.55 0.44C9.48 -1.47 23.21 3.39 24.6 4.53Z" /></g></g><g opacity="1" transform="translate(79.05568526086883 86.52893691198362)  rotate(0 104.47200736423223 33.94236729699769)"><g opacity="1" transform="translate(33.22028413001269 31.28020597611369)  rotate(0 87.74130689491255 18.302264308940845)"><path id="路径 3465" fill-rule="evenodd" style="fill:#000045" transform="translate(0 0)  rotate(0 87.74130689491255 18.302264308940845)" opacity="1" d="M0 0L175.48 4.07L0 36.6L0 0Z" /></g><g opacity="1" transform="translate(0.2415669394341253 0.24059340846629446)  rotate(0 104.23065587515742 19.954873470493354)"><path id="路径 3466" fill-rule="evenodd" style="fill:#FFFFFF" transform="translate(0 0)  rotate(0 104.23065587515742 19.954873470493354)" opacity="1" d="M208.46 35.11L0 39.91L47.43 0L208.46 35.11Z" /></g><g opacity="1" transform="translate(0 0)  rotate(0 104.47200736423223 20.197148468256177)"><path id="路径 3467" fill-rule="evenodd" style="fill:#000045" transform="translate(0 0)  rotate(0 104.47200736423223 20.197148468256177)" opacity="1" d="M208.71 35.59Z M0.09 39.96C0.01 40.03 -0.02 40.14 0.02 40.23C0.05 40.34 0.14 40.39 0.25 40.39L208.71 35.59C208.83 35.59 208.93 35.5 208.94 35.37C208.95 35.26 208.87 35.14 208.75 35.12L47.72 0.01C47.65 -0.01 47.57 0.01 47.51 0.06L0.09 39.96Z M206.673 35.1675Z M47.7325 0.507479C45.4525 2.41748 0.922536 39.8975 0.922536 39.8975L206.673 35.1675C206.673 35.1675 52.5625 1.55748 47.7325 0.507479Z " /></g></g><g opacity="1" transform="translate(11.485547452480352 57.13694230155758)  rotate(0 126.88837477932496 64.59742403169821)"><g opacity="1" transform="translate(208.0913867291136 73.77066594458732)  rotate(0 22.842681414768165 5.140477315939778)"><path id="路径 3468" fill-rule="evenodd" style="fill:#000045" transform="translate(0 0)  rotate(0 22.842681414768165 5.140477315939778)" opacity="1" d="M0.29 10.28C0.16 10.3 0.03 10.22 0.01 10.09C-0.02 9.96 0.06 9.84 0.19 9.8L45.39 0C45.52 -0.02 45.65 0.06 45.68 0.19C45.71 0.32 45.63 0.44 45.5 0.48L0.29 10.28Z" /></g><g opacity="1" transform="translate(205.86623472336132 20.942413274480312)  rotate(0 1.4862389336206503 1.4867962433648787)"><path id="路径 3469" fill-rule="evenodd" style="fill:#000045" transform="translate(0 0)  rotate(0 1.4862389336206503 1.4867962433648787)" opacity="1" d="M1.49 0Z M1.49 2.97C2.31 2.97 2.97 2.31 2.97 1.48C2.97 0.66 2.31 0 1.49 0C0.67 0 0 0.66 0 1.48C0 2.31 0.67 2.97 1.49 2.97Z M1.4825 0.481091Z M0.482498 1.48109C0.482498 2.04109 0.932498 2.48109 1.4825 2.48109C2.0425 2.48109 2.4925 2.04109 2.4925 1.48109C2.4925 0.931091 2.0425 0.481091 1.4825 0.481091C0.932498 0.481091 0.482498 0.931091 0.482498 1.48109Z " /></g><g opacity="1" transform="translate(187.99393571525368 26.07335588660034)  rotate(0 20.60279448138012 7.802184654102641)"><path id="路径 3470" fill-rule="evenodd" style="fill:#3D61FF" transform="translate(0 0)  rotate(0 20.60279448138012 7.802184654102641)" opacity="1" d="M41.05 15.14C41.17 15.18 41.24 15.32 41.19 15.45C41.14 15.57 41 15.64 40.88 15.59L0.16 0.47C0.03 0.42 -0.03 0.28 0.01 0.16C0.06 0.03 0.2 -0.03 0.33 0.01L41.05 15.14Z" /></g><g opacity="1" transform="translate(0.05972790670747585 64.83634390535532)  rotate(-0.7099151549670043 17.620060533759492 4.929799610522195)"><path id="路径 3471" fill-rule="evenodd" style="fill:#3D61FF" transform="translate(0 0)  rotate(0 17.620060533759492 4.929799610522195)" opacity="1" d="M14.15 7.19Z M14.9 0.07C13.75 0.32 12.74 1.21 12.49 2.84C12.2 4.66 12.94 6.12 14.15 7.19C9.5 8.35 4.58 6.63 0.34 4.8C0.21 4.74 0.07 4.8 0.02 4.93C-0.03 5.05 0.02 5.2 0.15 5.24C4.57 7.16 9.74 8.92 14.58 7.59L14.61 7.57C15.48 8.22 16.52 8.7 17.57 9C23.1 10.57 29.53 9.74 35.05 8.52C35.18 8.5 35.26 8.36 35.23 8.23C35.21 8.11 35.08 8.03 34.95 8.05C29.5 9.25 23.15 10.08 17.7 8.52C16.82 8.28 15.94 7.9 15.18 7.39C16.21 7.03 17.35 6.45 18.1 5.63C18.73 4.94 19.1 4.1 18.96 3.09C18.65 0.78 16.61 -0.3 14.9 0.07Z M14.7093 7.03638Z M18.4893 3.14638C18.2193 1.16638 16.4693 0.226382 14.9993 0.536382C14.0193 0.756382 13.1793 1.53638 12.9593 2.91638C12.6893 4.67638 13.4793 6.05638 14.7093 7.03638C15.5593 6.77638 16.5393 6.34638 17.2893 5.72638C18.0793 5.07638 18.6293 4.23638 18.4893 3.14638Z " /></g><g opacity="1" transform="translate(97.0299607485932 120.07662123105293)  rotate(0 17.641957683734173 4.559113416171748)"><path id="路径 3472" fill-rule="evenodd" style="fill:#3D61FF" transform="translate(0 0)  rotate(0 17.641957683734173 4.559113416171748)" opacity="1" d="M34.98 0.01C35.11 -0.03 35.25 0.05 35.28 0.18C35.31 0.31 35.23 0.44 35.1 0.47L0.3 9.11C0.17 9.14 0.04 9.06 0.01 8.94C-0.03 8.81 0.05 8.67 0.18 8.65L34.98 0.01Z" /></g><g opacity="1" transform="translate(154.25914009932 120.07257534643755)  rotate(0 2.4012884565253962 2.4003596069517807)"><path id="路径 3473" fill-rule="evenodd" style="fill:#000045" transform="translate(0 0)  rotate(0 2.4012884565253962 2.4003596069517807)" opacity="1" d="M2.4 0Z M2.4 4.8C3.73 4.8 4.8 3.72 4.8 2.4C4.8 1.08 3.73 0 2.4 0C1.08 0 0 1.08 0 2.4C0 3.72 1.08 4.8 2.4 4.8Z M2.40236 0.48746Z M0.482365 2.39746C0.482365 3.45746 1.34236 4.32746 2.40236 4.32746C3.46236 4.32746 4.32236 3.45746 4.32236 2.39746C4.32236 1.34746 3.46236 0.48746 2.40236 0.48746C1.34236 0.48746 0.482365 1.34746 0.482365 2.39746Z " /></g><g opacity="1" transform="translate(61.355336675529024 2.888035395883203)  rotate(-168.01801813460335 14.3692847318795 4.364364720270491)"><path id="路径 3474" fill-rule="evenodd" style="fill:#000045" transform="translate(0 0)  rotate(0 14.3692847318795 4.364364720270491)" opacity="1" d="M12.46 2.19Z M0.02 4.38C0.08 4.5 0.22 4.55 0.34 4.49C3.76 2.9 7.73 1.4 11.48 2.38C10.51 3.33 9.92 4.61 10.15 6.2C10.41 8.01 11.66 8.8 12.87 8.72C14.08 8.64 15.29 7.69 15.51 5.98C15.65 4.87 15.14 3.98 14.39 3.31C13.82 2.81 13.12 2.45 12.46 2.19C13.06 1.76 13.76 1.44 14.45 1.22C18.88 -0.13 24.02 0.59 28.44 1.64C28.57 1.67 28.7 1.59 28.73 1.47C28.76 1.33 28.68 1.2 28.55 1.17C24.05 0.1 18.81 -0.62 14.31 0.76C13.46 1.02 12.62 1.44 11.91 2.01C7.96 0.82 3.75 2.37 0.14 4.07C0.02 4.12 -0.03 4.26 0.02 4.38Z M12.015 2.54711Z M12.845 8.24711C13.855 8.17711 14.845 7.35711 15.025 5.92711C15.145 4.98711 14.705 4.23711 14.065 3.67711C13.465 3.14711 12.695 2.76711 12.015 2.54711C11.035 3.40711 10.405 4.60711 10.625 6.13711C10.845 7.62711 11.835 8.30711 12.845 8.24711Z " /></g></g><g opacity="1" transform="translate(176.51337483272368 66.39446368278035)  rotate(0 15.879894340464473 27.212099426505613)"><g opacity="1" transform="translate(17.276097754112463 42.849462044625625)  rotate(0 7.121009589820781 5.6659200481720715)"><path id="路径 3475" fill-rule="evenodd" style="fill:#FFFFFF" transform="translate(0 0)  rotate(0 7.121009589820781 5.6659200481720715)" opacity="1" d="M6.62 11.28C5.9 11.14 1.67 7.37 0 2.13L6.63 0C6.63 0 8.12 0.4 10.47 1.86C10.47 1.86 13.63 4.15 14.22 4.88C14.42 5.13 13.33 6.19 11.82 4.88C11.69 4.76 9.56 4.01 9.56 4.01C9.56 4.01 13.31 8.37 13.3 9.18C13.3 9.66 12.62 10 12.11 9.64C11.69 9.36 9.17 6.42 8.62 6.06C8.62 6.06 9.56 7.78 10.47 9.64C10.81 10.34 10.38 10.66 9.98 10.66C9.67 10.65 9.4 10.4 9.4 10.4C9.4 10.4 9.63 11.17 8.89 11.31C8.19 11.44 7.89 10.88 7.89 10.88C7.89 10.88 7.33 11.41 6.62 11.28Z" /></g><g opacity="1" transform="translate(17.034859970784716 42.6057883109214)  rotate(0 7.362464355072115 5.909205271044914)"><path id="路径 3476" fill-rule="evenodd" style="fill:#000045" transform="translate(0 0)  rotate(0 7.362464355072115 5.909205271044914)" opacity="1" d="M11.91 5.32Z M11.91 5.32C13.11 6.34 14.09 6.01 14.48 5.66C14.64 5.51 14.72 5.34 14.72 5.22C14.73 5.12 14.7 5.04 14.65 4.97C14.05 4.24 10.85 1.91 10.85 1.91C10.85 1.9 10.84 1.9 10.84 1.9C8.45 0.42 6.93 0.01 6.93 0.01C6.89 0 6.84 0 6.8 0.01L0.17 2.14C0.04 2.18 -0.03 2.32 0.01 2.45C1.19 6.16 3.65 9.15 5.26 10.66C5.76 11.12 6.18 11.44 6.46 11.61C6.61 11.7 6.73 11.74 6.81 11.76C7.36 11.86 7.83 11.63 8.09 11.47C8.28 11.66 8.63 11.9 9.17 11.79C9.69 11.7 9.86 11.36 9.9 11.07C10 11.12 10.11 11.14 10.22 11.14C10.5 11.14 10.78 11.02 10.94 10.8C11.09 10.57 11.15 10.24 10.93 9.78C10.53 8.98 10.13 8.18 9.8 7.55C10.02 7.79 10.25 8.04 10.48 8.29C11.25 9.13 12 9.94 12.21 10.09C12.61 10.36 13.09 10.31 13.41 10.1C13.64 9.94 13.78 9.7 13.79 9.43C13.79 9.33 13.75 9.19 13.68 9.03C13.55 8.73 13.28 8.29 12.93 7.81C12.22 6.8 11.2 5.55 10.57 4.79C10.96 4.93 11.4 5.09 11.68 5.21C11.79 5.25 11.89 5.31 11.91 5.32Z M14.2162 5.2102Z M10.4962 9.9902C9.58623 8.1402 8.64623 6.4202 8.64623 6.4202C8.59623 6.3202 8.61623 6.1902 8.69623 6.1202C8.77623 6.0402 8.89623 6.0302 8.99623 6.1002C9.27623 6.2902 10.0662 7.1202 10.8362 7.9602C11.5662 8.7602 12.2862 9.5502 12.4862 9.6902C12.7062 9.8402 12.9662 9.8102 13.1362 9.6902C13.2262 9.6302 13.3062 9.5402 13.3062 9.4302C13.3062 9.3502 13.2562 9.2402 13.1862 9.1102C13.0462 8.8402 12.8162 8.4802 12.5362 8.0902C11.4462 6.5402 9.61623 4.4202 9.61623 4.4202C9.54623 4.3302 9.53623 4.2002 9.59623 4.1202C9.66623 4.0302 9.77623 3.9902 9.87623 4.0302C9.87623 4.0302 11.2462 4.5102 11.8662 4.7602C12.0562 4.8502 12.1862 4.9102 12.2162 4.9402C13.0062 5.6202 13.6562 5.6002 14.0162 5.3902C14.1062 5.3502 14.1862 5.2602 14.2162 5.2102C13.5462 4.4702 10.7362 2.4302 10.5762 2.3102C8.55623 1.0502 7.18623 0.590199 6.87623 0.500199L0.546229 2.5302C1.72623 6.0402 4.05623 8.8702 5.59623 10.3002C5.99623 10.6702 6.33623 10.9502 6.59623 11.1202C6.73623 11.2102 6.83623 11.2702 6.90623 11.2802C7.49623 11.4002 7.97623 10.9602 7.97623 10.9602C8.02623 10.9002 8.10623 10.8802 8.17623 10.8902C8.24623 10.9002 8.31623 10.9602 8.34623 11.0202C8.34623 11.0202 8.57623 11.4202 9.08623 11.3202C9.57623 11.2202 9.40623 10.7102 9.40623 10.7102C9.37623 10.6002 9.42623 10.5002 9.51623 10.4302C9.60623 10.3802 9.72623 10.3902 9.80623 10.4602C9.80623 10.4602 9.99623 10.6602 10.2262 10.6602C10.3662 10.6602 10.5262 10.6002 10.5762 10.4602C10.6162 10.3502 10.5962 10.2002 10.4962 9.9902Z " /></g><g opacity="1" transform="translate(0.2408371663501723 0)  rotate(0 12.184758603699816 22.951313541971775)"><path id="路径 3477" fill-rule="evenodd" style="fill:#FFFFFF" transform="translate(0 0)  rotate(0 12.184758603699816 22.951313541971775)" opacity="1" d="M3.79 27.05C3.79 27.05 -0.26 13.8 0.01 6.63C0.15 3.11 2.28 1.32 4.41 0.39C5.58 -0.12 6.9 -0.13 8.08 0.35C9.26 0.83 10.19 1.78 10.67 2.95C13.71 10.54 15.48 23.99 15.48 23.99C15.48 23.99 22.4 35.94 23.24 37.84C24.07 39.75 23.58 41.09 23.58 41.09L24.37 43.21C22.31 45.6 17 45.9 17 45.9L15.48 43.72C15.48 43.72 13.07 43.52 11.47 41.53C10.11 39.83 3.79 27.05 3.79 27.05Z" /></g><g opacity="1" transform="translate(0 5.791645323187551)  rotate(0 12.426037614304619 20.17851659175147)"><path id="路径 3478" fill-rule="evenodd" style="fill:#000045" transform="translate(0 0)  rotate(0 12.426037614304619 20.17851659175147)" opacity="1" d="M3.82 21.37C3.81 21.36 3.81 21.35 3.8 21.33C3.8 21.33 -0.26 8.02 0.01 0.83C0.02 0.69 0.13 0.6 0.26 0.6C0.4 0.61 0.5 0.71 0.5 0.85C0.23 7.83 4.09 20.61 4.26 21.17C4.52 21.7 10.57 33.94 11.9 35.58C13.43 37.49 15.74 37.68 15.74 37.68C15.82 37.69 15.88 37.72 15.92 37.79L17.36 39.86C17.82 39.82 19.42 39.67 21.05 39.17C22.28 38.79 23.53 38.23 24.33 37.36L23.6 35.38C23.58 35.33 23.58 35.27 23.6 35.22C23.6 35.22 24.04 33.95 23.26 32.15C22.42 30.24 15.52 18.32 15.52 18.32C15.5 18.29 15.49 18.27 15.48 18.23C15.48 18.23 14.13 7.96 11.76 0.32C11.72 0.19 11.79 0.05 11.92 0.01C12.05 -0.02 12.18 0.04 12.22 0.17C14.51 7.54 15.85 17.36 15.96 18.12C16.4 18.89 22.89 30.11 23.7 31.96C24.45 33.67 24.18 34.95 24.08 35.29L24.84 37.33C24.87 37.41 24.85 37.51 24.79 37.57C23.94 38.56 22.56 39.21 21.2 39.63C19.19 40.24 17.25 40.36 17.25 40.36C17.17 40.36 17.09 40.32 17.04 40.25L15.59 38.15C15.07 38.08 12.98 37.69 11.52 35.88C10.16 34.19 3.82 21.37 3.82 21.37Z" /></g><g opacity="1" transform="translate(24.155645246926937 49.488718635164275)  rotate(0 1.385236988716205 1.9997726377492042)"><path id="路径 3479" fill-rule="evenodd" style="fill:#000045" transform="translate(0 0)  rotate(0 1.385236988716205 1.9997726377492042)" opacity="1" d="M2.73 3.62C2.8 3.74 2.77 3.89 2.67 3.96C2.55 4.04 2.4 4 2.33 3.89L0.04 0.37C-0.04 0.26 0 0.11 0.11 0.04C0.22 -0.03 0.37 0 0.45 0.11L2.73 3.62Z" /></g><g opacity="1" transform="translate(22.331225577551617 50.00937080032272)  rotate(0 1.5620542971282965 2.0056824402941196)"><path id="路径 3480" fill-rule="evenodd" style="fill:#000045" transform="translate(0 0)  rotate(0 1.5620542971282965 2.0056824402941196)" opacity="1" d="M3.08 3.62C3.16 3.74 3.13 3.89 3.03 3.97C2.91 4.04 2.76 4.03 2.68 3.91L0.05 0.39C-0.03 0.28 -0.01 0.13 0.09 0.05C0.2 -0.03 0.35 -0.01 0.43 0.1L3.08 3.62Z" /></g><g opacity="1" transform="translate(16.477001646386217 41.050576618444445)  rotate(0 3.3333262325325808 1.234695583790462)"><path id="路径 3481" fill-rule="evenodd" style="fill:#000045" transform="translate(0 0)  rotate(0 3.3333262325325808 1.234695583790462)" opacity="1" d="M6.29 0.04C6.4 -0.04 6.55 0 6.62 0.1C6.7 0.22 6.67 0.37 6.56 0.44C4.05 2.19 0.27 2.47 0.27 2.47C0.13 2.48 0.01 2.38 0 2.25C-0.01 2.11 0.09 1.99 0.23 1.98C0.23 1.98 3.87 1.73 6.29 0.04Z" /></g></g><g opacity="1" transform="translate(63.04804516771663 117.57017920238884)  rotate(0 81.62095976719652 19.05441194422926)"><g opacity="1" transform="translate(5.512902009774584 9.109119673460304)  rotate(0 78.74368703641775 14.377529858727629)"><path id="路径 3482" fill-rule="evenodd" style="fill:#FFFFFF" transform="translate(0 0)  rotate(0 78.74368703641775 14.377529858727629)" opacity="1" d="M0.19 0L157.49 28.76L0 9.91L0.19 0Z" /></g><g opacity="1" transform="translate(5.271449047100629 8.863023043988349)  rotate(0 78.98523524364622 14.622900422235084)"><path id="路径 3483" fill-rule="evenodd" style="fill:#000045" transform="translate(0 0)  rotate(0 78.98523524364622 14.622900422235084)" opacity="1" d="M0 10.16Z M0.27 0.06C0.22 0.11 0.19 0.17 0.19 0.25L0 10.16C0 10.29 0.09 10.39 0.21 10.4L157.7 29.24C157.83 29.26 157.95 29.16 157.97 29.04C157.99 28.91 157.9 28.79 157.77 28.76L0.47 0C0.4 -0.01 0.33 0.01 0.27 0.06Z M0.487136 9.94642Z M149.997 27.8264L0.667136 0.536421L0.487136 9.94642C0.487136 9.94642 118.317 24.0364 149.997 27.8264Z " /></g><g opacity="1" transform="translate(0.24152315808343242 0.23904109847848148)  rotate(0 81.37937731750999 18.812653880417233)"><path id="路径 3484" fill-rule="evenodd" style="fill:#FFFFFF" transform="translate(0 0)  rotate(0 81.37937731750999 18.812653880417233)" opacity="1" d="M0 0L162.76 37.63L5.46 8.87L0 0Z" /></g><g opacity="1" transform="translate(0 0)  rotate(0 81.62092751151735 19.051939561932873)"><path id="路径 3485" fill-rule="evenodd" style="fill:#000045" transform="translate(0 0)  rotate(0 81.62092751151735 19.051939561932873)" opacity="1" d="M5.49 9.24Z M0.05 0.1C-0.01 0.18 -0.02 0.29 0.04 0.37L5.49 9.24C5.53 9.29 5.59 9.33 5.66 9.34L162.96 38.1C163.09 38.13 163.21 38.04 163.24 37.91C163.26 37.78 163.18 37.66 163.05 37.63L0.3 0.01C0.2 -0.02 0.1 0.02 0.05 0.1Z M5.85007 8.88883Z M152.8 35.7588L0.750067 0.598833L5.85007 8.88883C9.72007 9.59883 118.51 29.4788 152.8 35.7588Z " /></g></g><g opacity="1" transform="translate(96.15521256623153 91.72356362643461)  rotate(0 16.504303042351275 25.300272970397874)"><g opacity="1" transform="translate(0.24160473873412322 0.24059598052528586)  rotate(0 16.26287472048431 25.06259073778912)"><path id="路径 3486" fill-rule="evenodd" style="fill:#FFFFFF" transform="translate(0 0)  rotate(0 16.26287472048431 25.06259073778912)" opacity="1" d="M31.68 50.13L0 46.65C0 46.65 5.44 19.82 7.66 13.32C9.89 6.84 13.95 3.84 13.95 3.84L17.34 0C17.34 0 28.26 2.47 28.49 3.07C28.72 3.68 28.49 5.35 28.49 5.35C35 17.68 31.68 50.13 31.68 50.13Z" /></g><g opacity="1" transform="translate(0 0)  rotate(0 16.504303042351275 25.300272970397874)"><path id="路径 3487" fill-rule="evenodd" style="fill:#000045" transform="translate(0 0)  rotate(0 16.504303042351275 25.300272970397874)" opacity="1" d="M14.03 3.9Z M17.4 0.08L14.03 3.9C13.71 4.15 9.83 7.2 7.68 13.49C5.45 19.97 0.01 46.84 0.01 46.84C-0.01 46.91 0.01 46.98 0.05 47.03C0.09 47.08 0.15 47.12 0.21 47.13L31.89 50.6C31.96 50.61 32.02 50.59 32.07 50.55C32.12 50.5 32.16 50.45 32.16 50.39C32.16 50.39 33.79 34.47 32.53 20.67C31.99 14.77 30.92 9.26 28.98 5.54C29.01 5.31 29.08 4.65 29.07 4.07C29.07 3.73 29.03 3.43 28.96 3.22C28.93 3.16 28.85 3.06 28.7 2.98C28.49 2.85 28.09 2.7 27.56 2.52C24.64 1.59 17.64 0.01 17.64 0.01C17.55 -0.01 17.46 0.01 17.4 0.08Z M28.5215 3.42793Z M8.13147 13.6479C6.04147 19.7579 1.09147 43.9079 0.531473 46.6779C3.41147 46.9879 28.9415 49.7879 31.7015 50.0979C31.8715 48.3679 32.8315 37.6679 32.4215 26.6879C32.1215 18.7279 31.1115 10.6079 28.5215 5.68793C28.4915 5.64793 28.4815 5.59793 28.4915 5.54793C28.4915 5.54793 28.6015 4.74793 28.5915 4.06793C28.5815 3.82793 28.5715 3.58793 28.5215 3.42793C28.4815 3.40793 28.4015 3.35793 28.3115 3.32793C28.1015 3.21793 27.7915 3.11793 27.4115 2.98793C24.7415 2.12793 18.6615 0.737935 17.6715 0.507935L14.3715 4.23794C14.3615 4.24793 14.3515 4.26793 14.3415 4.27794C14.3415 4.27794 10.3315 7.24793 8.13147 13.6479Z " /></g><g opacity="1" transform="translate(0.47350219410411426 0.98271315022585)  rotate(0 14.791042877565003 24.499973281710737)"><path id="路径 3488" fill-rule="evenodd" style="fill:#3D61FF" transform="translate(0 0)  rotate(0 14.791042877565003 24.499973281710737)" opacity="1" d="M13.95 3.1L16.68 0L23.79 0.81L23.83 0.82C23.94 1.06 28.47 10.16 29.16 18.66C29.75 25.91 29.64 43.6 29.3 49L0 45.9C0 45.9 5.44 19.07 7.66 12.58C9.89 6.1 13.95 3.1 13.95 3.1Z" /></g></g><g opacity="1" transform="translate(101.39603874048667 68.58878299727999)  rotate(0 15.019942861948312 15.902510433308608)"><g opacity="1" transform="translate(1.4037413960011502 19.32527699434848)  rotate(21.391036425543255 5.990428342828864 4.980119874426668)"><path id="路径 3489" fill-rule="evenodd" style="fill:#000045" transform="translate(0 0)  rotate(0 5.990428342828864 4.980119874426668)" opacity="1" d="M10.08 0.15C13.13 3.95 11.59 9.96 11.59 9.96L0 7.28C1.21 1.66 5.45 0 5.45 0L10.08 0.15Z" /></g><g opacity="1" transform="translate(15.957400594786735 19.59547235541749)  rotate(0 3.7752958230823053 3.1829286420857152)"><path id="路径 3490" fill-rule="evenodd" style="fill:#FFFFFF" transform="translate(0 0)  rotate(0 3.7752958230823053 3.1829286420857152)" opacity="1" d="M0.62 4.78L0 0L7.55 1.74L6.72 6.37L0.62 4.78Z" /></g><g opacity="1" transform="translate(15.715319255575782 19.349374896617135)  rotate(0 4.017163273050818 3.4280450919745364)"><path id="路径 3491" fill-rule="evenodd" style="fill:#000045" transform="translate(0 0)  rotate(0 4.017163273050818 3.4280450919745364)" opacity="1" d="M8.03 2.03Z M8.03 2.03C8.05 1.9 7.97 1.78 7.85 1.75L0.3 0C0.22 -0.01 0.14 0.01 0.08 0.06C0.02 0.12 -0.01 0.2 0 0.27L0.63 5.06C0.64 5.15 0.71 5.23 0.8 5.26L6.9 6.84C6.96 6.87 7.03 6.86 7.09 6.82C7.15 6.79 7.18 6.73 7.2 6.66L8.03 2.03Z M7.51613 2.16935Z M0.526132 0.55935L1.08613 4.82935L6.76613 6.30935L7.51613 2.16935L0.526132 0.55935Z " /></g><g opacity="1" transform="translate(8.25098899064721 19.23401664223936)  rotate(20.32896810917515 2.658569836484643 0.7403196488095577)"><path id="路径 3492" fill-rule="evenodd" style="fill:#FFFFFF" transform="translate(0 0)  rotate(0 2.658569836484643 0.7403196488095577)" opacity="1" d="M0.22 1.26C0.36 1.4 0.54 1.48 0.74 1.48C1.75 1.48 3.56 1.48 4.58 1.48C4.77 1.48 4.96 1.4 5.1 1.26C5.24 1.12 5.32 0.94 5.32 0.74C5.32 0.54 5.24 0.35 5.1 0.21C4.96 0.08 4.77 0 4.58 0C3.56 0 1.75 0 0.74 0C0.54 0 0.36 0.08 0.22 0.21C0.08 0.35 0 0.54 0 0.74C0 0.94 0.08 1.12 0.22 1.26Z" /></g><g opacity="1" transform="translate(8.01019906607423 18.987085920610536)  rotate(20.32896810917515 2.900501977238159 0.9828820803452387)"><path id="路径 3493" fill-rule="evenodd" style="fill:#000045" transform="translate(0 0)  rotate(0 2.900501977238159 0.9828820803452387)" opacity="1" d="M5.8 0.99Z M5.51 1.68C5.7 1.5 5.8 1.24 5.8 0.99C5.8 0.72 5.7 0.48 5.51 0.29C5.33 0.1 5.08 0 4.82 0C3.81 0 2 0 0.98 0C0.72 0 0.47 0.1 0.29 0.29C0.1 0.48 0 0.72 0 0.99C0 1.24 0.1 1.5 0.29 1.68C0.47 1.86 0.72 1.97 0.98 1.97C2 1.97 3.81 1.97 4.82 1.97C5.08 1.97 5.33 1.86 5.51 1.68Z M0.483858 0.985337Z M5.31386 0.985337Z M5.17386 0.625337C5.07386 0.535337 4.95386 0.485337 4.82386 0.485337C3.80386 0.485337 1.99386 0.485337 0.983858 0.485337C0.853858 0.485337 0.723858 0.535337 0.633858 0.625337C0.533858 0.725337 0.483858 0.855337 0.483858 0.985337C0.483858 1.11534 0.533858 1.24534 0.633858 1.33534C0.723858 1.42534 0.853858 1.48534 0.983858 1.48534L4.82386 1.48534C4.95386 1.48534 5.07386 1.42534 5.17386 1.33534C5.26386 1.24534 5.31386 1.11534 5.31386 0.985337C5.31386 0.855337 5.26386 0.725337 5.17386 0.625337Z " /></g><g opacity="1" transform="translate(15.869201351782701 7.142532912035518)  rotate(0 6.5276363413532135 7.6094912653755395)"><path id="路径 3494" fill-rule="evenodd" style="fill:#FFFFFF" transform="translate(0 0)  rotate(0 6.5276363413532135 7.6094912653755395)" opacity="1" d="M11.85 10.62C11.49 12.1 11.06 13.39 10.54 14.02C8.85 16.02 4.26 14.91 4.26 14.91L0 13.18L1.62 0L13.06 2.96C13.06 2.96 12.85 5.25 12.42 7.79C12.42 7.79 12.97 9.84 12.65 10.37C12.5 10.62 12.15 10.66 11.85 10.62Z" /></g><g opacity="1" transform="translate(15.624347935069606 6.906106603336968)  rotate(0 6.772701668518447 7.850720475884307)"><path id="路径 3495" fill-rule="evenodd" style="fill:#000045" transform="translate(0 0)  rotate(0 6.772701668518447 7.850720475884307)" opacity="1" d="M12.29 11.11Z M0.15 13.65L4.41 15.38C4.42 15.38 4.43 15.38 4.44 15.39C4.44 15.39 6.14 15.8 7.85 15.68C9.05 15.6 10.25 15.25 10.97 14.41C11.48 13.79 11.92 12.56 12.29 11.11C12.62 11.1 12.93 11.01 13.1 10.73C13.22 10.54 13.25 10.2 13.23 9.8C13.19 9.11 12.97 8.24 12.91 8.02C13.34 5.49 13.54 3.2 13.54 3.2C13.56 3.09 13.47 2.98 13.36 2.95L1.93 0C1.86 -0.01 1.79 0 1.73 0.04C1.67 0.07 1.64 0.14 1.62 0.21L0 13.4C-0.01 13.5 0.05 13.61 0.15 13.65Z M12.43 8.08779Z M12.43 7.97779C12.78 5.90779 12.98 3.97779 13.05 3.36779L2.08002 0.537791L0.50002 13.2678L4.57002 14.9178C4.74002 14.9578 6.27002 15.2978 7.82002 15.1978C8.88002 15.1278 9.96002 14.8478 10.6 14.0878C11.1 13.4878 11.52 12.2378 11.86 10.7978C11.9 10.6878 12 10.5978 12.13 10.6178C12.25 10.6278 12.39 10.6378 12.49 10.5978C12.57 10.5778 12.65 10.5478 12.7 10.4778C12.77 10.3478 12.77 10.1078 12.76 9.83779C12.7 9.06779 12.43 8.08779 12.43 8.08779C12.42 8.06779 12.42 8.01779 12.43 7.97779Z M12.8827 8.12145Z M12.8627 8.18145C12.8727 8.15145 12.8827 8.14145 12.8827 8.12145C12.8727 8.17145 12.6627 8.27145 12.6627 8.27145C12.7427 8.27145 12.8127 8.24145 12.8627 8.18145Z M12.9027 8.06285Z M12.8827 8.12285C12.8927 8.11285 12.8927 8.08285 12.9027 8.06285L12.6627 8.27285L12.8827 8.12285Z M12.6628 8.26722Z M12.6628 8.26722C12.6628 8.25722 12.4628 7.86722 12.4428 7.93722L12.6628 8.26722Z " /></g><g opacity="1" transform="translate(8.24046607130264 0)  rotate(0 10.899709826296991 11.531078953816557)"><path id="路径 3496" fill-rule="evenodd" style="fill:#000045" transform="translate(0 0)  rotate(0 10.899709826296991 11.531078953816557)" opacity="1" d="M14.16 0.49C23.69 3.15 21.61 11.56 21.61 11.56L15.46 10.48C13.48 19.28 11.49 23.06 11.49 23.06C12.29 19.6 13.49 11.61 13.49 11.61C13.49 11.61 10.47 9.9 9.27 11.91C7.44 14.99 11.74 16.86 11.74 16.86L11.18 20.4C10.71 21.5 9.89 22.03 9.03 22.69C7.09 22.76 3.85 21.21 3.85 21.21L3.24 19.49L0.98 18.59C0.01 16.64 -0.17 14.08 0.14 10.48C0.44 6.89 4.62 -2.19 14.16 0.49Z" /></g><g opacity="1" transform="translate(18.79458488697673 24.929114036259776)  rotate(0 0.01565774995689844 0.005520020323787927)"><path id="路径 3497" fill-rule="evenodd" style="fill:#FF7A3D" transform="translate(0 0)  rotate(0 0.01565774995689844 0.005520020323787927)" opacity="1" d="" /></g><g opacity="1" transform="translate(26.128660075508787 13.580937961530763)  rotate(-24.64838301519547 0.586376049412911 0.586376049412911)"><path id="椭圆 190" fill-rule="evenodd" style="fill:#000045" transform="translate(0 0)  rotate(0 0.586376049412911 0.586376049412911)" opacity="1" d="M0.59,0C0.26,0 0,0.26 0,0.59C0,0.91 0.26,1.17 0.59,1.17C0.91,1.17 1.17,0.91 1.17,0.59C1.17,0.26 0.91,0 0.59,0Z " /></g><g opacity="1" transform="translate(18.27191225944214 12.040762243522195)  rotate(0 1.1997514198483799 1.2385950772593126)"><path id="路径 3498" fill-rule="evenodd" style="fill:#000045" transform="translate(0 0)  rotate(0 1.1997514198483799 1.2385950772593126)" opacity="1" d="M2.37 2.12C2.43 2.22 2.4 2.37 2.28 2.44C2.17 2.51 2.02 2.48 1.95 2.36C1.21 1.12 0.11 0.45 0.11 0.45C0 0.38 -0.03 0.23 0.04 0.11C0.11 0.01 0.25 -0.04 0.37 0.04C0.37 0.04 1.56 0.77 2.37 2.12Z" /></g><g opacity="1" transform="translate(18.55586418054414 13.272032382522998)  rotate(0 0.7840392472311792 0.45639931928670435)"><path id="路径 3499" fill-rule="evenodd" style="fill:#000045" transform="translate(0 0)  rotate(0 0.7840392472311792 0.45639931928670435)" opacity="1" d="M0.33 0.9C0.21 0.94 0.07 0.89 0.02 0.76C-0.03 0.63 0.03 0.49 0.15 0.44L1.24 0.02C1.36 -0.03 1.5 0.03 1.55 0.16C1.6 0.27 1.54 0.42 1.41 0.47L0.33 0.9Z" /></g><g opacity="1" transform="translate(25.298863959820423 17.994481501206153)  rotate(-17.433864639721428 1.026918730890002 0.8411962706585144)"><path id="路径 3500" fill-rule="evenodd" style="fill:#000045" transform="translate(0 0)  rotate(0 1.026918730890002 0.8411962706585144)" opacity="1" d="M0.02 0.35C-0.03 0.23 0.02 0.09 0.14 0.03C0.26 -0.04 0.4 0.02 0.46 0.14C0.46 0.14 0.64 0.52 0.98 0.83C1.2 1.03 1.47 1.19 1.82 1.2C1.95 1.2 2.06 1.31 2.05 1.44C2.05 1.58 1.94 1.68 1.81 1.68C1.34 1.67 0.95 1.46 0.66 1.19C0.24 0.82 0.02 0.35 0.02 0.35Z" /></g><g opacity="1" transform="translate(25.119480381936015 11.536969288848368)  rotate(0 1.6188043173918998 0.5033635968180906)"><path id="路径 3501" fill-rule="evenodd" style="fill:#000045" transform="translate(0 0)  rotate(0 1.6188043173918998 0.5033635968180906)" opacity="1" d="M3.14 0.57C3.24 0.65 3.27 0.8 3.19 0.9C3.12 1.01 2.97 1.04 2.86 0.96C1.6 0.07 0.35 0.71 0.35 0.71C0.23 0.78 0.09 0.73 0.03 0.6C-0.03 0.49 0.01 0.35 0.13 0.28C0.13 0.28 1.63 -0.51 3.14 0.57Z" /></g><g opacity="1" transform="translate(7.176993867765083 21.798497870433657)  rotate(0 5.9676087075038255 5.00326149809178)"><path id="路径 3502" fill-rule="evenodd" style="fill:#000045" transform="translate(0 0)  rotate(0 5.9676087075038255 5.00326149809178)" opacity="1" d="M8.68 8L7.83 9.14L0 7.33C1.21 1.7 5.09 0 5.09 0L9.99 0.74C13.04 4.53 11.59 10.01 11.59 10.01L9.07 9.43L8.68 8Z" /></g><g opacity="1" transform="translate(11.857615592478577 21.06904004461686)  rotate(10.129860528390727 2.917085259448866 0.7403196488095577)"><path id="路径 3503" fill-rule="evenodd" style="fill:#FFFFFF" transform="translate(0 0)  rotate(0 2.917085259448866 0.7403196488095577)" opacity="1" d="M5.62 1.26C5.48 1.4 5.29 1.48 5.09 1.48L0.74 1.48C0.54 1.48 0.35 1.4 0.22 1.26C0.08 1.12 0 0.94 0 0.74C0 0.54 0.08 0.35 0.22 0.21C0.35 0.08 0.54 0 0.74 0L5.09 0C5.29 0 5.48 0.08 5.62 0.21C5.76 0.35 5.83 0.54 5.83 0.74C5.83 0.94 5.76 1.12 5.62 1.26Z" /></g><g opacity="1" transform="translate(11.61596448625428 20.822174499360045)  rotate(10.129860528390727 3.158997496282946 0.9828820803452387)"><path id="路径 3504" fill-rule="evenodd" style="fill:#000045" transform="translate(0 0)  rotate(0 3.158997496282946 0.9828820803452387)" opacity="1" d="M6.32 0.99Z M0 0.99Z M6.03 1.68C6.21 1.5 6.32 1.24 6.32 0.99C6.32 0.72 6.21 0.48 6.03 0.29C5.85 0.1 5.6 0 5.34 0C4.22 0 2.1 0 0.98 0C0.72 0 0.47 0.1 0.29 0.29C0.1 0.48 0 0.72 0 0.99C0 1.24 0.1 1.5 0.29 1.68C0.47 1.86 0.72 1.97 0.98 1.97C2.1 1.97 4.22 1.97 5.34 1.97C5.6 1.97 5.85 1.86 6.03 1.68Z M5.83381 0.985337Z M0.483811 0.985337Z M0.633811 0.625337C0.533811 0.725337 0.483811 0.855337 0.483811 0.985337C0.483811 1.11534 0.533811 1.24534 0.633811 1.33534C0.723811 1.42534 0.853811 1.48534 0.983811 1.48534C2.10381 1.48534 4.21381 1.48534 5.33381 1.48534C5.47381 1.48534 5.59381 1.42534 5.69381 1.33534C5.78381 1.24534 5.83381 1.11534 5.83381 0.985337C5.83381 0.855337 5.78381 0.725337 5.69381 0.625337C5.59381 0.535337 5.47381 0.485337 5.33381 0.485337C4.21381 0.485337 2.10381 0.485337 0.983811 0.485337C0.853811 0.485337 0.723811 0.535337 0.633811 0.625337Z " /></g></g><g opacity="1" transform="translate(16.052726254661316 132.69706895294115)  rotate(0 105.11854108805552 28.274025109828145)"><g opacity="1" transform="translate(45.015159067807424 22.73750111950726)  rotate(0 82.49025486911304 16.905274550074516)"><path id="路径 3505" fill-rule="evenodd" style="fill:#000045" transform="translate(0 0)  rotate(0 82.49025486911304 16.905274550074516)" opacity="1" d="M0 3.2L164.98 0L1.81 33.81L0 3.2Z" /></g><g opacity="1" transform="translate(0.24155104582404835 0.24344704153845975)  rotate(0 104.87708210134407 18.441538667879495)"><path id="路径 3506" fill-rule="evenodd" style="fill:#FFFFFF" transform="translate(0 0)  rotate(0 104.87708210134407 18.441538667879495)" opacity="1" d="M209.75 22.49L0 36.88L50.48 0L209.75 22.49Z" /></g><g opacity="1" transform="translate(0 0)  rotate(0 105.11854108805552 18.684844179074148)"><path id="路径 3507" fill-rule="evenodd" style="fill:#000045" transform="translate(0 0)  rotate(0 105.11854108805552 18.684844179074148)" opacity="1" d="M50.76 0Z M210.03 22.49L50.76 0C50.7 0 50.63 0.01 50.58 0.05L0.1 36.93C0.01 36.99 -0.02 37.1 0.01 37.21C0.05 37.31 0.15 37.37 0.26 37.37L210.01 22.98C210.14 22.97 210.23 22.86 210.24 22.75C210.24 22.62 210.15 22.52 210.03 22.49Z M50.7892 0.4985Z M1.05922 36.8285C15.3192 35.8485 207.679 22.6585 207.679 22.6585L50.7892 0.4985L1.05922 36.8285Z " /></g></g><g opacity="1" transform="translate(111.86815182829663 103.08108675128989)  rotate(0 20.164914712021318 24.774801555600867)"><g opacity="1" transform="translate(28.841113835745986 40.85121063518344)  rotate(0 5.623336287379357 4.2275324343898655)"><path id="路径 3508" fill-rule="evenodd" style="fill:#FFFFFF" transform="translate(0 0)  rotate(0 5.623336287379357 4.2275324343898655)" opacity="1" d="M10.38 3.34C9.91 3.5 8.58 3.19 8.58 3.19C8.58 3.19 9.9 4.03 10.75 5C11.6 5.96 11.1 6.66 11.1 6.66C11.1 6.66 11.35 7.11 11 7.48C10.74 7.75 10.38 7.69 10.38 7.69C10.57 8.17 10.1 8.49 9.65 8.45C8.65 8.37 7.29 8.3 4.35 7.39C1.41 6.47 0 4.79 0 4.79L3.65 0C5.49 0.78 11.1 2.48 11.1 2.48C11.1 2.48 11.03 3.14 10.38 3.34Z" /></g><g opacity="1" transform="translate(28.599414611528058 40.61019729243504)  rotate(0 5.865207406257289 4.469702909383345)"><path id="路径 3509" fill-rule="evenodd" style="fill:#000045" transform="translate(0 0)  rotate(0 5.865207406257289 4.469702909383345)" opacity="1" d="M0.05 4.88Z M11.42 2.49C11.42 2.49 5.82 0.8 3.98 0.02C3.88 -0.03 3.77 0.01 3.7 0.1L0.05 4.88C-0.02 4.97 -0.02 5.1 0.06 5.18C0.06 5.18 1.5 6.91 4.52 7.86C7.49 8.77 8.86 8.84 9.87 8.94C10.39 8.97 10.91 8.66 10.91 8.16C11.07 8.12 11.26 8.06 11.42 7.88C11.76 7.53 11.68 7.12 11.61 6.91C11.68 6.77 11.76 6.52 11.72 6.21C11.69 5.9 11.56 5.52 11.17 5.08C10.76 4.61 10.24 4.17 9.81 3.83C9.88 3.85 9.94 3.86 10.01 3.86C10.28 3.88 10.53 3.87 10.7 3.81C11.5 3.56 11.59 2.75 11.59 2.75C11.6 2.63 11.53 2.53 11.42 2.49Z M0.557064 5.0021Z M10.5471 3.3621C10.8471 3.2521 10.9871 3.0421 11.0571 2.8821C10.0271 2.5721 5.72706 1.2521 3.96706 0.542097L0.557064 5.0021C0.957064 5.4221 2.30706 6.6521 4.66706 7.3921C7.57706 8.3021 8.91706 8.3721 9.91706 8.4521C10.1871 8.4721 10.5171 8.3121 10.3971 8.0121C10.3671 7.9321 10.3871 7.8321 10.4371 7.7621C10.4971 7.7121 10.5871 7.6721 10.6671 7.6821C10.6671 7.6821 10.8971 7.7321 11.0671 7.5521C11.2971 7.3121 11.1371 7.0121 11.1371 7.0121C11.0871 6.9321 11.0971 6.8221 11.1471 6.7421C11.1471 6.7421 11.5071 6.1921 10.8071 5.4021C9.97706 4.4621 8.69706 3.6221 8.69706 3.6221C8.59706 3.5721 8.55706 3.4421 8.60706 3.3221C8.64706 3.2221 8.76706 3.1621 8.87706 3.1821C8.87706 3.1821 9.50706 3.3321 10.0471 3.3721C10.2471 3.3921 10.4271 3.3921 10.5471 3.3621Z " /></g><g opacity="1" transform="translate(0 0)  rotate(0 16.559594649219875 23.04019910274085)"><path id="路径 3510" fill-rule="evenodd" style="fill:#3D61FF" transform="translate(0 0)  rotate(0 16.559594649219875 23.04019910274085)" opacity="1" d="M31.46 39.01L33.12 40.74C32.7 43.94 28.76 46.08 28.76 46.08L25.77 44.49C25.77 44.49 24.16 44.99 21.41 43.34C19 41.89 9.54 31.65 7.21 29.11C6.87 28.73 6.59 28.29 6.41 27.82C5.37 25.15 1.73 15.64 0.31 9.26C-1.36 1.76 4.25 0.03 4.25 0.03C9.72 -0.38 11.1 4.18 11.1 4.18L18.48 25.17C18.48 25.17 27.34 33.43 29.38 35.15C32.3 37.58 31.46 39.01 31.46 39.01Z" /></g><g opacity="1" transform="translate(0.06683183189372052 1.564840308945248)  rotate(0 16.646790465472165 22.37960861031617)"><path id="路径 3511" fill-rule="evenodd" style="fill:#000045" transform="translate(0 0)  rotate(0 16.646790465472165 22.37960861031617)" opacity="1" d="M25.63 42.7C25.7 42.67 25.76 42.68 25.82 42.72L28.69 44.24C29.04 44.03 30.17 43.33 31.16 42.27C31.92 41.45 32.61 40.43 32.8 39.25L31.22 37.61C31.14 37.52 31.13 37.41 31.18 37.32C31.18 37.32 31.88 36.04 29.16 33.77C27.11 32.05 18.25 23.78 18.25 23.78C18.22 23.76 18.2 23.73 18.19 23.69L9.97 0.32C9.93 0.2 9.99 0.06 10.12 0.01C10.25 -0.03 10.38 0.04 10.43 0.17L18.62 23.47C19.29 24.1 27.51 31.75 29.47 33.4C31.97 35.48 31.83 36.91 31.67 37.39L33.23 39C33.28 39.05 33.3 39.12 33.29 39.19C33.12 40.54 32.36 41.7 31.51 42.6C30.26 43.94 28.81 44.72 28.81 44.72C28.74 44.77 28.65 44.77 28.58 44.72L25.67 43.18C25.27 43.26 23.68 43.46 21.22 41.99C18.8 40.54 9.3 30.25 6.97 27.7C6.6 27.31 6.31 26.85 6.12 26.35C5.07 23.67 1.43 14.15 0.01 7.75C-0.02 7.62 0.06 7.49 0.19 7.46C0.32 7.44 0.45 7.52 0.48 7.64C1.89 14.02 5.52 23.51 6.57 26.17C6.74 26.61 7 27.02 7.32 27.38C9.64 29.91 19.07 40.13 21.47 41.57C24.1 43.15 25.63 42.7 25.63 42.7Z" /></g><g opacity="1" transform="translate(35.42199452645283 45.140113897749764)  rotate(0 2.3821521582305754 1.298175005932083)"><path id="路径 3512" fill-rule="evenodd" style="fill:#000045" transform="translate(0 0)  rotate(0 2.3821521582305754 1.298175005932083)" opacity="1" d="M4.64 2.15C4.76 2.22 4.79 2.36 4.74 2.47C4.67 2.59 4.52 2.63 4.4 2.56C3.15 1.83 0.15 0.47 0.15 0.47C0.02 0.41 -0.03 0.26 0.02 0.14C0.08 0.01 0.21 -0.03 0.34 0.02C0.34 0.02 3.38 1.42 4.64 2.15Z" /></g><g opacity="1" transform="translate(34.63482090817074 46.59820747473751)  rotate(0 2.4157747962009175 1.088427551690347)"><path id="路径 3513" fill-rule="evenodd" style="fill:#000045" transform="translate(0 0)  rotate(0 2.4157747962009175 1.088427551690347)" opacity="1" d="M4.68 1.71C4.8 1.77 4.86 1.91 4.82 2.02C4.77 2.15 4.63 2.21 4.5 2.16C3.13 1.63 0.15 0.47 0.15 0.47C0.03 0.41 -0.03 0.27 0.02 0.15C0.06 0.03 0.2 -0.03 0.33 0.02C0.33 0.02 3.31 1.18 4.68 1.71Z" /></g><g opacity="1" transform="translate(26.31230152424741 39.261848918819)  rotate(0 2.227782792546382 2.1984188824190927)"><path id="路径 3514" fill-rule="evenodd" style="fill:#000045" transform="translate(0 0)  rotate(0 2.227782792546382 2.1984188824190927)" opacity="1" d="M0.36 4.37C0.23 4.43 0.09 4.38 0.02 4.27C-0.03 4.15 0.01 4 0.13 3.94C2.29 2.77 4.01 0.12 4.01 0.12C4.08 0 4.23 -0.03 4.35 0.04C4.45 0.12 4.49 0.27 4.42 0.37C4.42 0.37 2.61 3.14 0.36 4.37Z" /></g></g></g></g></g></svg>