<svg xmlns="http://www.w3.org/2000/svg" xmlns:xlink="http://www.w3.org/1999/xlink" width="356" height="290" viewBox="0 0 356 290" fill="none"><defs><rect id="path_0" x="0" y="0" width="356" height="290" /></defs><g opacity="1" transform="translate(0 0)  rotate(0 178 145)"><mask id="bg-mask-0" fill="white"><use xlink:href="#path_0"></use></mask><g mask="url(#bg-mask-0)" ><g opacity="1" transform="translate(45 41.000000000000455)  rotate(0 133.5 104.05884894975439)"><g opacity="1" transform="translate(0 0)  rotate(0 133.5 103.84279392342567)"><path id="路径 4414" fill-rule="evenodd" style="fill:#E7ECFF" transform="translate(0 0)  rotate(0 133.5 103.84279392342567)" opacity="1" d="M29.67 207.69L0 97.86L124.94 0L267 103.21L244.05 207.69L29.67 207.69Z" /></g><g opacity="1" transform="translate(166.75118772691488 167.60817244263168)  rotate(0 30.395439379534164 20.254762728438546)"><g opacity="1" transform="translate(0.4300462147962491 0.4435018969667391)  rotate(0 29.9619341365901 19.81802706016625)"><path id="路径 4415" fill-rule="evenodd" style="fill:#FFFFFF" transform="translate(0 0)  rotate(0 29.9619341365901 19.81802706016625)" opacity="1" d="M33.32 39.64L29.09 20.89L28.01 20.89L28.01 39.64L0.58 39.64L0 6.97L53.86 0L59.92 39.64L33.32 39.64Z" /></g><g opacity="1" transform="translate(0 0)  rotate(0 30.395439379534164 20.254762728438546)"><path id="路径 4416" fill-rule="evenodd" style="fill:#000045" transform="translate(0 0)  rotate(0 30.395439379534164 20.254762728438546)" opacity="1" d="M0.38 6.97Z M28.88 21.78L29.17 21.78L33.32 40.17C33.36 40.37 33.54 40.51 33.75 40.51L60.35 40.51C60.48 40.51 60.61 40.45 60.69 40.36C60.77 40.27 60.81 40.14 60.78 40.01L54.73 0.37C54.69 0.14 54.48 -0.02 54.25 0L0.38 6.97C0.16 7.01 0 7.19 0 7.41L0.57 40.08C0.58 40.32 0.77 40.51 1.01 40.51L28.44 40.51C28.68 40.51 28.88 40.31 28.88 40.08L28.88 21.78Z M0.883131 7.79145Z M1.44313 39.6414C4.89313 39.6414 28.0131 39.6414 28.0131 39.6414C28.0131 36.8214 28.0131 21.3314 28.0131 21.3314C28.0131 21.0914 28.1931 20.9014 28.4431 20.9014L29.5231 20.9014C29.7331 20.9014 29.9031 21.0415 29.9531 21.2414L34.0931 39.6414C36.9531 39.6414 56.4431 39.6414 59.8431 39.6414C59.1431 35.0714 53.9331 0.931451 53.9331 0.931451C48.9031 1.58145 0.883131 7.79145 0.883131 7.79145L1.44313 39.6414Z " /></g></g><g opacity="1" transform="translate(22.976082957617546 46.442063428005596)  rotate(0 68.13467921711144 72.26696257750181)"><g opacity="1" transform="translate(7.522737000257243 0.4318892887510458)  rotate(0 60.615781915200586 71.83499651353237)"><path id="路径 4417" fill-rule="evenodd" style="fill:#FFFFFF" transform="translate(0 0)  rotate(0 60.615781915200586 71.83499651353237)" opacity="1" d="M115.67 0C118.74 0 121.23 2.49 121.23 5.56L121.23 138.11C121.23 141.18 118.74 143.67 115.67 143.67L5.56 143.67C2.49 143.67 0 141.18 0 138.11L0 5.56C0 2.49 2.49 0 5.56 0L115.67 0Z" /></g><g opacity="1" transform="translate(7.082247105935233 0)  rotate(0 61.056579285366745 72.26696257750181)"><path id="路径 4418" fill-rule="evenodd" style="fill:#000045" transform="translate(0 0)  rotate(0 61.056579285366745 72.26696257750181)" opacity="1" d="M122.11 5.99Z M122.11 138.54L122.11 5.99C122.11 2.68 119.42 0 116.11 0C95.87 0 26.24 0 6 0C2.69 0 0 2.68 0 5.99C0 28.88 0 115.66 0 138.54C0 141.85 2.69 144.53 6 144.53C26.24 144.53 95.87 144.53 116.11 144.53C119.42 144.53 122.11 141.85 122.11 138.54Z M121.242 5.99238Z M116.112 0.872379L6.00159 0.872379C3.17159 0.872379 0.881595 3.16238 0.881595 5.99238L0.881595 138.542C0.881595 141.372 3.17159 143.662 6.00159 143.662L116.112 143.662C118.952 143.662 121.242 141.372 121.242 138.542L121.242 5.99238C121.242 3.16238 118.952 0.872379 116.112 0.872379Z " /></g><g opacity="1" transform="translate(0 50.831054620967336)  rotate(0 68.13467921711144 21.44471526461653)"><path id="路径 4419" fill-rule="evenodd" style="fill:#000045" transform="translate(0 0)  rotate(0 68.13467921711144 21.44471526461653)" opacity="1" d="M136.27 37.97C136.27 39.27 135.75 40.52 134.83 41.45C133.9 42.37 132.65 42.89 131.35 42.89L4.92 42.89C3.62 42.89 2.37 42.37 1.44 41.45C0.52 40.52 0 39.27 0 37.97L0 4.92C0 3.62 0.52 2.37 1.44 1.44C2.37 0.52 3.62 0 4.92 0L131.35 0C132.65 0 133.9 0.52 134.83 1.44C135.75 2.37 136.27 3.62 136.27 4.92L136.27 37.97Z" /></g><g opacity="1" transform="translate(5.785964569221711 56.363801958390006)  rotate(0 16.021525320168116 16.021333335250795)"><path id="路径 4420" fill-rule="evenodd" style="fill:#FFFFFF" transform="translate(0 0)  rotate(0 16.021525320168116 16.021333335250795)" opacity="1" d="M4.57 32.04C3.35 32.04 2.19 31.56 1.34 30.7C0.48 29.85 0 28.69 0 27.49L0 4.57C0 3.35 0.48 2.19 1.34 1.34C2.19 0.48 3.35 0 4.57 0L27.49 0C28.69 0 29.85 0.48 30.7 1.34C31.56 2.19 32.04 3.35 32.04 4.57L32.04 27.49C32.04 28.69 31.56 29.85 30.7 30.7C29.85 31.56 28.69 32.04 27.49 32.04L4.57 32.04Z" /></g><g opacity="1" transform="translate(13.140983620702524 13.76731491499006)  rotate(0 12.204097224182126 12.204097224182126)"><path id="路径 4421" fill-rule="evenodd" style="fill:#3D61FF" transform="translate(0 0)  rotate(0 12.204097224182126 12.204097224182126)" opacity="1" d="M23.39 1.02C24.04 1.67 24.41 2.55 24.41 3.48L24.41 20.94C24.41 21.85 24.04 22.74 23.39 23.39C22.74 24.04 21.85 24.41 20.94 24.41L3.48 24.41C2.55 24.41 1.67 24.04 1.02 23.39C0.37 22.74 0 21.85 0 20.94L0 3.48C0 2.55 0.37 1.67 1.02 1.02C1.67 0.37 2.55 0 3.48 0L20.94 0C21.85 0 22.74 0.37 23.39 1.02Z" /></g><g opacity="1" transform="translate(13.140983620702524 105.96973482712467)  rotate(0 12.204097224182126 12.204097224182126)"><path id="路径 4422" fill-rule="evenodd" style="fill:#3D61FF" transform="translate(0 0)  rotate(0 12.204097224182126 12.204097224182126)" opacity="1" d="M23.39 23.39C22.74 24.04 21.85 24.41 20.94 24.41L3.48 24.41C2.55 24.41 1.67 24.04 1.02 23.39C0.37 22.74 0 21.85 0 20.94L0 3.48C0 2.55 0.37 1.67 1.02 1.02C1.67 0.37 2.55 0 3.48 0L20.94 0C21.85 0 22.74 0.37 23.39 1.02C24.04 1.67 24.41 2.55 24.41 3.48L24.41 20.94C24.41 21.85 24.04 22.74 23.39 23.39Z" /></g><g opacity="1" transform="translate(12.029825915249454 65.33354127954357)  rotate(0 10.375152909335489 7.080883713045829)"><path id="路径 4423" fill-rule="evenodd" style="fill:#000045" transform="translate(0 0)  rotate(0 10.375152909335489 7.080883713045829)" opacity="1" d="M0.39 7.19C-0.13 6.68 -0.13 5.85 0.39 5.34C0.9 4.83 1.72 4.83 2.24 5.34L7.9 11L18.51 0.39C19.02 -0.13 19.85 -0.13 20.36 0.39C20.88 0.9 20.88 1.73 20.36 2.24L8.82 13.78C8.31 14.29 7.49 14.29 6.97 13.78L0.39 7.19Z" /></g><g opacity="1" transform="translate(17.60627081971269 20.292543281318856)  rotate(0 8.21273079310444 5.705623755940436)"><path id="路径 4424" fill-rule="evenodd" style="fill:#FFFFFF" transform="translate(0 0)  rotate(0 8.21273079310444 5.705623755940436)" opacity="1" d="M6.32 8.25L14.19 0.38C14.7 -0.13 15.53 -0.13 16.04 0.38C16.55 0.9 16.55 1.73 16.04 2.24L7.25 11.03C6.74 11.54 5.91 11.54 5.4 11.03L0.38 6.01C-0.13 5.5 -0.13 4.67 0.38 4.15C0.9 3.64 1.72 3.64 2.24 4.15L6.32 8.25Z" /></g><g opacity="1" transform="translate(17.60627081971269 112.49496619321779)  rotate(0 8.21273079310444 5.705623755940436)"><path id="路径 4425" fill-rule="evenodd" style="fill:#FFFFFF" transform="translate(0 0)  rotate(0 8.21273079310444 5.705623755940436)" opacity="1" d="M7.25 11.03C6.74 11.54 5.91 11.54 5.4 11.03L0.38 6.01C-0.13 5.5 -0.13 4.67 0.38 4.15C0.9 3.64 1.72 3.64 2.24 4.15L6.32 8.25L14.19 0.38C14.7 -0.13 15.53 -0.13 16.04 0.38C16.55 0.9 16.55 1.73 16.04 2.24L7.25 11.03Z" /></g><g opacity="1" transform="translate(44.833751779860194 20.304939807425477)  rotate(0 13.829825504045802 1.1480698055721292)"><path id="路径 4426" fill-rule="evenodd" style="fill:#3D61FF" transform="translate(0 0)  rotate(0 13.829825504045802 1.1480698055721292)" opacity="1" d="M0 1.15C0 0.51 0.51 0 1.14 0L26.51 0C27.15 0 27.66 0.51 27.66 1.15C27.66 1.78 27.15 2.3 26.51 2.3L1.14 2.3C0.51 2.3 0 1.78 0 1.15Z" /></g><g opacity="1" transform="translate(44.833751779860194 112.50950905070476)  rotate(0 13.829825504045802 1.1480698055721292)"><path id="路径 4427" fill-rule="evenodd" style="fill:#3D61FF" transform="translate(0 0)  rotate(0 13.829825504045802 1.1480698055721292)" opacity="1" d="M0 1.15C0 1.78 0.51 2.3 1.14 2.3C5.64 2.3 22.01 2.3 26.51 2.3C27.15 2.3 27.66 1.78 27.66 1.15C27.66 0.51 27.15 0 26.51 0C22.01 0 5.64 0 1.14 0C0.51 0 0 0.51 0 1.15Z" /></g><g opacity="1" transform="translate(46.01412604753571 66.4310830546886)  rotate(0 18.485075779215197 1.4613891906379677)"><path id="路径 4428" fill-rule="evenodd" style="fill:#FFFFFF" transform="translate(0 0)  rotate(0 18.485075779215197 1.4613891906379677)" opacity="1" d="M1.46 0C0.65 0 0 0.65 0 1.46C0 2.26 0.65 2.92 1.46 2.92L35.5 2.92C36.31 2.92 36.97 2.26 36.97 1.46C36.97 0.65 36.31 0 35.5 0L1.46 0Z" /></g><g opacity="1" transform="translate(44.836208586849025 27.539546443722102)  rotate(0 23.305433083279585 1.1480698055721292)"><path id="路径 4429" fill-rule="evenodd" style="fill:#3D61FF" transform="translate(0 0)  rotate(0 23.305433083279585 1.1480698055721292)" opacity="1" d="M45.46 0C39.03 0 7.58 0 1.15 0C0.51 0 0 0.51 0 1.15C0 1.78 0.51 2.3 1.15 2.3C7.58 2.3 39.03 2.3 45.46 2.3C46.1 2.3 46.61 1.78 46.61 1.15C46.61 0.51 46.1 0 45.46 0Z" /></g><g opacity="1" transform="translate(44.836208586849025 119.74411268723705)  rotate(0 23.305433083279585 1.1480698055721292)"><path id="路径 4430" fill-rule="evenodd" style="fill:#3D61FF" transform="translate(0 0)  rotate(0 23.305433083279585 1.1480698055721292)" opacity="1" d="M1.15 2.3L45.46 2.3C46.1 2.3 46.61 1.78 46.61 1.15C46.61 0.51 46.1 0 45.46 0C39.03 0 7.58 0 1.15 0C0.51 0 0 0.51 0 1.15C0 1.78 0.51 2.3 1.15 2.3Z" /></g><g opacity="1" transform="translate(45.996103463422315 75.6369398260308)  rotate(0 31.150704744634012 1.4613891906379677)"><path id="路径 4431" fill-rule="evenodd" style="fill:#FFFFFF" transform="translate(0 0)  rotate(0 31.150704744634012 1.4613891906379677)" opacity="1" d="M1.47 2.92C1.06 2.92 0.69 2.76 0.43 2.49C0.14 2.22 0 1.85 0 1.46C0 1.07 0.14 0.7 0.43 0.42C0.69 0.15 1.06 0 1.47 0L60.84 0C61.22 0 61.59 0.15 61.88 0.42C62.14 0.7 62.3 1.07 62.3 1.46C62.3 1.85 62.14 2.22 61.88 2.49C61.59 2.76 61.22 2.92 60.84 2.92L1.47 2.92Z" /></g></g><g opacity="1" transform="translate(158.27259058875381 86.16124264654401)  rotate(0 34.151125635517865 47.895604035830175)"><g opacity="1" transform="translate(23.494536958933782 20.119114777510834)  rotate(0 9.337378438763558 34.68062110541957)"><path id="路径 4432" fill-rule="evenodd" style="fill:#3D61FF" transform="translate(0 0)  rotate(0 9.337378438763558 34.68062110541957)" opacity="1" d="M0 3.43L14.22 0L18.67 68.45C14.68 69.29 10.55 69.48 6.32 69.3L0 3.43Z" /></g><g opacity="1" transform="translate(0.44201250669747383 22.976055831085592)  rotate(0 15.295054393030165 36.19070640552613)"><path id="路径 4433" fill-rule="evenodd" style="fill:#FFFFFF" transform="translate(0 0)  rotate(0 15.295054393030165 36.19070640552613)" opacity="1" d="M3.14 0L16.31 1.64L26.01 2.67C28.53 22.04 30.06 46.92 30.59 71.09C23.21 72.52 13.61 72.9 6.19 71.53C4.99 71.29 4.11 70.24 4.11 69.01C4.07 62.53 3.93 43.04 3.93 43.04L0 1.64C0 1.64 1.89 0.57 3.14 0Z" /></g><g opacity="1" transform="translate(0 22.542147346544105)  rotate(0 15.736459331461981 36.62453036255812)"><path id="路径 4434" fill-rule="evenodd" style="fill:#000045" transform="translate(0 0)  rotate(0 15.736459331461981 36.62453036255812)" opacity="1" d="M6.55 72.39Z M0.22 1.69Z M4.11 69.45C4.12 70.88 5.15 72.11 6.55 72.39C14.03 73.76 23.69 73.4 31.11 71.95C31.32 71.9 31.47 71.72 31.47 71.51C30.93 47.32 29.42 22.44 26.9 3.05C26.86 2.85 26.71 2.7 26.5 2.68L16.79 1.63L3.64 0C3.56 -0.01 3.47 0 3.39 0.04C2.14 0.61 0.22 1.69 0.22 1.69C0.07 1.77 -0.01 1.94 0 2.11C0 2.11 3.83 42.49 3.94 43.5C3.94 44.18 4.07 63.08 4.11 69.45Z M4.9851 69.4372Z M0.895097 2.31722Z M6.7151 71.5272C13.9751 72.8672 23.3051 72.5272 30.5851 71.1572C30.0451 47.2572 28.5451 22.7172 26.0751 3.49722L16.7051 2.49722C16.7051 2.49722 16.7051 2.49722 16.6851 2.49722L3.6451 0.887222C2.6951 1.32722 1.4251 2.02722 0.895097 2.31722L4.8051 43.4272C4.8051 43.4372 4.8051 43.4472 4.8051 43.4572C4.8051 43.4572 4.9351 62.9572 4.9851 69.4372C4.9951 70.4672 5.7151 71.3372 6.7151 71.5272Z " /></g><g opacity="1" transform="translate(34.55737534246213 14.520323128648009)  rotate(0 16.650213720587463 39.154714777484116)"><path id="路径 4435" fill-rule="evenodd" style="fill:#FFFFFF" transform="translate(0 0)  rotate(0 16.650213720587463 39.154714777484116)" opacity="1" d="M33.27 72.4C33.43 73.55 32.87 74.66 31.86 75.21C23 79.91 7.21 77.87 7.21 77.87L0 9.21L19.29 0L26.17 3.73L26.42 23.44C26.42 23.44 32.03 63.44 33.27 72.4Z" /></g><g opacity="1" transform="translate(34.1239820811209 14.083505309020891)  rotate(0 17.089134594957414 39.58571667796935)"><path id="路径 4436" fill-rule="evenodd" style="fill:#000045" transform="translate(0 0)  rotate(0 17.089134594957414 39.58571667796935)" opacity="1" d="M32.49 76.03Z M0.25 9.26Z M7.22 78.35C7.23 78.55 7.39 78.71 7.59 78.73C7.59 78.73 23.54 80.78 32.49 76.03C33.67 75.4 34.33 74.1 34.15 72.78C32.92 63.96 27.46 25.01 27.3 23.84L27.04 4.17C27.04 4 26.95 3.86 26.81 3.78L19.93 0.05C19.82 -0.02 19.67 -0.02 19.54 0.04L0.25 9.26C0.09 9.33 -0.02 9.52 0 9.69L7.22 78.35Z M0.909309 9.91479Z M33.2793 72.9048Z M32.0793 75.2648C32.9293 74.7948 33.4193 73.8548 33.2793 72.9048C32.0293 63.9348 26.4293 23.9348 26.4293 23.9348C26.4093 23.9048 26.4093 23.8948 26.4093 23.8748L26.1693 4.43479L19.7093 0.924792C17.8193 1.83479 3.11931 8.85479 0.909309 9.91479L8.03931 77.9048C10.3793 78.1748 24.0893 79.5048 32.0793 75.2648Z " /></g><g opacity="1" transform="translate(20.527218076839663 26.030201391919736)  rotate(0 2.219167142987621 10.298070965031606)"><path id="路径 4437" fill-rule="evenodd" style="fill:#000045" transform="translate(0 0)  rotate(0 2.219167142987621 10.298070965031606)" opacity="1" d="M0 0L2.86 0.95C2.86 0.95 4.03 14.19 4.43 18.93C4.47 19.36 4.36 19.78 4.11 20.11C3.88 20.42 3.53 20.6 3.17 20.6C2.54 20.6 2.01 20.05 1.94 19.3C1.48 14.77 0 0 0 0Z" /></g><g opacity="1" transform="translate(38.571548981764536 23.00390564315429)  rotate(0 2.219167142987621 10.877865415337265)"><path id="路径 4438" fill-rule="evenodd" style="fill:#000045" transform="translate(0 0)  rotate(0 2.219167142987621 10.877865415337265)" opacity="1" d="M0 1.16L2.68 0C2.68 0 3.99 15 4.43 20.09C4.47 20.52 4.36 20.94 4.11 21.27C3.88 21.58 3.53 21.76 3.17 21.76C2.54 21.76 2.01 21.21 1.94 20.46C1.48 15.93 0 1.16 0 1.16Z" /></g><g opacity="1" transform="translate(3.4542147696511103 0)  rotate(0 26.90582365163462 14.148717922524877)"><path id="路径 4439" fill-rule="evenodd" style="fill:#3D61FF" transform="translate(0 0)  rotate(0 26.90582365163462 14.148717922524877)" opacity="1" d="M49.13 16.1C35.04 29.51 13.39 31.99 0.01 22.91C-0.19 16.02 3.99 15.22 3.99 15.22C3.51 5.67 11.3 4.92 11.3 4.92L32.57 0.84C45.5 -2.92 48.06 7.16 48.06 7.16C53.49 7.22 53.81 16.26 53.81 16.26C50.51 15.59 49.13 16.1 49.13 16.1Z" /></g><g opacity="1" transform="translate(27.81606467532362 26.303213280763607)  rotate(0 2.8736236336234726 0.9330554643577236)"><path id="路径 4440" fill-rule="evenodd" style="fill:#000045" transform="translate(0 0)  rotate(0 2.8736236336234726 0.9330554643577236)" opacity="1" d="M5.18 0.02C5.41 -0.05 5.65 0.07 5.73 0.3C5.8 0.54 5.67 0.79 5.44 0.86C2.71 1.71 0.46 1.87 0.46 1.87C0.22 1.88 0.02 1.7 0 1.46C-0.02 1.22 0.17 1.01 0.41 1C0.41 1 2.56 0.85 5.18 0.02Z" /></g></g><g opacity="1" transform="translate(182.51094161231748 103.96950729561877)  rotate(0 24.246549277996415 26.347945916766825)"><g opacity="1" transform="translate(0.4292782751269701 0.44117960686344704)  rotate(0 23.814005000377307 25.912216811453337)"><path id="路径 4441" fill-rule="evenodd" style="fill:#FFFFFF" transform="translate(0 0)  rotate(0 23.814005000377307 25.912216811453337)" opacity="1" d="M41.89 50.53C26.79 55.07 0 46.21 0 46.21L6.96 30.67L20.31 30.67L27.71 31.44C27.71 31.44 27.27 26.05 27.11 21.51C26.43 2.25 36.05 0 36.05 0C42.71 6.43 46.09 23.61 47.25 33.31C48.42 43.02 46.93 49.02 41.89 50.53Z" /></g><g opacity="1" transform="translate(0 0)  rotate(0 24.246549277996415 26.347945916766825)"><path id="路径 4442" fill-rule="evenodd" style="fill:#000045" transform="translate(0 0)  rotate(0 24.246549277996415 26.347945916766825)" opacity="1" d="M36.79 0.13Z M43.39 12.01C41.68 7.08 39.5 2.73 36.79 0.13C36.67 0.02 36.52 -0.02 36.38 0.01C36.38 0.01 26.41 2.26 27.09 21.96C27.22 25.67 27.55 29.93 27.66 31.39L20.79 30.68C20.76 30.68 20.75 30.68 20.74 30.68L7.39 30.68C7.21 30.68 7.05 30.78 6.98 30.94L0.03 46.46C-0.01 46.58 -0.01 46.71 0.03 46.82C0.08 46.94 0.19 47.02 0.3 47.06C0.3 47.06 27.26 55.96 42.45 51.39C45.11 50.59 46.84 48.62 47.74 45.56C48.61 42.61 48.71 38.63 48.13 33.7C47.43 27.86 45.92 19.3 43.39 12.01Z M36.3629 0.928796Z M28.4529 32.1888C28.3629 32.2888 28.2329 32.3288 28.1029 32.3088L20.7229 31.5488L7.66288 31.5488L1.03288 46.3788C4.62288 47.5188 28.3529 54.7188 42.1929 50.5488C44.5729 49.8488 46.0929 48.0588 46.9029 45.2988C47.7529 42.4488 47.8229 38.5788 47.2529 33.8088C46.5529 28.0088 45.0729 19.5288 42.5629 12.2888C40.9329 7.6288 38.9029 3.4788 36.3629 0.928796C34.9529 1.4188 27.3729 4.8588 27.9729 21.9388C28.1229 26.4688 28.5829 31.8388 28.5829 31.8388C28.5929 31.9688 28.5429 32.0988 28.4529 32.1888Z " /></g><g opacity="1" transform="translate(27.690978199204277 31.449413675233266)  rotate(0 6.976299418277896 5.692699397578233)"><path id="路径 4443" fill-rule="evenodd" style="fill:#000045" transform="translate(0 0)  rotate(0 6.976299418277896 5.692699397578233)" opacity="1" d="M6.36 1.9C3.42 1.33 0.37 0.87 0.37 0.87C0.14 0.83 -0.03 0.6 0 0.37C0.05 0.13 0.27 -0.04 0.51 0.01C0.51 0.01 3.57 0.47 6.53 1.04C8.42 1.42 9.93 2.53 11.09 3.96C12.77 6.05 13.7 8.83 13.95 10.89C13.98 11.13 13.81 11.35 13.57 11.38C13.33 11.41 13.11 11.25 13.08 11.01C12.85 9.08 11.99 6.47 10.4 4.5C9.38 3.24 8.05 2.24 6.36 1.9Z" /></g></g><g opacity="1" transform="translate(47.72015501883271 207.24618236733576)  rotate(0 93.49819061405879 0.4354217924812022)"><path id="路径 4444" fill-rule="evenodd" style="fill:#000045" transform="translate(0 0)  rotate(0 93.49819061405879 0.4354217924812022)" opacity="1" d="M186.56 0C186.8 0 187 0.2 187 0.44C187 0.68 186.8 0.87 186.56 0.87L0.44 0.87C0.2 0.87 0 0.68 0 0.44C0 0.2 0.2 0 0.44 0L186.56 0Z" /></g><g opacity="1" transform="translate(8.515553059411898 36.420354751455775)  rotate(0 107.99986030853263 82.84668741529883)"><g opacity="1" transform="translate(2.2828719967337436 52.42965298043801)  rotate(0 3.91453039238761 3.8275785511349754)"><path id="路径 4445" fill-rule="evenodd" style="fill:#3D61FF" transform="translate(0 0)  rotate(0 3.91453039238761 3.8275785511349754)" opacity="1" d="M7.69 6.91C7.87 7.07 7.87 7.35 7.7 7.52C7.53 7.7 7.26 7.7 7.09 7.53L0.13 0.75C-0.04 0.58 -0.04 0.31 0.13 0.13C0.3 -0.04 0.56 -0.04 0.74 0.13L7.69 6.91Z" /></g><g opacity="1" transform="translate(13.259670096590774 47.59795177750707)  rotate(-8.759041879377529 0.8149614166343605 3.9903037021872234)"><path id="路径 4446" fill-rule="evenodd" style="fill:#3D61FF" transform="translate(0 0)  rotate(0 0.8149614166343605 3.9903037021872234)" opacity="1" d="M1.63 7.5C1.65 7.74 1.48 7.95 1.24 7.98C1.01 8.01 0.78 7.83 0.76 7.59L0 0.48C-0.03 0.24 0.15 0.03 0.39 0C0.62 -0.03 0.84 0.15 0.87 0.39L1.63 7.5Z" /></g><g opacity="1" transform="translate(0 65.58686493162527)  rotate(0 4.314706031710185 0.7456746133563888)"><path id="路径 4447" fill-rule="evenodd" style="fill:#3D61FF" transform="translate(0 0)  rotate(0 4.314706031710185 0.7456746133563888)" opacity="1" d="M8.16 0C8.39 -0.01 8.61 0.17 8.63 0.41C8.64 0.64 8.46 0.86 8.22 0.88L0.48 1.49C0.23 1.51 0.02 1.33 0 1.08C-0.02 0.85 0.16 0.63 0.41 0.62L8.16 0Z" /></g><g opacity="1" transform="translate(4.89364623978474 121.33239190916603)  rotate(0 4.809126186401179 4.813733824416854)"><path id="路径 4448" fill-rule="evenodd" style="fill:#000045" transform="translate(0 0)  rotate(0 4.809126186401179 4.813733824416854)" opacity="1" d="M0.75 9.5C0.58 9.67 0.3 9.67 0.13 9.5C-0.04 9.33 -0.04 9.06 0.13 8.89L8.87 0.13C9.04 -0.04 9.32 -0.04 9.49 0.13C9.66 0.3 9.66 0.58 9.49 0.75L0.75 9.5Z" /></g><g opacity="1" transform="translate(130.63239122793138 160.87455340587184)  rotate(0 2.4040351346779603 2.4094107123629134)"><path id="路径 4449" fill-rule="evenodd" style="fill:#000045" transform="translate(0 0)  rotate(0 2.4040351346779603 2.4094107123629134)" opacity="1" d="M2.4 0Z M2.4 4.82C3.74 4.82 4.81 3.74 4.81 2.4C4.81 1.08 3.74 0 2.4 0C1.07 0 0 1.08 0 2.4C0 3.74 1.07 4.82 2.4 4.82Z M2.40931 0.880059Z M0.869308 2.40006C0.869308 3.25006 1.55931 3.94006 2.40931 3.94006C3.24931 3.94006 3.93931 3.25006 3.93931 2.40006C3.93931 1.57006 3.24931 0.880059 2.40931 0.880059C1.55931 0.880059 0.869308 1.57006 0.869308 2.40006Z " /></g><g opacity="1" transform="translate(124.55112498314016 41.118561651875645)  rotate(0 3.596261471233633 3.5870461952022845)"><path id="路径 4450" fill-rule="evenodd" style="fill:#3D61FF" transform="translate(0 0)  rotate(0 3.596261471233633 3.5870461952022845)" opacity="1" d="M3.6 0Z M3.6 7.17C5.58 7.17 7.19 5.57 7.19 3.58C7.19 1.61 5.58 0 3.6 0C1.61 0 0 1.61 0 3.58C0 5.57 1.61 7.17 3.6 7.17Z M3.5962 0.867772Z M0.886202 3.57777C0.886202 5.07777 2.0962 6.30777 3.5962 6.30777C5.0962 6.30777 6.3062 5.07777 6.3062 3.57777C6.3062 2.09777 5.0962 0.867772 3.5962 0.867772C2.0962 0.867772 0.886202 2.09777 0.886202 3.57777Z " /></g><g opacity="1" transform="translate(199.7285909062668 31.843641306292003)  rotate(0 4.714825594825182 4.715029578799925)"><path id="路径 4451" fill-rule="evenodd" style="fill:#3D61FF" transform="translate(0 0)  rotate(0 4.714825594825182 4.715029578799925)" opacity="1" d="M3.91 0.56Z M2.69 6.31C2.89 6.38 3.05 6.54 3.12 6.74C3.32 7.28 3.65 8.17 3.91 8.87C4.03 9.21 4.35 9.43 4.71 9.43C5.08 9.43 5.4 9.21 5.52 8.87C5.78 8.17 6.11 7.28 6.31 6.74C6.38 6.54 6.54 6.38 6.74 6.31C7.28 6.11 8.17 5.78 8.87 5.52C9.21 5.4 9.43 5.08 9.43 4.72C9.43 4.35 9.21 4.03 8.87 3.91C8.17 3.65 7.28 3.32 6.74 3.12C6.54 3.05 6.38 2.89 6.31 2.69C6.11 2.15 5.78 1.26 5.52 0.56C5.4 0.22 5.08 0 4.71 0C4.35 0 4.03 0.22 3.91 0.56C3.65 1.26 3.32 2.15 3.12 2.69C3.05 2.89 2.89 3.05 2.69 3.12C2.15 3.32 1.26 3.65 0.56 3.91C0.22 4.03 0 4.35 0 4.72C0 5.08 0.22 5.4 0.56 5.52C1.26 5.78 2.15 6.11 2.69 6.31Z M4.71539 0.895418Z M0.895394 4.71542L2.99539 5.49542C3.43539 5.65542 3.77539 5.99542 3.93539 6.43542L4.71539 8.53542L5.49539 6.43542C5.65539 5.99542 5.99539 5.65542 6.43539 5.49542L8.53539 4.71542L6.43539 3.93542C5.99539 3.77542 5.65539 3.43542 5.49539 2.99542L4.71539 0.895418L3.93539 2.99542C3.77539 3.43542 3.43539 3.77542 2.99539 3.93542L0.895394 4.71542Z " /></g><g opacity="1" transform="translate(208.28562265046955 45.16350687370703)  rotate(0 3.857048983297854 3.8572169701006875)"><path id="路径 4452" fill-rule="evenodd" style="fill:#000045" transform="translate(0 0)  rotate(0 3.857048983297854 3.8572169701006875)" opacity="1" d="M3.13 0.51Z M5.51 2.5C5.37 2.45 5.26 2.34 5.21 2.21C5.05 1.77 4.79 1.07 4.59 0.51C4.47 0.2 4.18 0 3.86 0C3.53 0 3.24 0.2 3.13 0.51C2.92 1.07 2.66 1.77 2.5 2.21C2.45 2.34 2.34 2.45 2.21 2.5C1.77 2.66 1.07 2.92 0.51 3.13C0.2 3.24 0 3.53 0 3.86C0 4.18 0.2 4.47 0.51 4.59C1.07 4.79 1.77 5.05 2.21 5.21C2.34 5.26 2.45 5.37 2.5 5.51C2.66 5.94 2.92 6.65 3.13 7.21C3.24 7.51 3.53 7.71 3.86 7.71C4.18 7.71 4.47 7.51 4.59 7.21C4.79 6.65 5.05 5.94 5.21 5.51C5.26 5.37 5.37 5.26 5.51 5.21C5.94 5.05 6.65 4.79 7.21 4.59C7.51 4.47 7.71 4.18 7.71 3.86C7.71 3.53 7.51 3.24 7.21 3.13C6.65 2.92 5.94 2.66 5.51 2.5Z M3.85568 1.05597Z M2.50568 3.31597L1.05568 3.85597L2.50568 4.39597C2.88568 4.53596 3.17568 4.82596 3.31568 5.20597L3.85568 6.65596L4.39568 5.20597C4.53568 4.82596 4.82568 4.53596 5.20568 4.39597L6.65568 3.85597L5.20568 3.31597C4.82568 3.17596 4.53568 2.88597 4.39568 2.50597L3.85568 1.05597L3.31568 2.50597C3.17568 2.88597 2.88568 3.17596 2.50568 3.31597Z " /></g><g opacity="1" transform="translate(56.71727413241146 141.62384177638546)  rotate(0 11.421057491191261 11.421057491191261)"><path id="椭圆 238" fill-rule="evenodd" style="fill:#000045" transform="translate(0 0)  rotate(0 11.421057491191261 11.421057491191261)" opacity="1" d="M11.42,0C5.11,0 0,5.11 0,11.42C0,17.73 5.11,22.84 11.42,22.84C17.73,22.84 22.84,17.73 22.84,11.42C22.84,5.11 17.73,0 11.42,0Z " /></g><g opacity="1" transform="translate(62.816493585490996 145.27485815669922)  rotate(7.0602375085555575 6.261784242221213 8.132473432388581)"><path id="路径 4453" fill-rule="evenodd" style="fill:#FFFFFF" transform="translate(0 0)  rotate(0 6.261784242221213 8.132473432388581)" opacity="1" d="M0.14 11.95Z M11.75 10.12Z M0.41 10.53C-0.01 10.87 -0.12 11.47 0.14 11.95C0.65 12.88 1.69 14.76 2.19 15.68C2.47 16.17 3.06 16.39 3.59 16.19C4.44 15.88 6.18 15.28 8.29 14.79C10.92 14.18 12.05 12.86 12.38 12.4C12.38 12.39 12.39 12.39 12.39 12.39C12.53 12.17 12.56 11.9 12.47 11.66C12.36 11.37 12.14 10.79 12.02 10.48C11.97 10.34 11.87 10.21 11.75 10.12C11.77 9.96 11.75 9.8 11.68 9.65L11.16 8.47C11.08 8.29 10.94 8.14 10.76 8.05C10.79 7.84 10.75 7.61 10.65 7.42C10.5 7.13 10.26 6.68 10.09 6.38C9.98 6.15 9.79 5.98 9.56 5.89C9.59 5.62 9.54 5.34 9.39 5.1C9.28 4.89 9.12 4.63 8.98 4.39C8.67 3.86 8.01 3.62 7.43 3.84L6.22 4.3C6.09 3.73 5.85 2.75 5.43 1.61C4.94 0.26 4.09 0 3.47 0C3.17 0 2.88 0.14 2.69 0.37C2.49 0.61 2.42 0.92 2.47 1.22C3.62 7.08 1.41 9.69 0.41 10.53Z M10.3647 8.83612Z M3.4747 0.876123Z M3.3347 1.04612Z M2.9547 15.2561Z M0.964702 11.1961Z M8.2247 4.83612C8.1347 4.66612 7.9247 4.58612 7.7347 4.65612C7.0447 4.92612 6.0447 5.29612 6.0447 5.29612C5.9247 5.34612 5.7847 5.32612 5.6747 5.26612C5.5547 5.19612 5.4847 5.08612 5.4547 4.95612C5.4547 4.95612 5.2347 3.61612 4.6147 1.90612C4.3147 1.08612 3.8447 0.876123 3.4747 0.876123C3.4347 0.876123 3.3947 0.896123 3.3647 0.926123C3.3347 0.956123 3.3247 1.00612 3.3347 1.04612C4.5947 7.45612 2.0647 10.2861 0.964702 11.1961C0.874702 11.2761 0.844702 11.4161 0.904702 11.5261C1.4147 12.4561 2.4547 14.3361 2.9547 15.2561C3.0247 15.3661 3.1647 15.4161 3.2847 15.3761C3.2847 15.3761 3.2847 15.3661 3.2947 15.3661C4.1547 15.0561 5.9347 14.4461 8.0947 13.9461C10.3147 13.4261 11.3147 12.3661 11.6347 11.9261L11.2147 10.8361L11.1547 10.8261L11.1547 10.8261C11.0347 10.8061 10.9347 10.7561 10.8647 10.6561C10.7647 10.5361 10.7447 10.3761 10.7947 10.2361L10.8847 10.0061L10.3647 8.83612L10.1447 8.80612C10.0047 8.79612 9.8947 8.71612 9.8147 8.59612C9.7447 8.48612 9.7447 8.33612 9.7947 8.21612C9.7947 8.21612 9.8347 8.10612 9.8747 7.99612C9.9047 7.94612 9.8947 7.87612 9.8747 7.82612L9.3247 6.78612C9.2847 6.71612 9.2147 6.67612 9.1447 6.67612C9.0547 6.67612 8.9947 6.67612 8.9947 6.67612C8.8547 6.67612 8.7247 6.60612 8.6347 6.48612C8.5547 6.36612 8.5347 6.21612 8.5947 6.07612C8.5947 6.07612 8.6247 5.99612 8.6647 5.88612C8.7147 5.77612 8.7047 5.64612 8.6347 5.53612L8.2247 4.83612Z " /></g><g opacity="1" transform="translate(106.69887948764021 0)  rotate(0 14.727603972955302 14.727603972955302)"><path id="椭圆 239" fill-rule="evenodd" style="fill:#000045" transform="translate(0 0)  rotate(0 14.727603972955302 14.727603972955302)" opacity="1" d="M14.73,0C6.59,0 0,6.59 0,14.73C0,22.86 6.59,29.46 14.73,29.46C22.86,29.46 29.46,22.86 29.46,14.73C29.46,6.59 22.86,0 14.73,0Z " /></g><g opacity="1" transform="translate(111.3478275368907 4.714571004698911)  rotate(0 8.947492550152079 9.247979755864474)"><path id="路径 4454" fill-rule="evenodd" style="fill:#FFFFFF" transform="translate(0 0)  rotate(0 8.947492550152079 9.247979755864474)" opacity="1" d="M9.47 17.77Z M10.94 0.13Z M0.59 12.49C0.9 12.65 1.43 12.77 2.27 12.78C5.93 12.86 8.5 16.27 9.46 17.77L9.47 17.77C9.84 18.36 10.56 18.63 11.22 18.43C12.63 18.02 15.43 17.18 16.7 16.8C17.28 16.63 17.7 16.14 17.79 15.55L17.79 15.54C18 14.05 18.14 10.51 15.66 7.03L12.95 0.91C12.62 0.14 11.71 -0.21 10.94 0.13C10.25 0.43 9.92 1.22 10.2 1.92L11.47 5.21C10.92 5.25 10.2 5.47 9.82 6.21C9.34 6.15 8.53 6.16 7.92 6.74L6.21 2.69C6 2.21 5.61 1.84 5.13 1.66C4.63 1.47 4.1 1.5 3.63 1.72L3.62 1.72C2.83 2.11 2.49 3.04 2.84 3.85L5.25 9.44C4.72 9.33 3.99 9.26 3.23 9.34C2.17 9.46 1.05 9.88 0.26 10.95C0.04 11.25 -0.07 11.61 0.05 11.94C0.12 12.14 0.28 12.34 0.59 12.49Z M4.01265 2.51514Z M0.872646 11.6351Z M10.9726 17.5951Z M11.2926 0.935142Z M16.4426 15.9651Z M6.32265 10.3651C6.21265 10.4951 6.02265 10.5451 5.86265 10.4851C5.86265 10.4851 4.65265 10.0651 3.32265 10.2051C2.48265 10.2951 1.58265 10.6151 0.962646 11.4751C0.922646 11.5251 0.882646 11.6151 0.872646 11.6351C0.882646 11.6451 0.902646 11.6651 0.922646 11.6751C0.962646 11.7051 1.02265 11.7351 1.09265 11.7551C1.34265 11.8451 1.72265 11.9051 2.29265 11.9151C6.29265 11.9851 9.14265 15.6651 10.2026 17.3051L10.2026 17.3051C10.3726 17.5651 10.6826 17.6851 10.9726 17.5951C12.3726 17.1751 15.1826 16.3451 16.4426 15.9651C16.7026 15.8951 16.8826 15.6751 16.9326 15.4151C17.1226 14.0251 17.2426 10.7351 14.9226 7.50514C14.9126 7.47514 14.8926 7.44514 14.8826 7.41514C14.8826 7.41514 13.0326 3.23514 12.1626 1.26514C12.0126 0.935142 11.6226 0.785142 11.2926 0.935142C11.0326 1.04514 10.9026 1.34514 11.0126 1.60514C11.5426 2.97514 12.5226 5.50514 12.5226 5.50514C12.5826 5.65514 12.5526 5.82514 12.4526 5.94514C12.3426 6.06514 12.1826 6.12514 12.0326 6.09514C12.0326 6.09514 11.7026 6.02514 11.3426 6.09514C11.0226 6.16514 10.6526 6.34514 10.5126 6.82514C10.4826 6.93514 10.4126 7.03514 10.3026 7.09514C10.2026 7.15514 10.0726 7.16514 9.96265 7.12514C9.96265 7.12514 8.70265 6.70514 8.23265 7.81514C8.16265 7.97514 8.00265 8.08514 7.83265 8.08514C7.65265 8.08514 7.49265 7.97514 7.42265 7.81514C7.42265 7.81514 6.18265 4.86514 5.40265 3.03514C5.29265 2.77514 5.08265 2.56514 4.81265 2.46514C4.55265 2.37514 4.26265 2.38514 4.01265 2.51514C3.63265 2.68514 3.47265 3.12514 3.64265 3.50514C4.53265 5.56514 6.40265 9.90514 6.40265 9.90514C6.47265 10.0551 6.44265 10.2451 6.32265 10.3651Z " /></g><g opacity="1" transform="translate(118.74758103936666 9.925716053531367)  rotate(0 3.1560417402016316 3.0558587119787757)"><path id="路径 4455" fill-rule="evenodd" style="fill:#FFFFFF" transform="translate(0 0)  rotate(0 3.1560417402016316 3.0558587119787757)" opacity="1" d="M1.43 5.51C0.96 4.51 0.04 2.6 0.04 2.6C-0.06 2.38 0.03 2.13 0.25 2.02C0.46 1.92 0.73 2.01 0.83 2.23C0.83 2.23 1.75 4.14 2.22 5.13C2.24 5.17 2.28 5.21 2.33 5.23C2.38 5.25 2.44 5.24 2.48 5.22L3.33 4.79C3.43 4.75 3.47 4.64 3.43 4.54L2.3 1.73C2.21 1.51 2.32 1.25 2.54 1.16C2.76 1.07 3.02 1.17 3.11 1.4L4.24 4.13C4.25 4.16 4.27 4.18 4.3 4.19C4.33 4.2 4.36 4.2 4.39 4.19L5.37 3.78C5.43 3.75 5.45 3.69 5.43 3.63C5.08 2.66 4.33 0.58 4.33 0.58C4.24 0.36 4.36 0.11 4.59 0.03C4.82 -0.06 5.07 0.06 5.15 0.29C5.15 0.29 5.9 2.36 6.25 3.33C6.43 3.83 6.19 4.38 5.71 4.58C5.41 4.71 5.03 4.86 4.73 4.99C4.57 5.06 4.39 5.09 4.22 5.06C4.12 5.28 3.95 5.46 3.72 5.57C3.47 5.7 3.14 5.87 2.88 6C2.62 6.13 2.32 6.15 2.05 6.05C1.78 5.96 1.56 5.77 1.43 5.51Z" /></g></g><g opacity="1" transform="translate(163.2445144662935 53.937509893220664)  rotate(0 20.35942630687287 24.371633007123503)"><g opacity="1" transform="translate(10.336643109459178 33.964561690977405)  rotate(0 13.857827150100274 6.8665078903118335)"><path id="路径 4456" fill-rule="evenodd" style="fill:#3D61FF" transform="translate(0 0)  rotate(0 13.857827150100274 6.8665078903118335)" opacity="1" d="M27.47 3.59C28.86 7.42 23.87 10.61 23.87 10.61L5.85 13.73C5.85 13.73 -2.29 12.52 0.63 6.11L18.3 0.04C18.3 0.04 25.94 -0.61 27.47 3.59Z" /></g><g opacity="1" transform="translate(14.755857004523184 35.09297271201094)  rotate(0 9.731715458938334 6.6067401322568005)"><path id="路径 4457" fill-rule="evenodd" style="fill:#FFFFFF" transform="translate(0 0)  rotate(0 9.731715458938334 6.6067401322568005)" opacity="1" d="M17.34 0L19.46 9.49C15.05 12.82 8.57 14.07 1.44 12.62L0 7.89L5.96 5.4L17.34 0Z" /></g><g opacity="1" transform="translate(14.322256623969873 34.65656526542084)  rotate(0 10.165822825756567 7.043350374413085)"><path id="路径 4458" fill-rule="evenodd" style="fill:#000045" transform="translate(0 0)  rotate(0 10.165822825756567 7.043350374413085)" opacity="1" d="M0.26 7.92Z M1.46 13.18C1.51 13.33 1.63 13.45 1.79 13.48C9.06 14.96 15.66 13.67 20.16 10.28C20.29 10.18 20.36 10 20.32 9.84L18.2 0.34C18.17 0.21 18.08 0.1 17.96 0.04C17.85 -0.01 17.71 -0.01 17.58 0.04L6.22 5.43L0.26 7.92C0.06 8.01 -0.04 8.24 0.02 8.45L1.46 13.18Z M0.965936 8.57581Z M2.21594 12.6758C8.98594 13.9958 15.1359 12.8458 19.4059 9.74581L17.4659 1.06581L6.58594 6.22581C6.57594 6.23581 6.57594 6.23581 6.56594 6.23581L0.965936 8.57581L2.21594 12.6758Z " /></g><g opacity="1" transform="translate(2.5441825631208657 11.449801412052828)  rotate(0 18.867050837545182 16.500488564665158)"><path id="路径 4459" fill-rule="evenodd" style="fill:#FFFFFF" transform="translate(0 0)  rotate(0 18.867050837545182 16.500488564665158)" opacity="1" d="M22.83 3.42L29.8 12.82C34.17 9.64 38.51 13.95 37.62 17.33C36.25 22.53 30.69 21.53 30.69 21.53C30.43 25.24 25.62 33.17 17.64 33C9.67 32.83 5.75 27.61 4.98 25.51C4.2 23.4 2.38 16.7 2.38 16.7L0 8.16L8.75 0L22.83 3.42Z" /></g><g opacity="1" transform="translate(2.102068553503822 11.013386134468572)  rotate(0 19.30839203012096 16.937076675278902)"><path id="路径 4460" fill-rule="evenodd" style="fill:#000045" transform="translate(0 0)  rotate(0 19.30839203012096 16.937076675278902)" opacity="1" d="M2.4 17.26Z M29.08 27.91C30.46 25.98 31.29 23.96 31.52 22.45C32.95 22.57 37.26 22.52 38.48 17.88C38.78 16.76 38.57 15.54 37.97 14.49C36.67 12.15 33.55 10.6 30.35 12.66L23.61 3.6C23.55 3.51 23.47 3.46 23.37 3.43L9.29 0.01C9.16 -0.02 9 0.02 8.89 0.12L0.14 8.28C0.02 8.39 -0.03 8.56 0.02 8.72L2.4 17.26C2.43 17.37 4.24 24 5.01 26.1C5.82 28.27 9.84 33.7 18.08 33.87C23.02 33.98 26.8 31.08 29.08 27.91Z M3.23709 17.027Z M3.23709 17.027C3.23709 17.027 5.05709 23.697 5.82709 25.797C6.57709 27.827 10.3871 32.837 18.0971 32.997C22.7171 33.097 26.2371 30.357 28.3671 27.397C29.7871 25.427 30.5971 23.367 30.6971 21.937C30.7071 21.817 30.7671 21.697 30.8671 21.627C30.9671 21.547 31.0971 21.517 31.2071 21.537C31.2071 21.537 36.3671 22.477 37.6371 17.657C37.8771 16.747 37.6871 15.767 37.2071 14.917C36.0771 12.887 33.2871 11.577 30.4971 13.607C30.3071 13.747 30.0371 13.707 29.8871 13.517L23.0071 4.24703L9.31709 0.91703L0.927093 8.73703L3.23709 17.027C3.23709 17.027 3.23709 17.027 3.23709 17.027Z " /></g><g opacity="1" transform="translate(0 0)  rotate(0 19.2262869140357 14.270949188093985)"><path id="路径 4461" fill-rule="evenodd" style="fill:#000045" transform="translate(0 0)  rotate(0 19.2262869140357 14.270949188093985)" opacity="1" d="M29.07 24.53C29.07 24.53 23.24 25.47 18.2 18.86C13.15 12.25 10.37 15.1 9.48 17.9C9.48 17.9 4.64 16.32 4.63 20.96C4.63 21.5588 4.69978 22.019 4.76508 22.4497C4.90809 23.3928 5.02964 24.1945 4.35 26L5.03 28.54C5.03 28.54 -1.08 25.5 0.17 15.45C1.42 5.4 15.85 -4.54 28.06 2.21C28.06 2.21 42.26 3.07 37.46 23.6C37.46 23.6 35.24 22.09 32.29 24.27C32.29 24.27 32.24 26.58 31.96 28.08C31.92 28.22 31.81 28.33 31.67 28.37C31.53 28.42 31.38 28.38 31.27 28.28C30.76 27.7 29.93 26.54 29.07 24.53Z" /></g><g opacity="1" transform="translate(33.069235946172746 25.649872841635364)  rotate(0 2.5933177684763047 1.9388521043155456)"><path id="路径 4462" fill-rule="evenodd" style="fill:#000045" transform="translate(0 0)  rotate(0 2.5933177684763047 1.9388521043155456)" opacity="1" d="M4.53 0.06C4.75 -0.06 5.01 0.01 5.13 0.22C5.25 0.43 5.17 0.7 4.96 0.82C2.4 2.24 0.73 3.76 0.73 3.76C0.55 3.93 0.27 3.91 0.11 3.74C-0.05 3.56 -0.03 3.28 0.14 3.12C0.14 3.12 1.88 1.54 4.53 0.06Z" /></g><g opacity="1" transform="translate(34.790693916445186 27.34201950566653)  rotate(0 1.260973601294471 1.1017243875823441)"><path id="路径 4463" fill-rule="evenodd" style="fill:#000045" transform="translate(0 0)  rotate(0 1.260973601294471 1.1017243875823441)" opacity="1" d="M2.36 1.43C2.55 1.58 2.58 1.85 2.42 2.04C2.28 2.23 2 2.26 1.81 2.11L0.16 0.78C-0.03 0.63 -0.05 0.35 0.09 0.16C0.25 -0.03 0.53 -0.05 0.71 0.1L2.36 1.43Z" /></g><g opacity="1" transform="translate(5.44793151932962 24.284350038769393)  rotate(-10.522484764210935 3.373189309002518 1.1980912602029599)"><path id="路径 4464" fill-rule="evenodd" style="fill:#000045" transform="translate(0 0)  rotate(0 3.373189309002518 1.1980912602029599)" opacity="1" d="M6.62 1.43C6.8 1.6 6.78 1.88 6.61 2.05C6.44 2.22 6.17 2.21 5.99 2.04C3.39 -0.66 0.77 2.25 0.77 2.25C0.59 2.43 0.32 2.44 0.15 2.28C-0.04 2.12 -0.05 1.84 0.11 1.67C0.11 1.67 3.39 -1.92 6.62 1.43Z" /></g><g opacity="1" transform="translate(17.967299461953747 21.287211803572603)  rotate(8.193300692945146 1.738632796898023 1.1680385353131397)"><path id="路径 4465" fill-rule="evenodd" style="fill:#000045" transform="translate(0 0)  rotate(0 1.738632796898023 1.1680385353131397)" opacity="1" d="M2.97 0.01C3.2 -0.04 3.42 0.13 3.47 0.36C3.51 0.6 3.35 0.83 3.11 0.87C1.74 1.1 0.77 2.19 0.77 2.19C0.59 2.37 0.32 2.38 0.15 2.22C-0.04 2.06 -0.05 1.78 0.11 1.61C0.11 1.61 1.31 0.29 2.97 0.01Z" /></g><g opacity="1" transform="translate(19.24758712612981 26.48974459707821)  rotate(0 1.1292984990297175 1.1292984990297175)"><path id="椭圆 240" fill-rule="evenodd" style="fill:#000045" transform="translate(0 0)  rotate(0 1.1292984990297175 1.1292984990297175)" opacity="1" d="M1.13,0C0.51,0 0,0.51 0,1.13C0,1.75 0.51,2.26 1.13,2.26C1.75,2.26 2.26,1.75 2.26,1.13C2.26,0.51 1.75,0 1.13,0Z " /></g><g opacity="1" transform="translate(8.773299504995503 28.27638323553484)  rotate(0 1.1292984990297175 1.1292984990297175)"><path id="椭圆 241" fill-rule="evenodd" style="fill:#000045" transform="translate(0 0)  rotate(0 1.1292984990297175 1.1292984990297175)" opacity="1" d="M1.13,0C0.51,0 0,0.51 0,1.13C0,1.75 0.51,2.26 1.13,2.26C1.75,2.26 2.26,1.75 2.26,1.13C2.26,0.51 1.75,0 1.13,0Z " /></g><g opacity="1" transform="translate(14.331104309906054 29.93826091504347)  rotate(14.641912835204753 0.6165878496469882 2.2245517229340535)"><path id="路径 4466" fill-rule="evenodd" style="fill:#000045" transform="translate(0 0)  rotate(0 0.6165878496469882 2.2245517229340535)" opacity="1" d="M1.23 3.97C1.25 4.21 1.07 4.42 0.83 4.45C0.59 4.47 0.39 4.3 0.36 4.06L0 0.48C-0.01 0.24 0.15 0.03 0.39 0C0.64 -0.02 0.85 0.15 0.88 0.39L1.23 3.97Z" /></g><g opacity="1" transform="translate(16.03909106714755 35.39363393939658)  rotate(-74.99987811880251 1.9952992457042038 1.9901636491659005)"><path id="路径 4467" fill-rule="evenodd" style="fill:#000045" transform="translate(0 0)  rotate(0 1.9952992457042038 1.9901636491659005)" opacity="1" d="M3.55 3.11C3.8 3.11 3.99 3.3 3.99 3.54C3.99 3.78 3.8 3.98 3.55 3.98C1.59 3.98 0 2.39 0 0.44C0 0.2 0.21 0 0.45 0C0.68 0 0.88 0.2 0.88 0.44C0.88 1.91 2.08 3.11 3.55 3.11Z" /></g><g opacity="1" transform="translate(11.96023680867111 45.69098409138052)  rotate(0 2.3348255016248807 1.2287766881072704)"><path id="路径 4468" fill-rule="evenodd" style="fill:#000045" transform="translate(0 0)  rotate(0 2.3348255016248807 1.2287766881072704)" opacity="1" d="M0.19 0.8C-0.01 0.67 -0.06 0.4 0.08 0.2C0.21 -0.01 0.49 -0.06 0.68 0.08C2.68 1.42 4.27 1.59 4.27 1.59C4.51 1.61 4.69 1.83 4.67 2.07C4.64 2.31 4.43 2.48 4.19 2.46C4.19 2.46 2.41 2.3 0.19 0.8Z" /></g><g opacity="1" transform="translate(33.77223785163504 40.64594735259418)  rotate(0 2.029933348319897 2.1904440882846234)"><path id="路径 4469" fill-rule="evenodd" style="fill:#000045" transform="translate(0 0)  rotate(0 2.029933348319897 2.1904440882846234)" opacity="1" d="M3.22 0.28C3.31 0.04 3.56 -0.06 3.78 0.03C4.02 0.13 4.12 0.38 4.03 0.61C3.14 2.71 0.67 4.31 0.67 4.31C0.47 4.44 0.2 4.39 0.07 4.18C-0.06 3.98 0 3.71 0.2 3.58C0.2 3.58 2.43 2.15 3.22 0.28Z" /></g></g><g opacity="1" transform="translate(147.67668066382947 110.38420320122992)  rotate(0 33.31950797403098 24.075544757756862)"><g opacity="1" transform="translate(58.232074165200885 5.944834009255418)  rotate(0 3.589350318694887 9.451479797865884)"><path id="路径 4470" fill-rule="evenodd" style="fill:#000045" transform="translate(0 0)  rotate(0 3.589350318694887 9.451479797865884)" opacity="1" d="M6.79 18.9L5.47 17.94C5.47 17.94 0.79 3.35 0.05 1.22C-0.11 0.73 0.14 0.21 0.62 0.04C1.02 -0.1 1.47 0.11 1.62 0.52C2.42 2.69 7.18 17.46 7.18 17.46L6.79 18.9Z" /></g><g opacity="1" transform="translate(49.373944684794964 13.035649736968367)  rotate(0 8.41313144563121 6.451923113459446)"><path id="路径 4471" fill-rule="evenodd" style="fill:#FFFFFF" transform="translate(0 0)  rotate(0 8.41313144563121 6.451923113459446)" opacity="1" d="M14.78 6.48C14.78 6.48 15.27 7.9 14.62 8.71C14.62 8.71 15.09 9.68 14.27 10.47L10.93 10.47C10.93 10.47 8.62 12.88 4.32 12.9L1.71 8.71L0 4.23C0 4.23 7.05 0.2 8.59 0.01C10.14 -0.16 13.46 1.44 14.06 1.77C14.68 2.1 15.18 3.44 16.69 5.15C17.13 5.65 16.51 7.21 14.78 6.48Z" /></g><g opacity="1" transform="translate(48.941989827847976 12.603520554804916)  rotate(0 8.848513060106988 6.8829853139424655)"><path id="路径 4472" fill-rule="evenodd" style="fill:#000045" transform="translate(0 0)  rotate(0 8.848513060106988 6.8829853139424655)" opacity="1" d="M0.22 4.28Z M14.72 1.82C14.27 1.58 12.47 0.7 10.88 0.27C10.16 0.06 9.48 -0.04 8.97 0.02C8.48 0.07 7.47 0.48 6.3 1.05C3.68 2.3 0.22 4.28 0.22 4.28C0.04 4.39 -0.05 4.61 0.03 4.81L1.73 9.31C1.74 9.33 1.75 9.35 1.77 9.38L4.38 13.56C4.46 13.68 4.6 13.77 4.75 13.77C8.63 13.75 10.95 11.86 11.53 11.33L14.7 11.33C14.82 11.33 14.92 11.28 15.01 11.21C15.76 10.47 15.66 9.62 15.54 9.21C15.75 8.84 15.83 8.41 15.83 8.01C15.83 7.84 15.82 7.68 15.8 7.53C16.2 7.58 16.55 7.51 16.82 7.38C17.28 7.15 17.56 6.73 17.65 6.33C17.76 5.93 17.66 5.53 17.46 5.29C16.56 4.29 16.03 3.41 15.61 2.8C15.28 2.32 14.99 1.98 14.72 1.82Z M0.977498 4.8634Z M6.6775 1.8434C4.5675 2.8534 1.8975 4.3334 0.977498 4.8634L2.5375 8.9534L4.9975 12.8934C8.9175 12.7934 11.0375 10.5934 11.0375 10.5934C11.1175 10.5034 11.2375 10.4534 11.3575 10.4534L14.5175 10.4534C14.9375 9.9234 14.6575 9.3434 14.6575 9.3434C14.5875 9.1934 14.6075 9.0034 14.7175 8.8734C14.9175 8.6334 14.9475 8.3034 14.9475 8.0034C14.9475 7.5034 14.7975 7.0534 14.7975 7.0534C14.7475 6.8934 14.7875 6.7134 14.9175 6.6034C15.0375 6.4834 15.2275 6.4534 15.3875 6.5034C16.1075 6.8234 16.5775 6.6234 16.7475 6.2734C16.7975 6.1834 16.8275 6.0734 16.8175 5.9834C16.8175 5.9434 16.8175 5.9034 16.7975 5.8734C15.8775 4.8234 15.3175 3.9134 14.8875 3.2934C14.6575 2.9534 14.4775 2.7034 14.2875 2.5834C13.9375 2.3934 12.6275 1.7534 11.2975 1.3034C10.4775 1.0234 9.6375 0.813404 9.0675 0.883404C8.6275 0.933404 7.7375 1.3334 6.6775 1.8434Z " /></g><g opacity="1" transform="translate(60.110674958753705 15.853485415658936)  rotate(0 1.9575164431966088 1.1149879551998743)"><path id="路径 4473" fill-rule="evenodd" style="fill:#000045" transform="translate(0 0)  rotate(0 1.9575164431966088 1.1149879551998743)" opacity="1" d="M0.26 0.84C0.04 0.74 -0.06 0.48 0.04 0.26C0.13 0.04 0.39 -0.06 0.61 0.04L3.65 1.4C3.87 1.49 3.98 1.75 3.87 1.97C3.78 2.19 3.53 2.29 3.3 2.19L0.26 0.84Z" /></g><g opacity="1" transform="translate(59.91750187465874 18.430417487777685)  rotate(0 2.2586175564654023 0.7365549022050913)"><path id="路径 4474" fill-rule="evenodd" style="fill:#000045" transform="translate(0 0)  rotate(0 2.2586175564654023 0.7365549022050913)" opacity="1" d="M0.36 0.87C0.12 0.83 -0.04 0.61 0.01 0.37C0.04 0.14 0.26 -0.03 0.51 0L4.16 0.61C4.39 0.64 4.55 0.87 4.51 1.1C4.48 1.34 4.24 1.51 4.02 1.47L0.36 0.87Z" /></g><g opacity="1" transform="translate(60.19447207481854 20.78154026373733)  rotate(0 1.989466638403377 0.7233167179802358)"><path id="路径 4475" fill-rule="evenodd" style="fill:#000045" transform="translate(0 0)  rotate(0 1.989466638403377 0.7233167179802358)" opacity="1" d="M0.36 0.87C0.12 0.82 -0.04 0.59 0.01 0.36C0.05 0.12 0.28 -0.04 0.51 0.01L3.62 0.58C3.85 0.62 4.01 0.84 3.97 1.09C3.93 1.32 3.7 1.48 3.46 1.44L0.36 0.87Z" /></g><g opacity="1" transform="translate(0.4386335200815416 0.4369880961275413)  rotate(0 26.675023670553564 23.641857955749103)"><path id="路径 4476" fill-rule="evenodd" style="fill:#FFFFFF" transform="translate(0 0)  rotate(0 26.675023670553564 23.641857955749103)" opacity="1" d="M49.19 16.44C50.55 17.1 52.72 21.11 53.33 25.15C53.44 26.04 53.13 26.93 52.48 27.55C51.65 28.34 50.47 29.43 49.52 30.06C49.52 30.06 49.06 32.27 46.08 34.11C45.9963 34.1615 45.8972 34.2228 45.7834 34.2933C41.8289 36.7408 20.0369 50.2284 5.69 46.7C0.28 45.36 -1.71 35.48 1.65 19.87C5 4.27 8.23 1.01 10.61 0C10.61 0 14.63 3.68 15.99 8.27C17.35 12.84 17.79 25.48 17.79 25.48C17.79 25.48 32.36 19.63 37.45 18.2C42.55 16.76 44.65 17.86 44.65 17.86C44.65 17.86 47.67 15.72 49.19 16.44Z" /></g><g opacity="1" transform="translate(0 0)  rotate(0 27.110869739554964 24.075544757756862)"><path id="路径 4477" fill-rule="evenodd" style="fill:#000045" transform="translate(0 0)  rotate(0 27.110869739554964 24.075544757756862)" opacity="1" d="M11.34 0.11Z M10.87 0.03C9.63 0.56 8.15 1.67 6.54 4.7C5.01 7.61 3.35 12.36 1.65 20.23C-0.38 29.68 -0.46 37.05 0.98 41.73C1.98 45.01 3.72 46.98 6.02 47.55C12 49.03 19.26 47.6 26.01 45.22C36.04 41.66 44.95 36.03 46.75 34.92C49.4 33.28 50.15 31.35 50.34 30.76C51.28 30.11 52.42 29.06 53.22 28.3C53.97 27.59 54.33 26.56 54.19 25.53C54.19 25.52 54.19 25.52 54.19 25.52C53.76 22.62 52.53 19.74 51.37 18.04C50.83 17.24 50.27 16.71 49.81 16.49C49.28 16.23 48.58 16.25 47.86 16.45C46.71 16.75 45.51 17.5 45.04 17.8C44.33 17.54 42.07 17 37.77 18.22C33.28 19.48 21.39 24.19 18.64 25.29C18.53 22.68 18.03 12.58 16.84 8.58C15.45 3.89 11.34 0.11 11.34 0.11C11.21 0 11.04 -0.03 10.87 0.03Z M52.6106 27.6594Z M10.9606 0.959417Z M38.0106 19.0494C32.9306 20.4794 18.3906 26.3194 18.3906 26.3194C18.2606 26.3794 18.1106 26.3594 17.9906 26.2894C17.8606 26.2094 17.8006 26.0794 17.8006 25.9394C17.8006 25.9394 17.3606 13.3694 16.0106 8.81942C14.8606 4.96942 11.7906 1.75942 10.9606 0.959417C9.89057 1.47942 8.66057 2.55942 7.32057 5.10942C5.80057 7.96942 4.17057 12.6694 2.50057 20.3994C0.520569 29.6694 0.410569 36.8894 1.82057 41.4794C2.70057 44.3794 4.18057 46.2094 6.23057 46.7094C12.0606 48.1494 19.1306 46.7194 25.7206 44.3894C35.6706 40.8794 44.5106 35.2794 46.2806 34.1694C49.0706 32.4594 49.5206 30.3994 49.5206 30.3994C49.5506 30.2794 49.6206 30.1894 49.7106 30.1194C50.6406 29.5094 51.8106 28.4494 52.6106 27.6594C53.1706 27.1494 53.4306 26.3894 53.3206 25.6494C52.9206 22.8994 51.7506 20.1494 50.6506 18.5294C50.2106 17.8994 49.8006 17.4494 49.4406 17.2794C48.9206 17.0294 48.2106 17.2194 47.5306 17.4694C46.3906 17.9194 45.3406 18.6494 45.3406 18.6494C45.2006 18.7394 45.0306 18.7494 44.8906 18.6794C44.8906 18.6794 42.8806 17.6794 38.0106 19.0494Z " /></g><g opacity="1" transform="translate(8.76603455865052 25.338362992573128)  rotate(0 5.075843536369587 5.694563537428238)"><path id="路径 4478" fill-rule="evenodd" style="fill:#000045" transform="translate(0 0)  rotate(0 5.075843536369587 5.694563537428238)" opacity="1" d="M0.85 11.1C0.76 11.33 0.51 11.45 0.29 11.36C0.06 11.28 -0.06 11.03 0.03 10.79C3.16 2.34 9.57 0.03 9.57 0.03C9.79 -0.06 10.04 0.06 10.12 0.28C10.21 0.51 10.09 0.76 9.86 0.85C9.86 0.85 3.81 3.08 0.85 11.1Z" /></g><g opacity="1" transform="translate(45.235030801295935 20.158938555130646)  rotate(0 2.2092780773365424 4.2505210995415545)"><path id="路径 4479" fill-rule="evenodd" style="fill:#000045" transform="translate(0 0)  rotate(0 2.2092780773365424 4.2505210995415545)" opacity="1" d="M4.41 7.96C4.46 8.2 4.31 8.43 4.08 8.49C3.85 8.54 3.61 8.41 3.56 8.16C2.5 3.83 0.09 0.7 0.09 0.7C-0.06 0.51 -0.02 0.24 0.17 0.09C0.36 -0.06 0.63 -0.02 0.78 0.17C0.78 0.17 3.31 3.45 4.41 7.96Z" /></g></g></g></g></g></svg>