<svg xmlns="http://www.w3.org/2000/svg" xmlns:xlink="http://www.w3.org/1999/xlink" width="356" height="290" viewBox="0 0 356 290" fill="none"><defs><rect id="path_0" x="0" y="0" width="356" height="290" /><rect id="path_1" x="0" y="0" width="16" height="16" /><linearGradient id="linear_0" x1="-2.7780000000000027%" y1="32.00000000000001%" x2="99.99999999999999%" y2="67.556%" gradientUnits="objectBoundingBox"><stop offset="0" stop-color="#2298BD" stop-opacity="1" /><stop offset="1" stop-color="#0ED7B5" stop-opacity="1" /></linearGradient></defs><g opacity="1" transform="translate(0 0)  rotate(0 178 145)"><mask id="bg-mask-0" fill="white"><use xlink:href="#path_0"></use></mask><g mask="url(#bg-mask-0)" ><g opacity="1" transform="translate(40 41)  rotate(0 138.48637185013186 104.16372680664062)"><g opacity="1" transform="translate(0 0)  rotate(0 138.48637185013186 103.9408195842564)"><path id="路径 4593" fill-rule="evenodd" style="fill:#E7ECFF" transform="translate(0 0)  rotate(0 138.48637185013186 103.9408195842564)" opacity="1" d="M37.5 207.88L0 106.25L149.17 0L276.97 75.74L264.11 207.88L37.5 207.88Z" /></g><g opacity="1" transform="translate(174.4627263590489 90.8682050575436)  rotate(0 35.821773193540544 58.72546605728205)"><g opacity="1" transform="translate(0.4542811562782472 0.9516013240116333)  rotate(0 9.648533664565884 58.026408321142725)"><path id="路径 4594" fill-rule="evenodd" style="fill:#FFFFFF" transform="translate(0 0)  rotate(0 9.648533664565884 58.026408321142725)" opacity="1" d="M4.73353 12.548C4.32684 11.4652 3.91048 10.3567 4.25 9.75C4.95 8.5 17.98 0 17.98 0L19.3 116.05L1.08 116.05C1.16122 108.241 0.874672 96.653 0.576655 84.6017C0.140825 66.9773 -0.319532 48.3611 0.31 39.12C0.81 31.73 4.45 20.8 5.3 14.82C5.37538 14.2569 5.05752 13.4106 4.73353 12.548Z" /></g><g opacity="1" transform="translate(0 0.49989229180385175)  rotate(0 10.09983323246239 58.475519911380125)"><path id="路径 4595" fill-rule="evenodd" style="fill:#000045" transform="translate(0 0)  rotate(0 10.09983323246239 58.475519911380125)" opacity="1" d="M19.75 116.95Z M20.2 116.5L18.88 0.45C18.88 0.29 18.78 0.13 18.64 0.05C18.5 -0.02 18.32 -0.02 18.18 0.07C18.18 0.07 9.83 5.52 6.13 8.35C5.13 9.1 4.46 9.71 4.31 9.99C4.17 10.22 4.11 10.52 4.13 10.86C4.15 11.26 4.26 11.73 4.43 12.24C4.65 12.91 4.97 13.64 5.16 14.28C5.27 14.63 5.34 14.95 5.3 15.2C4.44 21.2 0.81 32.15 0.3 39.55C-0.75 55.11 1.28 97.26 1.08 116.5C1.08 116.62 1.13 116.74 1.21 116.82C1.29 116.9 1.41 116.95 1.53 116.95L19.75 116.95C19.87 116.95 19.99 116.9 20.07 116.82C20.15 116.74 20.2 116.62 20.2 116.5Z M6.19362 15.3282Z M19.2936 116.058Z M5.29362 11.9382C5.52362 12.6382 5.83362 13.3682 6.03362 14.0182C6.17362 14.5082 6.25362 14.9682 6.19362 15.3282C5.34362 21.3082 1.71362 32.2182 1.21362 39.6082C0.163624 55.0382 2.15362 96.6182 1.98362 116.058L19.2936 116.058L17.9836 1.28818C15.9236 2.63818 9.72362 6.74818 6.68362 9.06818C5.83362 9.71818 5.23362 10.1982 5.10362 10.4182C5.01362 10.5682 5.01362 10.7482 5.04362 10.9782C5.07362 11.2682 5.17362 11.5982 5.29362 11.9382Z " /></g><g opacity="1" transform="translate(6.904660511600651 0)  rotate(0 32.36944293774022 58.50072345506124)"><path id="路径 4596" fill-rule="evenodd" style="fill:#654EF5" transform="translate(0 0)  rotate(0 32.36944293774022 58.50072345506124)" opacity="1" d="M18.71 1.67L25.61 0C52.36 19.59 61.69 96.06 64.74 117L0.21 117C-0.12 94.88 -0.02 47.84 0.21 37.61C0.5 25.09 2.84 17.72 6.17 11.96C9.9 5.52 18.71 1.67 18.71 1.67Z" /></g></g><g opacity="1" transform="translate(32.73251922494754 95.23913142769784)  rotate(0 59.94993127194988 46.001539187940224)"><g opacity="1" transform="translate(9.687912878918336 0.45670072372721854)  rotate(0 54.883672643551726 35.13433646348126)"><path id="路径 4597" fill-rule="evenodd" style="fill:#FFFFFF" transform="translate(0 0)  rotate(0 54.883672643551726 35.13433646348126)" opacity="1" d="M4.6 70.27C2.06 70.27 0 68.2 0 65.66L0 4.6C0 2.05 2.06 0 4.6 0L105.16 0C107.7 0 109.77 2.05 109.77 4.6L109.77 65.66C109.77 68.2 107.7 70.27 105.16 70.27L4.6 70.27Z" /></g><g opacity="1" transform="translate(9.231636834655763 0)  rotate(0 55.334112854622 35.58557250531314)"><path id="路径 4598" fill-rule="evenodd" style="fill:#000045" transform="translate(0 0)  rotate(0 55.334112854622 35.58557250531314)" opacity="1" d="M110.67 5.05Z M5.05 71.17C22.94 71.17 87.73 71.17 105.61 71.17C108.41 71.17 110.67 68.91 110.67 66.12L110.67 5.05C110.67 2.26 108.41 0 105.61 0C87.73 0 22.94 0 5.05 0C2.27 0 0 2.26 0 5.05C0 17.79 0 53.38 0 66.12C0 68.91 2.27 71.17 5.05 71.17Z M109.764 5.05361Z M105.614 0.913614C87.7336 0.913614 22.9336 0.913614 5.05361 0.913614C2.77361 0.913614 0.913614 2.76361 0.913614 5.05361L0.913614 66.1136C0.913614 68.4136 2.77361 70.2736 5.05361 70.2736C22.9336 70.2736 87.7336 70.2736 105.614 70.2736C107.904 70.2736 109.764 68.4136 109.764 66.1136L109.764 5.05361C109.764 2.76361 107.904 0.913614 105.614 0.913614Z " /></g><g opacity="1" transform="translate(0 57.775193149870994)  rotate(0 52.90364570867038 17.113942613004728)"><path id="路径 4599" fill-rule="evenodd" style="fill:#000045" transform="translate(0 0)  rotate(0 52.90364570867038 17.113942613004728)" opacity="1" d="M101.37 0C102.55 0 103.67 0.47 104.51 1.3C105.34 2.13 105.81 3.25 105.81 4.44L105.81 29.79C105.81 30.97 105.34 32.09 104.51 32.93C103.67 33.76 102.55 34.23 101.37 34.23L4.43 34.23C3.26 34.23 2.13 33.76 1.3 32.93C0.47 32.09 0 30.97 0 29.79L0 4.44C0 3.25 0.47 2.13 1.3 1.3C2.13 0.47 3.26 0 4.43 0L101.37 0Z" /></g><g opacity="1" transform="translate(17.3809438335243 34.90089380964747)  rotate(0 23.49690323648374 0.45123604183188076)"><path id="路径 4600" fill-rule="evenodd" style="fill:#654EF5" transform="translate(0 0)  rotate(0 23.49690323648374 0.45123604183188076)" opacity="1" d="M46.54 0C46.79 0 46.99 0.2 46.99 0.45C46.99 0.7 46.79 0.9 46.54 0.9L0.46 0.9C0.21 0.9 0 0.7 0 0.45C0 0.2 0.21 0 0.46 0L46.54 0Z" /></g><g opacity="1" transform="translate(17.398346414006653 45.74477807104853)  rotate(0 35.70574295031599 0.45123604183188076)"><path id="路径 4601" fill-rule="evenodd" style="fill:#000045" transform="translate(0 0)  rotate(0 35.70574295031599 0.45123604183188076)" opacity="1" d="M70.96 0C71.21 0 71.41 0.2 71.41 0.45C71.41 0.7 71.21 0.9 70.96 0.9L0.45 0.9C0.2 0.9 0 0.7 0 0.45C0 0.2 0.2 0 0.45 0L70.96 0Z" /></g><g opacity="1" transform="translate(8.688349442338367 83.43829176260198)  rotate(0 20.617587540985074 0.45044021107027254)"><path id="路径 4602" fill-rule="evenodd" style="fill:#FFFFFF" transform="translate(0 0)  rotate(0 20.617587540985074 0.45044021107027254)" opacity="1" d="M40.78 0C41.03 0 41.24 0.21 41.24 0.46C41.24 0.71 41.03 0.9 40.78 0.9L0.46 0.9C0.21 0.9 0 0.71 0 0.46C0 0.21 0.21 0 0.46 0L40.78 0Z" /></g><g opacity="1" transform="translate(8.688986728690436 75.58227326909739)  rotate(0 11.510896135901806 0.45044021107027254)"><path id="路径 4603" fill-rule="evenodd" style="fill:#FFFFFF" transform="translate(0 0)  rotate(0 11.510896135901806 0.45044021107027254)" opacity="1" d="M22.57 0C22.82 0 23.02 0.21 23.02 0.46C23.02 0.71 22.82 0.9 22.57 0.9L0.45 0.9C0.2 0.9 0 0.71 0 0.46C0 0.21 0.2 0 0.45 0L22.57 0Z" /></g><g opacity="1" transform="translate(93.30785993630934 74.26729088995576)  rotate(-45 0.45412092834271073 5.209309207797238)"><path id="路径 4604" fill-rule="evenodd" style="fill:#FFFFFF" transform="translate(0 0)  rotate(0 0.45412092834271073 5.209309207797238)" opacity="1" d="M0.91 9.97C0.91 10.21 0.7 10.42 0.46 10.42C0.21 10.42 0 10.21 0 9.97L0 0.45C0 0.2 0.21 0 0.46 0C0.7 0 0.91 0.2 0.91 0.45L0.91 9.97Z" /></g><g opacity="1" transform="translate(93.32641076059166 74.24681788618534)  rotate(45 0.45412092834271073 5.209309207797238)"><path id="路径 4605" fill-rule="evenodd" style="fill:#FFFFFF" transform="translate(0 0)  rotate(0 0.45412092834271073 5.209309207797238)" opacity="1" d="M0.91 9.97C0.91 10.21 0.7 10.42 0.46 10.42C0.21 10.42 0 10.21 0 9.97L0 0.45C0 0.2 0.21 0 0.46 0C0.7 0 0.91 0.2 0.91 0.45L0.91 9.97Z" /></g></g><g opacity="1" transform="translate(11.165503402205724 18.968091229672922)  rotate(0 110.82871104784357 86.53396164879068)"><g opacity="1" transform="translate(107.96973422063056 36.92913475808125)  rotate(124.39119596167056 3.322916786250589 7.14767942635111)"><path id="路径 4606" fill-rule="evenodd" style="fill:#000045" transform="translate(0 0)  rotate(0 3.322916786250589 7.14767942635111)" opacity="1" d="M0.87 14.02C0.77 14.25 0.5 14.36 0.28 14.26C0.05 14.16 -0.06 13.9 0.04 13.66L5.77 0.28C5.87 0.05 6.14 -0.06 6.37 0.04C6.6 0.13 6.71 0.41 6.61 0.63L0.87 14.02Z" /></g><g opacity="1" transform="translate(199.9633738313619 43.690967221861904)  rotate(-102.17347246339476 2.622381509796747 3.6241521297258994)"><path id="路径 4607" fill-rule="evenodd" style="fill:#000045" transform="translate(0 0)  rotate(0 2.622381509796747 3.6241521297258994)" opacity="1" d="M5.16 6.54C5.31 6.74 5.25 7.02 5.05 7.17C4.84 7.31 4.56 7.25 4.42 7.05L0.08 0.71C-0.06 0.51 -0.01 0.22 0.2 0.08C0.4 -0.06 0.68 -0.01 0.83 0.2L5.16 6.54Z" /></g><g opacity="1" transform="translate(55.36635861848076 47.86793046892974)  rotate(0 8.30210650509732 8.301708589716515)"><path id="路径 4608" fill-rule="evenodd" style="fill:#000045" transform="translate(0 0)  rotate(0 8.30210650509732 8.301708589716515)" opacity="1" d="M16.6 2.83Z M2.83 0C1.27 0 0 1.27 0 2.83L0 13.78C0 15.34 1.27 16.6 2.83 16.6L13.78 16.6C15.34 16.6 16.6 15.34 16.6 13.78L16.6 2.83C16.6 1.27 15.34 0 13.78 0C10.82 0 5.79 0 2.83 0Z M15.7036 2.82361Z M15.7036 13.7736L15.7036 2.82361C15.7036 1.77361 14.8436 0.913614 13.7736 0.913614C10.8236 0.913614 5.79361 0.913614 2.82361 0.913614C1.77361 0.913614 0.913614 1.77361 0.913614 2.82361C0.913614 5.78361 0.913614 10.8236 0.913614 13.7736C0.913614 14.8436 1.77361 15.7036 2.82361 15.7036L13.7736 15.7036C14.8436 15.7036 15.7036 14.8436 15.7036 13.7736Z " /></g><g opacity="1" transform="translate(81.1962646023304 57.32048805777961)  rotate(0 5.190408227209042 5.190408227209042)"><path id="路径 4609" fill-rule="evenodd" style="fill:#654EF5" transform="translate(0 0)  rotate(0 5.190408227209042 5.190408227209042)" opacity="1" d="M10.38 1.8Z M0 8.58C0 9.58 0.81 10.38 1.8 10.38C3.6 10.38 6.79 10.38 8.58 10.38C9.58 10.38 10.38 9.58 10.38 8.58C10.38 6.78 10.38 3.6 10.38 1.8C10.38 0.81 9.58 0 8.58 0L1.8 0C0.81 0 0 0.81 0 1.8C0 3.6 0 6.78 0 8.58Z M9.47565 1.79566Z M9.47565 1.79566C9.47565 1.30566 9.07565 0.905655 8.58566 0.905655L1.79566 0.905655C1.30566 0.905655 0.905655 1.30566 0.905655 1.79566C0.905655 3.60566 0.905655 6.77566 0.905655 8.58566C0.905655 9.07565 1.30566 9.47565 1.79566 9.47565C3.60566 9.47565 6.78566 9.47565 8.58566 9.47565C9.07565 9.47565 9.47565 9.07565 9.47565 8.58566C9.47565 6.77566 9.47565 3.60566 9.47565 1.79566Z " /></g><g opacity="1" transform="translate(144.6967699474842 167.04985107829972)  rotate(0 3.0090361096408134 3.0090361096408134)"><path id="路径 4610" fill-rule="evenodd" style="fill:#000045" transform="translate(0 0)  rotate(0 3.0090361096408134 3.0090361096408134)" opacity="1" d="M3.01 0Z M3.01 6.02C4.67 6.02 6.02 4.67 6.02 3C6.02 1.35 4.67 0 3.01 0C1.35 0 0 1.35 0 3C0 4.67 1.35 6.02 3.01 6.02Z M3.01566 0.905655Z M0.905655 3.00566C0.905655 4.17566 1.84566 5.11566 3.01566 5.11566C4.17566 5.11566 5.11566 4.17566 5.11566 3.00566C5.11566 1.84566 4.17566 0.905655 3.01566 0.905655C1.84566 0.905655 0.905655 1.84566 0.905655 3.00566Z " /></g><g opacity="1" transform="translate(216.80922109596963 68.24416678788755)  rotate(0 2.424100499858746 2.424896330620354)"><path id="路径 4611" fill-rule="evenodd" style="fill:#654EF5" transform="translate(0 0)  rotate(0 2.424100499858746 2.424896330620354)" opacity="1" d="M2.42 0Z M2.42 4.85C3.76 4.85 4.85 3.76 4.85 2.43C4.85 1.09 3.76 0 2.42 0C1.09 0 0 1.09 0 2.43C0 3.76 1.09 4.85 2.42 4.85Z M2.42088 0.91043Z M0.90088 2.43043C0.90088 3.27043 1.58088 3.95043 2.42088 3.95043C3.26088 3.95043 3.94088 3.27043 3.94088 2.43043C3.94088 1.59043 3.26088 0.91043 2.42088 0.91043C1.58088 0.91043 0.90088 1.59043 0.90088 2.43043Z " /></g><g opacity="1" transform="translate(183.77693200654446 5.762039964007254)  rotate(14.999846018688034 5.88536743978345 8.554185898836735)"><path id="路径 4612" fill-rule="evenodd" style="fill:#654EF5" transform="translate(0 0)  rotate(0 5.88536743978345 8.554185898836735)" opacity="1" d="M0.91 5.89C0.91 6.14 0.71 6.33 0.46 6.33C0.22 6.33 0 6.14 0 5.89C0 2.63 2.64 0 5.89 0C9.13 0 11.77 2.63 11.77 5.89C11.77 8.61 9.91 10.91 7.38 11.57C6.78 11.72 6.37 12.27 6.37 12.89C6.35 14.46 6.35 16.66 6.35 16.66C6.35 16.91 6.15 17.11 5.9 17.11C5.65 17.11 5.45 16.91 5.45 16.66L5.45 12.89C5.45 11.85 6.15 10.96 7.15 10.69C9.29 10.14 10.87 8.2 10.87 5.89C10.87 3.13 8.63 0.9 5.89 0.9C3.14 0.9 0.91 3.13 0.91 5.89Z" /></g><g opacity="1" transform="translate(158.32769619034426 0.9157062902281599)  rotate(-15.00001749758756 4.3683150504677135 6.306759828055021)"><path id="路径 4613" fill-rule="evenodd" style="fill:#654EF5" transform="translate(0 0)  rotate(0 4.3683150504677135 6.306759828055021)" opacity="1" d="M7.84 4.38C7.84 2.46 6.29 0.91 4.37 0.91C2.46 0.91 0.9 2.46 0.9 4.38C0.9 4.62 0.71 4.82 0.46 4.82C0.2 4.82 0 4.62 0 4.38C0 1.97 1.96 0 4.37 0C6.78 0 8.74 1.97 8.74 4.38C8.74 6.3 7.49 7.94 5.76 8.52C5.21 8.71 4.84 9.23 4.84 9.81L4.84 12.16C4.84 12.41 4.63 12.61 4.38 12.61C4.13 12.61 3.92 12.41 3.92 12.16C3.92 12.16 3.92 10.89 3.94 9.81C3.94 8.84 4.55 7.98 5.47 7.67C6.84 7.2 7.84 5.9 7.84 4.38Z" /></g><g opacity="1" transform="translate(185.09271613353968 24.74667413980503)  rotate(14.99994875293257 1.3905437623817858 1.3905437623817858)"><path id="椭圆 246" fill-rule="evenodd" style="fill:#654EF5" transform="translate(0 0)  rotate(0 1.3905437623817858 1.3905437623817858)" opacity="1" d="M1.39,0C0.62,0 0,0.62 0,1.39C0,2.16 0.62,2.78 1.39,2.78C2.16,2.78 2.78,2.16 2.78,1.39C2.78,0.62 2.16,0 1.39,0Z " /></g><g opacity="1" transform="translate(184.64233146446543 24.29821594084011)  rotate(14.99994875293257 1.8391648900766782 1.8455315361695441)"></g><g opacity="1" transform="translate(163.9939079310124 14.732051225987417)  rotate(-15.000240343611393 1.003740382310695 1.003740382310695)"><path id="椭圆 247" fill-rule="evenodd" style="fill:#654EF5" transform="translate(0 0)  rotate(0 1.003740382310695 1.003740382310695)" opacity="1" d="M1,0C0.45,0 0,0.45 0,1C0,1.56 0.45,2.01 1,2.01C1.56,2.01 2.01,1.56 2.01,1C2.01,0.45 1.56,0 1,0Z " /></g><g opacity="1" transform="translate(163.53803323667083 14.285512416355944)  rotate(-15.000240343611393 1.4563702937431073 1.4564697725883085)"></g><g opacity="1" transform="translate(11.96787031823148 98.38661773698315)  rotate(60.00004551946344 6.1311299268526 10.666171521877242)"><path id="路径 4616" fill-rule="evenodd" style="fill:#FFFFFF" transform="translate(0 0)  rotate(0 6.1311299268526 10.666171521877242)" opacity="1" d="M6.09 0L6.17 0C9.54 0.07 12.26 4.82 12.26 10.67C12.26 16.52 9.54 21.26 6.17 21.33L6.09 21.33C2.72 21.26 0 16.52 0 10.67C0 4.82 2.72 0.07 6.09 0Z" /></g><g opacity="1" transform="translate(11.513678302162596 97.93561695241509)  rotate(60.00004551946344 6.584305806165901 11.11994427426175)"><path id="路径 4617" fill-rule="evenodd" style="fill:#000045" transform="translate(0 0)  rotate(0 6.584305806165901 11.11994427426175)" opacity="1" d="M6.92 0.64L6.94 0.68L6.95 0.65L6.92 0.64Z M6.65 22.23Z M6.95 0.65L6.94 0.68L6.94 0.68L6.85 0.73C6.75 0.76 6.62 0.79 6.5 0.78C6.29 0.79 6.09 0.73 6.09 0.45C6.09 0.42 6.13 0.41 6.2 0.42C6.31 0.4 6.72 0.56 6.91 0.64L6.54 0C5.06 0.03 3.69 0.86 2.59 2.28C1.03 4.28 0 7.5 0 11.12C0 14.74 1.03 17.95 2.59 19.96C3.69 21.38 5.06 22.21 6.54 22.24C6.57 22.24 6.6 22.24 6.62 22.23C6.63 22.23 6.64 22.23 6.65 22.23L6.65 22.23C6.64 22.23 6.63 22.23 6.62 22.23C6.6 22.24 6.57 22.24 6.55 22.24L6.62 22.24C6.63 22.24 6.64 22.24 6.66 22.24C8.12 22.2 9.48 21.37 10.58 19.96C12.14 17.95 13.17 14.74 13.17 11.12C13.17 7.5 12.14 4.28 10.58 2.28C9.48 0.87 8.12 0.04 6.66 0C6.64 0 6.63 0 6.62 0L6.55 0L6.92 0.64L6.95 0.65Z M6.91 0.64L6.94 0.68L6.94 0.68L6.92 0.64L6.91 0.64Z M6.2 0.42C6.42 0.45 6.91 0.67 6.94 0.68L6.91 0.64C6.72 0.56 6.31 0.4 6.2 0.42Z M6.62 22.23C6.63 22.23 6.64 22.23 6.65 22.23L6.65 22.23C6.64 22.23 6.63 22.23 6.62 22.23Z M6.2 0.42C6.13 0.41 6.09 0.42 6.09 0.45C6.09 0.73 6.29 0.79 6.5 0.78C6.32 0.77 6.17 0.69 6.17 0.45C6.17 0.44 6.18 0.43 6.2 0.42Z M6.5 0.78C6.71 0.77 6.92 0.69 6.94 0.68C6.91 0.67 6.42 0.45 6.2 0.42C6.18 0.43 6.17 0.44 6.17 0.45C6.17 0.69 6.32 0.77 6.5 0.78Z M6.85 0.73L6.94 0.68C6.92 0.69 6.71 0.77 6.5 0.78C6.62 0.79 6.75 0.76 6.85 0.73Z M6.56615 0.911828Z M12.2662 11.1218C12.2662 7.72183 11.3262 4.71183 9.86615 2.83183C8.95615 1.65183 7.83615 0.931828 6.61615 0.911828C6.61615 0.911828 6.61615 0.911828 6.61615 0.911828C6.61615 0.911828 6.61615 0.911828 6.61615 0.911828C6.77615 0.911828 6.93615 0.821828 7.01615 0.681828C6.92615 0.821828 6.78615 0.911828 6.62615 0.911828L6.56615 0.911828L6.55615 0.911828C5.33615 0.931828 4.21615 1.65183 3.30615 2.83183C1.83615 4.71183 0.906153 7.72183 0.906153 11.1218C0.906153 14.5118 1.83615 17.5318 3.30615 19.4118C4.21615 20.5818 5.33615 21.3018 6.55615 21.3318L6.56615 21.3318L6.61615 21.3318C7.83615 21.3018 8.95615 20.5818 9.86615 19.4118C11.3262 17.5318 12.2662 14.5118 12.2662 11.1218Z M6.61615 0.911828C6.61615 0.911828 6.61615 0.911828 6.61615 0.911828C6.61615 0.911828 6.61615 0.911828 6.61615 0.911828Z M6.99336 21.9794Z M6.19447 21.7503Z M6.93447 22.0103L6.91447 21.9703C6.72447 21.8903 6.31447 21.7303 6.19447 21.7503C6.41447 21.7803 6.91447 22.0003 6.93447 22.0103Z M6.09447 21.7803C6.09447 22.0603 6.29447 22.1203 6.49447 22.1103C6.32447 22.1003 6.16447 22.0203 6.16447 21.7803C6.16447 21.7703 6.17447 21.7603 6.19447 21.7503C6.13447 21.7403 6.09447 21.7503 6.09447 21.7803Z M6.16447 21.7803C6.16447 22.0203 6.32447 22.1003 6.49447 22.1103C6.70447 22.1003 6.92447 22.0203 6.93447 22.0103C6.91447 22.0003 6.41447 21.7803 6.19447 21.7503C6.17447 21.7603 6.16447 21.7703 6.16447 21.7803Z M6.92447 22.0303L6.93447 22.0103C6.93447 22.0203 6.93447 22.0203 6.92447 22.0303Z M6.93447 22.0103C6.92447 22.0203 6.70447 22.1003 6.49447 22.1103C6.64447 22.1203 6.81447 22.0703 6.91447 22.0403L6.92447 22.0403L6.92447 22.0303C6.93447 22.0203 6.93447 22.0203 6.93447 22.0103L6.93447 22.0103Z M6.92447 22.0303C6.92447 22.0303 6.92447 22.0403 6.92447 22.0403L6.93447 22.0403C6.94447 22.0403 6.96447 22.0303 6.97447 22.0203L7.01447 22.0103L6.97447 22.0003L6.95447 21.9903L6.93447 22.0103L6.93447 22.0103L6.92447 22.0303Z M6.92447 22.0403L6.91447 22.0403L6.92447 22.0403C6.92447 22.0403 6.92447 22.0303 6.92447 22.0303L6.92447 22.0403Z M6.91447 22.0403C6.90447 22.0603 6.89447 22.0703 6.88447 22.0903C6.89447 22.0703 6.90447 22.0603 6.92447 22.0403L6.91447 22.0403Z M6.94995 0.651387Z M6.93995 0.681387C6.92995 0.691387 6.92995 0.701387 6.91995 0.711387L6.92995 0.711387C6.94995 0.701387 6.95995 0.701387 6.97995 0.691387L7.00995 0.681387L6.97995 0.661387L6.94995 0.651387L6.93995 0.681387Z M6.94 0.68L6.94 0.68 M6.99336 21.9794L7.01336 22.0094 M7.01336 22.0094L6.99336 21.9794 M6.93447 22.0103L6.93447 22.0103 M6.93447 22.0103L6.93447 22.0103 M6.93447 22.0103L6.93447 22.0103 " /></g><g opacity="1" transform="translate(12.099948469326456 103.0636366122566)  rotate(-30.00011353524723 5.98052245252139 5.98052245252139)"><path id="椭圆 248" fill-rule="evenodd" style="fill:#000045" transform="translate(0 0)  rotate(0 5.98052245252139 5.98052245252139)" opacity="1" d="M5.98,0C2.68,0 0,2.68 0,5.98C0,9.28 2.68,11.96 5.98,11.96C9.28,11.96 11.96,9.28 11.96,5.98C11.96,2.68 9.28,0 5.98,0Z " /></g><g opacity="1" transform="translate(11.648856891519342 102.61225864829521)  rotate(-30.00011353524723 6.432003694163122 6.432003694163122)"></g><g opacity="1" transform="translate(10.946814708203068 92.1175022492138)  rotate(-30.000083044592138 0.4502412533798704 4.978667505198645)"><path id="路径 4621" fill-rule="evenodd" style="fill:#654EF5" transform="translate(0 0)  rotate(0 0.4502412533798704 4.978667505198645)" opacity="1" d="M0.9 9.5C0.9 9.76 0.7 9.96 0.45 9.96C0.2 9.96 0 9.76 0 9.5L0 0.45C0 0.21 0.2 0 0.45 0C0.7 0 0.9 0.21 0.9 0.45L0.9 9.5Z" /></g><g opacity="1" transform="translate(19.478628899197023 89.45602985188387)  rotate(0 1.1498813274643913 4.093320567331067)"><path id="路径 4622" fill-rule="evenodd" style="fill:#654EF5" transform="translate(0 0)  rotate(0 1.1498813274643913 4.093320567331067)" opacity="1" d="M0.9 7.82C0.85 8.06 0.61 8.22 0.36 8.18C0.12 8.13 -0.04 7.89 0.01 7.65L1.4 0.37C1.45 0.12 1.69 -0.04 1.93 0.01C2.18 0.05 2.34 0.29 2.29 0.54L0.9 7.82Z" /></g><g opacity="1" transform="translate(0 102.03634071708844)  rotate(0 3.9539434329197998 1.6693944923341062)"><path id="路径 4623" fill-rule="evenodd" style="fill:#654EF5" transform="translate(0 0)  rotate(0 3.9539434329197998 1.6693944923341062)" opacity="1" d="M7.6 2.46C7.84 2.54 7.96 2.8 7.89 3.03C7.8 3.27 7.54 3.4 7.31 3.31L0.3 0.88C0.07 0.8 -0.06 0.54 0.03 0.3C0.1 0.07 0.36 -0.06 0.6 0.03L7.6 2.46Z" /></g></g><g opacity="1" transform="translate(122.7294388167979 82.06992294229484)  rotate(0 27.218738690664505 39.69800154185554)"><g opacity="1" transform="translate(0.4452407899042526 0.4562762871308481)  rotate(0 12.995120506301202 25.136189929870085)"><path id="路径 4624" fill-rule="evenodd" style="fill:#FFFFFF" transform="translate(0 0)  rotate(0 12.995120506301202 25.136189929870085)" opacity="1" d="M11.78 25.93Z M25.99 13C25.99 5.82 20.17 0 12.99 0C5.82 0 0 5.82 0 13C0 19.75 5.17 25.32 11.78 25.93L14.37 49.13C14.46 49.84 15.09 50.34 15.8 50.26C16.47 50.19 17.29 50.1 17.96 50.03C18.67 49.95 19.18 49.31 19.1 48.6L16.5 25.5C21.97 23.97 25.99 18.95 25.99 13Z M12.9948 3.95528Z M3.96483 12.9953C3.96483 17.9853 8.00483 22.0253 12.9948 22.0253C17.9848 22.0253 22.0348 17.9853 22.0348 12.9953C22.0348 8.00528 17.9848 3.95528 12.9948 3.95528C8.00483 3.95528 3.96483 8.00528 3.96483 12.9953Z " /></g><g opacity="1" transform="translate(0 0)  rotate(0 13.446356548133084 25.593401977648515)"><path id="路径 4625" fill-rule="evenodd" style="fill:#654EF5" transform="translate(0 0)  rotate(0 13.446356548133084 25.593401977648515)" opacity="1" d="M11.81 26.79Z M19.99 49L17.44 26.28C22.92 24.59 26.89 19.48 26.89 13.45C26.89 6.03 20.86 0 13.44 0C6.02 0 0 6.03 0 13.45C0 20.32 5.16 25.99 11.81 26.79L14.38 49.63C14.48 50.59 15.34 51.28 16.3 51.18C16.97 51.1 17.79 51 18.46 50.93C19.42 50.82 20.1 49.96 19.99 49Z M12.6709 26.3417Z M15.2809 49.5317C15.3209 49.9917 15.7309 50.3217 16.2009 50.2717C16.8609 50.2017 17.6909 50.1017 18.3509 50.0217C18.8209 49.9817 19.1509 49.5717 19.0909 49.1017L16.5009 26.0117C16.4709 25.7917 16.6109 25.5917 16.8309 25.5217C22.1109 24.0417 25.9809 19.2017 25.9809 13.4517C25.9809 6.53168 20.3609 0.901676 13.4409 0.901676C6.52088 0.901676 0.90088 6.53168 0.90088 13.4517C0.90088 19.9717 5.89088 25.3417 12.2509 25.9317C12.4709 25.9617 12.6509 26.1217 12.6709 26.3417L15.2809 49.5317Z M13.4453 3.96642Z M13.4453 22.9364C18.6753 22.9364 22.9253 18.6864 22.9253 13.4464C22.9253 8.21642 18.6753 3.96642 13.4453 3.96642C8.20528 3.96642 3.95528 8.21642 3.95528 13.4464C3.95528 18.6864 8.20528 22.9364 13.4453 22.9364Z M13.4378 4.8673Z M4.85775 13.4473C4.85775 18.1873 8.70775 22.0273 13.4378 22.0273C18.1777 22.0273 22.0278 18.1873 22.0278 13.4473C22.0278 8.7173 18.1777 4.8673 13.4378 4.8673C8.70775 4.8673 4.85775 8.7173 4.85775 13.4473Z " /></g><g opacity="1" transform="translate(12.533287177464604 27.427022324264094)  rotate(0 7.174248228931789 10.484413279055538)"><path id="路径 4626" fill-rule="evenodd" style="fill:#FFFFFF" transform="translate(0 0)  rotate(0 7.174248228931789 10.484413279055538)" opacity="1" d="M3.88 4.54C-1.14 3.66 -0.44 -0.65 1.27 0.08C2.97 0.82 7.69 2.49 8.96 4.66C10.23 6.83 14.35 12.56 14.35 12.56L8.58 20.97L6.89 20.12L5.51 8.14L3.88 4.54Z" /></g><g opacity="1" transform="translate(12.078185397164182 26.97421968528847)  rotate(0 7.630018052918249 10.934659139042072)"><path id="路径 4627" fill-rule="evenodd" style="fill:#000045" transform="translate(0 0)  rotate(0 7.630018052918249 10.934659139042072)" opacity="1" d="M15.18 13.26Z M5.52 8.71L6.9 20.63C6.92 20.78 7.01 20.91 7.14 20.98L8.83 21.82C9.03 21.92 9.28 21.86 9.4 21.67L15.18 13.26C15.29 13.11 15.28 12.9 15.17 12.75C15.17 12.75 11.08 7.05 9.81 4.88C9.26 3.95 8.15 3.1 6.87 2.37C5.06 1.35 2.93 0.57 1.9 0.12C1.5 -0.05 1.15 -0.03 0.85 0.1C0.56 0.23 0.32 0.48 0.17 0.82C-0.01 1.22 -0.06 1.75 0.08 2.33C0.37 3.49 1.48 4.88 4.03 5.39L5.52 8.71Z M14.2513 13.0138Z M9.02125 5.34384C8.55125 4.52384 7.54125 3.79384 6.42125 3.16384C4.64125 2.15384 2.56125 1.38384 1.53125 0.953836C1.42125 0.893836 1.30125 0.883836 1.21125 0.943836C1.01125 1.03384 0.931255 1.27384 0.901255 1.57384C0.831255 2.60384 1.75125 4.08384 4.42125 4.54384C4.57125 4.56384 4.69125 4.66384 4.75125 4.80384L6.38125 8.40384C6.40125 8.44384 6.41125 8.49384 6.41125 8.53384L7.77125 20.2838L8.88125 20.8338L14.2513 13.0138C13.4313 11.8738 10.1413 7.24384 9.02125 5.34384Z " /></g><g opacity="1" transform="translate(10.206833738749093 29.763099249223043)  rotate(-5.446687657584209 3.452880381700711 7.977485978411291)"><path id="路径 4628" fill-rule="evenodd" style="fill:#FFFFFF" transform="translate(0 0)  rotate(0 3.452880381700711 7.977485978411291)" opacity="1" d="M6.54 10.41C6.99 11.77 5.98 13.38 5.98 13.38C5.98 13.38 6.25 14.74 5.79 15.36C4.89 16.55 1.49 15.8 0.64 14.46C-0.21 13.13 0.5 12.16 0.5 12.16C-0.54 10.19 0.5 8.13 0.5 8.13C-0.78 5.64 0.8 4.14 0.8 4.14C0.8 4.14 0.4 2.08 0.8 1.16C1.22 0.24 2.64 0 2.64 0L4.62 0.98L6.16 3.37C6.85 4.65 6.16 6.49 6.16 6.49C7.57 7.89 6.54 10.41 6.54 10.41Z" /></g><g opacity="1" transform="translate(9.746409288271341 29.307370119160197)  rotate(-5.446687657584209 3.9087332470930285 8.432899702883953)"><path id="路径 4629" fill-rule="evenodd" style="fill:#000045" transform="translate(0 0)  rotate(0 3.9087332470930285 8.432899702883953)" opacity="1" d="M3.31 0.04Z M6.61 16.09C6.85 15.78 6.95 15.31 6.97 14.86C6.98 14.48 6.94 14.11 6.92 13.91C7.15 13.46 7.8 12.1 7.47 10.88C7.59 10.56 7.82 9.78 7.82 8.93C7.82 8.21 7.64 7.45 7.13 6.82C7.3 6.23 7.61 4.74 7.02 3.62C7.01 3.61 7.01 3.6 7 3.57L5.46 1.2C5.42 1.13 5.35 1.08 5.27 1.03L3.31 0.04C3.22 0 3.12 -0.01 3.03 0.01C3.03 0.01 2.44 0.11 1.87 0.41C1.46 0.63 1.06 0.97 0.85 1.43C0.67 1.85 0.62 2.48 0.65 3.08C0.67 3.64 0.74 4.17 0.79 4.45C0.37 4.97 -0.56 6.43 0.46 8.59C0.22 9.19 -0.33 10.91 0.45 12.6C0.24 13.04 -0.03 13.98 0.72 15.17C1.29 16.06 2.86 16.75 4.26 16.85C5.27 16.93 6.18 16.67 6.61 16.09Z M3.05121 0.923843Z M1.58121 4.93384C1.58121 4.93384 0.251212 6.22384 1.36121 8.37384C1.43121 8.50384 1.43121 8.66384 1.36121 8.79384C1.36121 8.79384 0.421212 10.6438 1.36121 12.4138C1.44121 12.5638 1.43121 12.7438 1.32121 12.8838C1.32121 12.8838 0.821212 13.6338 1.48121 14.6838C1.94121 15.3838 3.22121 15.8738 4.33121 15.9538C4.69121 15.9738 5.03121 15.9538 5.33121 15.8738C5.56121 15.8138 5.76121 15.7138 5.88121 15.5338C6.02121 15.3638 6.06121 15.0938 6.07121 14.8338C6.08121 14.3638 5.99121 13.9238 5.99121 13.9238C5.97121 13.8038 5.99121 13.6938 6.06121 13.5838C6.06121 13.5838 6.38121 13.0738 6.56121 12.3838C6.66121 11.9638 6.72121 11.4638 6.57121 11.0038C6.53121 10.9138 6.53121 10.7938 6.58121 10.6938C6.58121 10.6938 6.91121 9.86384 6.91121 8.93384C6.90121 8.35384 6.77121 7.73384 6.31121 7.25384C6.18121 7.14384 6.13121 6.95384 6.20121 6.78384C6.20121 6.78384 6.82121 5.18384 6.23121 4.05384L4.76121 1.79384L3.05121 0.923843C2.88121 0.963843 2.59121 1.05384 2.31121 1.20384C2.06121 1.33384 1.81121 1.52384 1.69121 1.79384C1.55121 2.10384 1.54121 2.58384 1.55121 3.04384C1.58121 3.80384 1.71121 4.51384 1.71121 4.51384C1.74121 4.66384 1.69121 4.82384 1.58121 4.93384Z " /></g><g opacity="1" transform="translate(10.5027632839199 33.741095940809366)  rotate(0 3.1526590699008765 1.4726690955971846)"><path id="路径 4630" fill-rule="evenodd" style="fill:#000045" transform="translate(0 0)  rotate(0 3.1526590699008765 1.4726690955971846)" opacity="1" d="M6.02 2.07C6.24 2.16 6.36 2.42 6.28 2.65C6.19 2.89 5.93 3.01 5.69 2.91L0.29 0.88C0.06 0.79 -0.06 0.52 0.03 0.3C0.11 0.06 0.38 -0.06 0.61 0.03L6.02 2.07Z" /></g><g opacity="1" transform="translate(10.518915626864263 37.528263401033435)  rotate(0 3.3834307822883107 1.305853485407643)"><path id="路径 4631" fill-rule="evenodd" style="fill:#000045" transform="translate(0 0)  rotate(0 3.3834307822883107 1.305853485407643)" opacity="1" d="M6.45 1.73C6.68 1.8 6.82 2.05 6.75 2.28C6.68 2.53 6.42 2.66 6.19 2.59L0.32 0.89C0.08 0.82 -0.05 0.57 0.02 0.32C0.09 0.09 0.34 -0.05 0.58 0.01L6.45 1.73Z" /></g><g opacity="1" transform="translate(10.490492762311863 41.49658268081069)  rotate(0 3.154504403459171 0.9495667927524312)"><path id="路径 4632" fill-rule="evenodd" style="fill:#000045" transform="translate(0 0)  rotate(0 3.154504403459171 0.9495667927524312)" opacity="1" d="M5.94 1C6.19 1.04 6.35 1.28 6.3 1.53C6.25 1.78 6.02 1.94 5.78 1.89L0.37 0.9C0.13 0.86 -0.03 0.62 0 0.38C0.05 0.13 0.29 -0.04 0.54 0.01L5.94 1Z" /></g><g opacity="1" transform="translate(17.840947098351094 35.35642199965036)  rotate(0 2.4901352118880373 2.4848442680867286)"><path id="路径 4633" fill-rule="evenodd" style="fill:#000045" transform="translate(0 0)  rotate(0 2.4901352118880373 2.4848442680867286)" opacity="1" d="M4.73 4.11C4.96 4.22 5.04 4.49 4.93 4.72C4.83 4.95 4.55 5.03 4.33 4.92C1.35 3.46 0.04 0.64 0.04 0.64C-0.06 0.41 0.03 0.15 0.26 0.04C0.49 -0.06 0.76 0.03 0.87 0.26C0.87 0.26 2.04 2.78 4.73 4.11Z" /></g><g opacity="1" transform="translate(20.097777722908795 39.02381504460218)  rotate(0 17.169849829210108 20.18609401955445)"><path id="路径 4634" fill-rule="evenodd" style="fill:#654EF5" transform="translate(0 0)  rotate(0 17.169849829210108 20.18609401955445)" opacity="1" d="M34.34 40.37C25.84 38.36 16.36 30.47 9.06 23.82C1.75 17.17 2.75 14.24 2.75 14.24C1.59 12.82 0.59 11.13 0.15 10.32C-0.02 10.01 -0.05 9.65 0.08 9.33C1.55 5.57 4.63 1.87 5.95 0.4C6.31 -0.01 6.89 -0.11 7.37 0.13L11.31 2.1C14.74 2.14 22.56 9.39 22.56 9.39L30.23 13.23L34.34 40.37Z" /></g><g opacity="1" transform="translate(23.498779184521627 42.907316023571376)  rotate(0 3.689331578108338 4.698151172653361)"><path id="路径 4635" fill-rule="evenodd" style="fill:#000045" transform="translate(0 0)  rotate(0 3.689331578108338 4.698151172653361)" opacity="1" d="M6.65 0.1C6.85 -0.06 7.13 -0.02 7.28 0.18C7.43 0.37 7.4 0.65 7.21 0.81C3.12 3.99 0.87 9.13 0.87 9.13C0.76 9.36 0.5 9.46 0.27 9.36C0.05 9.26 -0.06 8.99 0.04 8.76C0.04 8.76 2.39 3.4 6.65 0.1Z" /></g></g><g opacity="1" transform="translate(154.8315864188928 95.78634250997588)  rotate(0 30.74085110943269 37.08260138372182)"><g opacity="1" transform="translate(0.44790026170377656 0.4520693370615671)  rotate(0 9.319755519509494 10.877221442931393)"><path id="路径 4636" fill-rule="evenodd" style="fill:#FFFFFF" transform="translate(0 0)  rotate(0 9.319755519509494 10.877221442931393)" opacity="1" d="M3.06 10.49C-2.12 7.22 0.84 2.4 0.84 2.4C8.22 -0.9 14.3 0.16 14.3 0.16C17.79 6.14 18.64 15.04 18.64 15.04L14.3 21.75L8.42 17.58L7.57 14.08C4.51 12.79 3.06 10.49 3.06 10.49Z" /></g><g opacity="1" transform="translate(0 0)  rotate(0 9.772117062487403 11.326787552334757)"><path id="路径 4637" fill-rule="evenodd" style="fill:#000045" transform="translate(0 0)  rotate(0 9.772117062487403 11.326787552334757)" opacity="1" d="M19.47 15.74Z M14.48 22.57C14.59 22.64 14.71 22.67 14.83 22.64C14.96 22.62 15.06 22.55 15.12 22.44L19.47 15.74C19.52 15.65 19.55 15.56 19.54 15.45C19.54 15.45 18.67 6.44 15.13 0.39C15.07 0.27 14.96 0.19 14.83 0.17C14.83 0.17 8.62 -0.93 1.1 2.44C1.03 2.47 0.95 2.54 0.91 2.62C0.91 2.62 -0.66 5.16 0.32 7.91C0.72 9.05 1.57 10.23 3.18 11.27C3.48 11.71 4.93 13.66 7.62 14.86L8.44 18.14C8.46 18.24 8.52 18.34 8.61 18.4L14.48 22.57Z M18.617 15.3833Z M3.88699 10.7033C3.88699 10.7033 5.28699 12.8833 8.18699 14.1233C8.31699 14.1733 8.41699 14.2833 8.44699 14.4233L9.27699 17.7633L14.617 21.5533L18.617 15.3833C18.497 14.2033 17.557 6.46332 14.467 1.03332C13.367 0.883322 8.00699 0.383322 1.61699 3.20332C1.35699 3.68332 0.446994 5.58332 1.16699 7.60332C1.53699 8.61332 2.29699 9.64332 3.74699 10.5533C3.79699 10.5933 3.84699 10.6433 3.88699 10.7033Z " /></g><g opacity="1" transform="translate(2.8505536114346928 6.998030459209929)  rotate(0 0.6811463286708056 2.3790172727683956)"><path id="路径 4638" fill-rule="evenodd" style="fill:#000045" transform="translate(0 0)  rotate(0 0.6811463286708056 2.3790172727683956)" opacity="1" d="M0.09 0.36C0.13 0.13 0.37 -0.04 0.61 0.01C0.86 0.05 1.02 0.29 0.98 0.54C0.76 1.67 1.03 3.41 1.33 4.14C1.43 4.36 1.31 4.64 1.08 4.72C0.85 4.82 0.59 4.71 0.49 4.47C0.16 3.65 -0.16 1.66 0.09 0.36Z" /></g><g opacity="1" transform="translate(7.281792959246022 10.938255976340916)  rotate(0 26.87606936811184 31.613473395551363)"><path id="路径 4639" fill-rule="evenodd" style="fill:#654EF5" transform="translate(0 0)  rotate(0 26.87606936811184 31.613473395551363)" opacity="1" d="M31.59 5.13C31.59 5.13 36.7 -2.54 45.6 0.88C54.49 4.3 55.32 16.58 51.84 23.94C48.37 31.29 38.08 59.64 27.04 62.64C16.01 65.64 12.02 56.71 8.37 45.68C8.37 45.68 -3.82 18.1 1.22 14.22C1.22 14.22 0.45 10.95 0.44 8.21C0.45 7.57 0.85 7.02 1.46 6.81C3.6 6.1 8.76 4.38 11.46 3.68C12.04 3.55 12.64 3.79 12.97 4.29C13.82 5.58 15.42 8.07 16.05 9.54C16.05 9.54 17.5 9.54 19.23 12.89C19.76 13.92 20.47 15.62 21.2 17.5C22.87 21.74 24.65 26.84 24.65 26.84L31.59 5.13Z" /></g><g opacity="1" transform="translate(31.473862535926788 10.477737072671726)  rotate(0 15.003919841469294 31.776202606026757)"><path id="路径 4640" fill-rule="evenodd" style="fill:#000000" transform="translate(0 0)  rotate(0 15.003919841469294 31.776202606026757)" opacity="1" d="M7.03 5.34C7.03 5.34 12.32 -2.65 21.57 0.92C26.16 2.69 28.7 6.74 29.61 11.3C30.51 15.81 29.84 20.83 28.07 24.59C25.62 29.76 19.83 45.23 12.79 55.07C9.7 59.39 6.36 62.62 2.96 63.54C2.73 63.6 2.48 63.46 2.41 63.22C2.35 62.98 2.49 62.73 2.73 62.67C4.43 62.2 6.12 61.11 7.76 59.58C10.28 57.22 12.71 53.84 14.96 50.07C20.63 40.57 25.17 28.61 27.24 24.2C28.95 20.6 29.59 15.8 28.73 11.48C27.87 7.22 25.53 3.42 21.24 1.76C13.09 -1.38 8.26 5.15 7.81 5.8C7.4 7.08 0.88 27.44 0.88 27.44C0.8 27.68 0.55 27.81 0.31 27.73C0.08 27.66 -0.05 27.4 0.02 27.16L6.98 5.46C6.99 5.42 7 5.38 7.03 5.34Z" /></g><g opacity="1" transform="translate(8.053752301618065 36.19726847789867)  rotate(0 4.024941146942884 10.435718341695756)"><path id="路径 4641" fill-rule="evenodd" style="fill:#000000" transform="translate(0 0)  rotate(0 4.024941146942884 10.435718341695756)" opacity="1" d="M0.02 0.57C-0.05 0.32 0.1 0.08 0.34 0.02C0.58 -0.05 0.83 0.1 0.9 0.34C3.21 9.37 8.01 20.24 8.01 20.24C8.11 20.46 8.01 20.72 7.78 20.83C7.56 20.93 7.28 20.83 7.19 20.6C7.19 20.6 2.35 9.65 0.02 0.57Z" /></g><g opacity="1" transform="translate(28.948976691794087 30.3737081789148)  rotate(0 2.8388216777006283 10.509034932473753)"><path id="路径 4642" fill-rule="evenodd" style="fill:#000045" transform="translate(0 0)  rotate(0 2.8388216777006283 10.509034932473753)" opacity="1" d="M5.66 20.58C5.65 20.83 5.45 21.03 5.2 21.02C4.95 21.01 4.75 20.8 4.76 20.55C5.07 12.65 0.04 0.62 0.04 0.62C-0.06 0.39 0.05 0.13 0.28 0.04C0.51 -0.06 0.77 0.05 0.87 0.28C0.87 0.28 5.97 12.54 5.66 20.58Z" /></g><g opacity="1" transform="translate(9.679495044823657 20.886549840858443)  rotate(0 6.067883089794319 2.037923656700068)"><path id="路径 4643" fill-rule="evenodd" style="fill:#000045" transform="translate(0 0)  rotate(0 6.067883089794319 2.037923656700068)" opacity="1" d="M11.63 0C11.87 -0.03 12.1 0.15 12.13 0.4C12.16 0.65 11.98 0.87 11.73 0.9C7.29 1.42 0.62 4.05 0.62 4.05C0.39 4.13 0.12 4.02 0.03 3.79C-0.06 3.56 0.05 3.3 0.29 3.2C0.29 3.2 7.1 0.53 11.63 0Z" /></g></g><g opacity="1" transform="translate(52.339799614070934 207.4265731911407)  rotate(0 105.6839376492915 0.45044021107027254)"><path id="路径 4644" fill-rule="evenodd" style="fill:#000045" transform="translate(0 0)  rotate(0 105.6839376492915 0.45044021107027254)" opacity="1" d="M210.91 0C211.16 0 211.37 0.21 211.37 0.46C211.37 0.7 211.16 0.9 210.91 0.9L0.46 0.9C0.21 0.9 0 0.7 0 0.46C0 0.21 0.21 0 0.46 0L210.91 0Z" /></g><g opacity="1" transform="translate(139.91779972848516 38.98728533083449)  rotate(0 40.1148432724318 34.325010253278506)"><g opacity="1" transform="translate(12.31622047809481 21.7951776175349)  rotate(-17.480883790656335 20.783319297089992 20.49741709598222)"><path id="路径 4645" fill-rule="evenodd" style="fill:#FFFFFF" transform="translate(0 0)  rotate(0 20.783319297089992 20.49741709598222)" opacity="1" d="M9.12 0L26.43 4.85L36.61 22.77L41.57 34.93L22.09 40.99L19.11 31.82C8.54 37.1 4.58 25.82 4.58 25.82C-0.29 27.28 2.02 20.2 2.02 20.2C0.6 17 0 9.82 0 9.82L9.12 0Z" /></g><g opacity="1" transform="translate(11.86242640441603 21.341247691229633)  rotate(-17.480883790656335 21.239329344545677 20.948091488918088)"><path id="路径 4646" fill-rule="evenodd" style="fill:#000045" transform="translate(0 0)  rotate(0 21.239329344545677 20.948091488918088)" opacity="1" d="M0.13 9.97Z M0.13 9.97C0.04 10.06 -0.01 10.19 0 10.31C0 10.31 0.6 17.36 2 20.69C1.85 21.17 1.45 22.66 1.47 24.02C1.49 25.15 1.83 26.18 2.68 26.65C3.17 26.92 3.84 27.02 4.76 26.81C5.32 28.13 7.43 32.42 11.63 33.74C13.66 34.38 16.2 34.34 19.29 32.9L22.11 41.58C22.19 41.83 22.44 41.95 22.68 41.88L42.16 35.82C42.28 35.78 42.38 35.7 42.43 35.58C42.49 35.47 42.49 35.34 42.44 35.22L37.48 23.05C37.47 23.03 37.46 23.02 37.45 23L27.27 5.08C27.22 4.98 27.13 4.89 27.01 4.86L9.69 0.02C9.53 -0.03 9.36 0.02 9.24 0.15L0.13 9.97Z M0.926755 10.4326Z M22.8368 40.8726L41.4168 35.1026L36.6468 23.4126C36.2268 22.6726 26.5768 5.69258 26.5768 5.69258C24.7668 5.18258 9.72676 0.962579 9.72676 0.962579C8.42675 2.35258 0.926755 10.4326 0.926755 10.4326C1.02676 11.6126 1.62676 17.6326 2.88676 20.4726C2.93676 20.5726 2.94676 20.6826 2.90676 20.8026C2.90676 20.8026 2.35676 22.4926 2.37676 24.0026C2.39676 24.7826 2.53676 25.5226 3.12676 25.8526C3.52676 26.0726 4.08676 26.0826 4.90676 25.8426C5.13676 25.7726 5.38676 25.8926 5.46676 26.1226C5.46676 26.1226 7.31676 31.4326 11.8968 32.8726C13.8668 33.4926 16.3268 33.3826 19.3568 31.8626C19.4768 31.8126 19.6168 31.8026 19.7368 31.8526C19.8568 31.9026 19.9468 32.0026 19.9868 32.1226L22.8368 40.8726Z " /></g><g opacity="1" transform="translate(31.01922026042749 31.73136615712611)  rotate(170.2264326721502 2.480916698250332 2.756494025818641)"><path id="路径 4647" fill-rule="evenodd" style="fill:#000045" transform="translate(0 0)  rotate(0 2.480916698250332 2.756494025818641)" opacity="1" d="M4.13 0.22C4.25 0 4.53 -0.06 4.75 0.07C4.96 0.2 5.03 0.47 4.89 0.69C3 3.81 0.72 5.43 0.72 5.43C0.51 5.57 0.23 5.53 0.08 5.32C-0.06 5.12 -0.02 4.84 0.18 4.69C0.18 4.69 2.34 3.16 4.13 0.22Z" /></g><g opacity="1" transform="translate(32.47803130631642 34.35648008840738)  rotate(170.2264326721502 1.8051854562402914 0.9037978819246613)"><path id="路径 4648" fill-rule="evenodd" style="fill:#000045" transform="translate(0 0)  rotate(0 1.8051854562402914 0.9037978819246613)" opacity="1" d="M3.24 0.91C3.48 0.95 3.65 1.19 3.6 1.43C3.56 1.68 3.33 1.84 3.08 1.8C1.9 1.59 0.27 0.87 0.27 0.87C0.04 0.76 -0.06 0.5 0.04 0.27C0.14 0.04 0.41 -0.06 0.64 0.04C0.64 0.04 2.15 0.72 3.24 0.91Z" /></g><g opacity="1" transform="translate(17.253849503287853 42.06298484206845)  rotate(-25.18772577105692 1.3435736209934774 1.3435736209934774)"><path id="椭圆 249" fill-rule="evenodd" style="fill:#000045" transform="translate(0 0)  rotate(0 1.3435736209934774 1.3435736209934774)" opacity="1" d="M1.34,0C0.6,0 0,0.6 0,1.34C0,2.09 0.6,2.69 1.34,2.69C2.09,2.69 2.69,2.09 2.69,1.34C2.69,0.6 2.09,0 1.34,0Z " /></g><g opacity="1" transform="translate(5.951899934383366 6.005894424887526)  rotate(-17.480780094084746 23.598008497587855 23.442210857003516)"><path id="路径 4649" fill-rule="evenodd" style="fill:#000045" transform="translate(0 0)  rotate(0 23.598008497587855 23.442210857003516)" opacity="1" d="M12.2 2.37C28.47 -4.6 55.17 2.85 44.91 37.51L35.9 41.46C35.9 41.46 30.21 39.95 26.67 34.56C26.67 34.56 28.22 34.32 29.69 33.04C30.76 32.11 31.53 30.11 30.72 27.69C28.81 21.92 21.97 25.59 21.97 25.59C21.97 25.59 21.31 46.37 20.47 46.87C19.59 47.4 18.6 25.54 18.6 25.54C17.72 25.63 16.79 25.68 15.76 25.65L13.71 17.93L13.19 25.86C13.19 25.86 7.16 27.35 0.63 27.69C0.63 27.69 -4.07 9.34 12.2 2.37Z" /></g><g opacity="1" transform="translate(14.430094207446594 37.98518787550167)  rotate(-17.480739556699806 3.5226148989334707 1.4004818747779502)"><path id="路径 4650" fill-rule="evenodd" style="fill:#000045" transform="translate(0 0)  rotate(0 3.5226148989334707 1.4004818747779502)" opacity="1" d="M2 0.43C3.42 -0.21 5.33 -0.28 6.9 1.21C7.08 1.38 7.09 1.67 6.93 1.85C6.75 2.04 6.46 2.04 6.28 1.87C5.03 0.69 3.5 0.76 2.37 1.25C1.64 1.57 1.08 2.06 0.87 2.53C0.77 2.75 0.51 2.86 0.28 2.77C0.05 2.67 -0.06 2.4 0.03 2.18C0.3 1.56 1.04 0.85 2 0.43Z" /></g><g opacity="1" transform="translate(33.18205961225516 37.670949674646785)  rotate(-17.480780094084746 2.966584633548558 1.212307396521931)"><path id="路径 4651" fill-rule="evenodd" style="fill:#000045" transform="translate(0 0)  rotate(0 2.966584633548558 1.212307396521931)" opacity="1" d="M0.45 2.42C0.2 2.42 0 2.21 0 1.97C0 1.72 0.2 1.52 0.46 1.52C3.66 1.53 5.17 0.12 5.17 0.12C5.35 -0.04 5.64 -0.04 5.81 0.14C5.98 0.32 5.97 0.6 5.79 0.78C5.79 0.78 4.1 2.44 0.45 2.42Z" /></g><g opacity="1" transform="translate(45.417003663894164 39.08358376525924)  rotate(-40.915300418471915 5.749280379548439 1.6941247337735736)"><path id="路径 4652" fill-rule="evenodd" style="fill:#FFFFFF" transform="translate(0 0)  rotate(0 5.749280379548439 1.6941247337735736)" opacity="1" d="M1.7 0C0.76 0 0 0.75 0 1.7C0 2.63 0.76 3.39 1.7 3.39C3.87 3.39 7.62 3.39 9.8 3.39C10.73 3.39 11.5 2.63 11.5 1.7C11.5 0.75 10.73 0 9.8 0C7.62 0 3.87 0 1.7 0Z" /></g><g opacity="1" transform="translate(44.962301539634616 38.628962594508884)  rotate(-40.915300418471915 6.199123717547505 2.1529211678407325)"><path id="路径 4653" fill-rule="evenodd" style="fill:#000045" transform="translate(0 0)  rotate(0 6.199123717547505 2.1529211678407325)" opacity="1" d="M0 2.16Z M12.4 2.16Z M2.16 0C0.97 0 0 0.96 0 2.16C0 3.34 0.97 4.31 2.16 4.31C4.33 4.31 8.07 4.31 10.25 4.31C11.44 4.31 12.4 3.34 12.4 2.16C12.4 0.96 11.44 0 10.25 0C8.07 0 4.33 0 2.16 0Z M11.502 2.16287Z M10.252 0.90287L2.15202 0.90287C1.46202 0.90287 0.912022 1.46287 0.912022 2.16287C0.912022 2.84287 1.46202 3.40287 2.15202 3.40287L10.252 3.40287C10.942 3.40287 11.502 2.84287 11.502 2.16287C11.502 1.46287 10.942 0.90287 10.252 0.90287Z " /></g><g opacity="1" transform="translate(23.010594764908134 51.563513955810535)  rotate(0 2.1935914780706756 0.693319571972947)"><path id="路径 4654" fill-rule="evenodd" style="fill:#000045" transform="translate(0 0)  rotate(0 2.1935914780706756 0.693319571972947)" opacity="1" d="M3.97 0.02C4.22 0.04 4.4 0.25 4.39 0.5C4.37 0.76 4.16 0.94 3.9 0.92C2.78 0.84 1.67 1.01 0.59 1.36C0.36 1.44 0.1 1.32 0.02 1.07C-0.05 0.84 0.07 0.58 0.31 0.5C1.51 0.11 2.73 -0.07 3.97 0.02Z" /></g><g opacity="1" transform="translate(48.84864193218325 37.43445375360261)  rotate(-17.480642374883573 13.948931015039147 13.740316535702132)"><path id="路径 4655" fill-rule="evenodd" style="fill:#000045" transform="translate(0 0)  rotate(0 13.948931015039147 13.740316535702132)" opacity="1" d="M19.21 17.51L20.08 21.38L3.54 27.48C-3.74 13.52 2.47 3.48 2.47 3.48L10.33 0C25.39 2.93 27.9 18.2 27.9 18.2L21.88 20.25L19.21 17.51Z" /></g></g></g><path id="分组 1" fill-rule="evenodd" style="fill:#09D3AC" transform="translate(91 142)  rotate(0 8 8.97744255319152)" opacity="1" d="M11.0989 1.63897C10.4489 1.63897 9.60887 2.19897 8.76887 3.17897C7.92887 2.20897 7.09887 1.64897 6.43887 1.64897C6.23887 1.63897 6.03887 1.70897 5.85887 1.82897C5.15887 2.31897 5.01887 3.77897 5.36887 5.60897C3.89887 6.13897 2.93887 7.01897 2.93887 8.01897C2.93887 9.00897 3.89887 9.89897 5.37887 10.439C5.01887 12.279 5.17887 13.739 5.87887 14.239C6.05887 14.359 6.24887 14.419 6.44887 14.409C7.10887 14.409 7.93887 13.849 8.77887 12.869C9.62887 13.839 10.4589 14.399 11.1189 14.399C11.3189 14.409 11.5089 14.349 11.6889 14.229C12.3889 13.729 12.5389 12.279 12.1889 10.449C13.6589 9.90897 14.6089 9.02897 14.6089 8.03897C14.6089 7.03897 13.6489 6.14897 12.1789 5.60897C12.5289 3.76897 12.3789 2.30897 11.6689 1.80897C11.4989 1.69897 11.2989 1.63897 11.0989 1.63897Z M9.17175 3.66923C9.52175 4.12923 9.85175 4.61923 10.1518 5.12923C10.6518 5.18923 11.1418 5.28923 11.6318 5.42923C11.6917 5.14923 11.7318 4.86923 11.7517 4.58923C11.8617 3.47923 11.7318 2.64923 11.3918 2.40923C11.3018 2.35923 11.2017 2.32923 11.1018 2.32923C10.8918 2.32923 10.2817 2.43923 9.31175 3.50923C9.26175 3.55923 9.22175 3.60923 9.17175 3.66923Z M6.06838 9.95707C6.37838 10.0471 6.68837 10.1171 6.99837 10.1671C6.87838 9.95707 6.76837 9.72707 6.66838 9.50707C6.56838 9.29707 6.46838 9.07707 6.37838 8.85707C6.25838 9.22707 6.14838 9.58707 6.06838 9.95707Z M6.36944 7.2034C6.45944 6.9834 6.55944 6.7834 6.65944 6.5534C6.76944 6.3234 6.86944 6.0934 6.98944 5.8834C6.66944 5.9334 6.35944 6.0034 6.04944 6.0934C6.14944 6.4734 6.24944 6.8434 6.36944 7.2034Z M10.3961 6.88832C10.2161 6.51832 10.0261 6.13832 9.83606 5.78832C9.48606 5.75832 9.14606 5.73832 8.77606 5.73832C8.41606 5.73832 8.05606 5.75832 7.71606 5.78832C7.51606 6.14832 7.32606 6.51832 7.14606 6.88832C6.97606 7.25832 6.81606 7.63832 6.66606 8.02832L6.66606 8.02832C6.81606 8.40832 6.97606 8.78832 7.15606 9.16832C7.32606 9.53832 7.51606 9.90832 7.71606 10.2583C8.06606 10.2983 8.41606 10.3083 8.76606 10.3183C9.13606 10.3183 9.48606 10.2983 9.83606 10.2683C10.0361 9.90832 10.2261 9.53832 10.3961 9.15832C10.5761 8.78832 10.7361 8.40832 10.8861 8.01832C10.7361 7.63832 10.5761 7.25832 10.3961 6.88832Z M10.5654 5.88776C10.5654 5.88776 10.5554 5.88776 10.5554 5.88776L10.5554 5.88776C10.5554 5.88776 10.5554 5.88776 10.5654 5.88776Z M10.8754 6.53776C10.9754 6.75776 11.0754 6.97776 11.1754 7.19776C11.2854 6.83776 11.3954 6.46776 11.4854 6.09776C11.1854 6.01776 10.8854 5.94776 10.5654 5.88776C10.6654 6.09776 10.7754 6.31776 10.8754 6.53776Z M10.8854 9.50543C10.7854 9.72543 10.6754 9.94543 10.5554 10.1654C10.8854 10.1154 11.1954 10.0454 11.4954 9.95543C11.4054 9.59543 11.2954 9.22543 11.1754 8.84543C11.0754 9.06543 10.9854 9.28543 10.8854 9.50543L10.8854 9.50543Z M8.14913 5.06014C8.35913 5.05014 8.56913 5.05014 8.77913 5.05014C8.98913 5.05014 9.18913 5.05014 9.39913 5.06014C9.19913 4.75014 8.98913 4.45014 8.76912 4.16014C8.55912 4.44015 8.34912 4.74014 8.14913 5.06014Z M8.23989 3.50767C7.88989 3.10767 7.48989 2.77767 7.04989 2.52767C6.85989 2.41767 6.64989 2.34767 6.43989 2.33767C6.33989 2.33767 6.23989 2.35767 6.14989 2.41767L6.14989 2.42767C5.80989 2.66767 5.66989 3.49767 5.78989 4.59767C5.81989 4.85767 5.85989 5.13767 5.90989 5.41767C6.40989 5.27767 6.90989 5.17767 7.40989 5.11767C7.70989 4.60767 8.02989 4.12767 8.37989 3.66767L8.23989 3.50767Z M6.0535 8.03074C5.8335 7.46074 5.6535 6.87074 5.5135 6.27074C5.2935 6.35074 5.0735 6.44074 4.8635 6.55074C4.0235 6.98074 3.5035 7.53074 3.5035 8.01074C3.5035 8.49074 4.0235 9.05074 4.8635 9.48074C5.0835 9.59074 5.2935 9.69074 5.5235 9.77074C5.6635 9.18074 5.8435 8.60074 6.0535 8.03074Z M8.38221 12.3824C8.03221 11.9224 7.70221 11.4324 7.40221 10.9224C6.90221 10.8624 6.41221 10.7624 5.91221 10.6224C5.86221 10.9024 5.82221 11.1824 5.80221 11.4624C5.69221 12.5624 5.82221 13.4024 6.16221 13.6324C6.25221 13.6924 6.35221 13.7224 6.45221 13.7224C6.67221 13.7224 7.27221 13.6124 8.24221 12.5424L8.38221 12.3824Z M8.78506 11.8864C8.78506 11.8864 8.78506 11.8864 8.78506 11.8864L8.78506 11.8864C8.78506 11.8864 8.78506 11.8864 8.78506 11.8864Z M9.40506 10.9864C9.19506 11.0064 8.98506 11.0064 8.77506 11.0064C8.56506 11.0064 8.35506 10.9964 8.15506 10.9864C8.36506 11.3064 8.57506 11.6064 8.78506 11.8864C8.99506 11.6064 9.20506 11.3064 9.40506 10.9864Z M11.4124 13.6269C11.7424 13.3869 11.8824 12.5569 11.7624 11.4569C11.7424 11.1969 11.7024 10.9169 11.6424 10.6369C11.1524 10.7769 10.6524 10.8769 10.1424 10.9369C9.85244 11.4469 9.53244 11.9269 9.18244 12.3869L9.32244 12.5369C10.2824 13.5969 10.9024 13.7169 11.1124 13.7169C11.2224 13.7169 11.3224 13.6869 11.4124 13.6269L11.4124 13.6269Z M12.6823 9.50376L12.6823 9.50376C13.5223 9.07376 14.0523 8.52376 14.0523 8.04376C14.0523 7.56376 13.5323 7.01376 12.6923 6.57376C12.4723 6.46376 12.2523 6.36376 12.0323 6.28376C11.8923 6.87376 11.7123 7.46376 11.5023 8.02376C11.7123 8.59376 11.8923 9.18376 12.0423 9.78376C12.2623 9.70376 12.4723 9.61376 12.6823 9.50376L12.6823 9.50376Z M9.85631 8.02431C9.85631 7.29431 9.37631 6.69431 8.77631 6.69431C8.17631 6.69431 7.68631 7.28431 7.68631 8.02431C7.68631 8.37431 7.79631 8.71431 8.00631 8.96431C8.20631 9.21431 8.48631 9.35431 8.77631 9.35431C9.37631 9.35431 9.85631 8.76431 9.85631 8.02431Z M1.55169 16.05L16.0017 16.05L16.0017 0L1.55169 0L1.55169 16.05Z M15.4375 0.691889L2.1175 0.691889L2.1175 15.3619L15.4375 15.3619L15.4375 0.691889Z M11.1177 14.4047C11.3177 14.4047 11.5077 14.3447 11.6877 14.2247C12.3877 13.7247 12.5377 12.2747 12.1877 10.4547C13.6577 9.91472 14.6077 9.03472 14.6077 8.04472C14.6177 7.04472 13.6477 6.15472 12.1777 5.61472C12.5277 3.77472 12.3777 2.31472 11.6677 1.81472C11.4977 1.70472 11.2977 1.64472 11.0977 1.64472C10.4477 1.64472 9.60768 2.20472 8.76768 3.18472C7.92768 2.21472 7.09768 1.65472 6.43768 1.65472C6.23768 1.64472 6.03768 1.71472 5.85768 1.83472C5.15768 2.32472 5.01768 3.78472 5.36768 5.61472C3.89768 6.14472 2.93768 7.02472 2.93768 8.02472C2.93768 9.01472 3.89768 9.90472 5.37768 10.4447L5.37768 10.4447C5.01768 12.2847 5.17768 13.7447 5.87768 14.2347C6.05768 14.3547 6.24768 14.4147 6.44768 14.4147C7.10768 14.4147 7.93768 13.8447 8.77768 12.8747C9.62768 13.8347 10.4577 14.4047 11.1177 14.4047Z M8.37984 12.3824C8.02984 11.9224 7.69984 11.4324 7.39984 10.9224C6.89984 10.8624 6.40984 10.7624 5.90984 10.6224C5.85984 10.9024 5.81984 11.1824 5.79984 11.4624C5.68984 12.5624 5.81984 13.4024 6.15984 13.6324C6.24984 13.6924 6.34984 13.7224 6.44984 13.7224C6.66984 13.7224 7.26984 13.6124 8.23984 12.5424L8.37984 12.3824Z M11.179 7.19776L11.179 7.19776C11.179 7.19776 11.179 7.19776 11.179 7.19776Z M11.179 7.19776C11.289 6.83776 11.399 6.46776 11.489 6.09776C11.189 6.01776 10.879 5.94776 10.559 5.88776C10.669 6.10776 10.779 6.31776 10.879 6.53776C10.979 6.75776 11.079 6.97776 11.179 7.19776L11.179 7.19776Z M11.4889 9.94815C11.4889 9.94815 11.4889 9.95815 11.4989 9.95815L11.4989 9.94815C11.4989 9.94815 11.4889 9.94815 11.4889 9.94815Z M11.1789 8.83815C11.0789 9.05815 10.9889 9.27815 10.8889 9.49815C10.7789 9.71815 10.6689 9.93815 10.5589 10.1582C10.8789 10.1082 11.1989 10.0382 11.4889 9.94815C11.4089 9.58815 11.2989 9.21815 11.1789 8.83815Z M7.71369 5.78106C7.51369 6.14106 7.32369 6.51106 7.14369 6.88106C6.97369 7.25106 6.81369 7.63106 6.66369 8.02106C6.81369 8.41106 6.97369 8.79106 7.15369 9.16106C7.32369 9.53106 7.51369 9.90106 7.71369 10.2511C8.06369 10.2911 8.41369 10.3011 8.76369 10.3111C9.13369 10.3111 9.48369 10.2911 9.83369 10.2611C10.0237 9.90106 10.2237 9.53106 10.3937 9.15106C10.5737 8.78106 10.7337 8.40106 10.8837 8.01106C10.7337 7.64106 10.5737 7.24106 10.3937 6.88106C10.2137 6.51106 10.0237 6.13106 9.83369 5.78106C9.48369 5.75106 9.14369 5.73106 8.77369 5.73106C8.42369 5.73106 8.06369 5.74106 7.71369 5.78106Z M10.8837 8.01106C10.8837 8.02106 10.8837 8.02106 10.8837 8.02106L10.8837 8.01106C10.8837 8.01106 10.8837 8.01106 10.8837 8.01106Z M6.99837 10.1743C6.87838 9.95427 6.77838 9.73427 6.67838 9.51427C6.57837 9.30427 6.47837 9.08427 6.37838 8.86427C6.26837 9.22427 6.15838 9.58427 6.06838 9.96427C6.37838 10.0443 6.68837 10.1143 6.99837 10.1743L6.99837 10.1743Z M6.66944 6.5434C6.76944 6.3234 6.87944 6.0934 6.98944 5.8834C6.66944 5.9334 6.35944 6.0034 6.04944 6.0934C6.14944 6.4734 6.24944 6.8334 6.37944 7.2034C6.46944 6.9834 6.55944 6.7634 6.66944 6.5434Z M8.78388 11.8864C9.00388 11.5964 9.20388 11.2964 9.40388 10.9864C9.19388 11.0064 8.98388 11.0064 8.77388 11.0064C8.56388 11.0064 8.35388 10.9964 8.15388 10.9864C8.36388 11.3064 8.57388 11.6164 8.78388 11.8864L8.78388 11.8864Z M11.4112 13.6269C11.7412 13.3869 11.8812 12.5569 11.7612 11.4569C11.7412 11.1969 11.7013 10.9169 11.6412 10.6369C11.1512 10.7769 10.6512 10.8769 10.1412 10.9369C9.85125 11.4469 9.53125 11.9269 9.18125 12.3869L9.32125 12.5369C10.2812 13.5969 10.9012 13.7169 11.1112 13.7169C11.2212 13.7169 11.3212 13.6869 11.4112 13.6269L11.4112 13.6269Z M12.0311 6.27648C11.8911 6.87648 11.7111 7.45648 11.5011 8.02649C11.7111 8.59649 11.8911 9.18649 12.0411 9.78648C12.2611 9.70648 12.4711 9.61648 12.6811 9.50648C13.5311 9.08648 14.0511 8.51649 14.0511 8.04648C14.0511 7.56648 13.5311 7.00648 12.6911 6.57649C12.4711 6.46649 12.2511 6.36649 12.0311 6.28649L12.0311 6.27648Z M9.31056 3.50505C9.26056 3.55505 9.21056 3.61505 9.17056 3.67505C9.52056 4.13505 9.85056 4.62505 10.1506 5.13505C10.6506 5.19505 11.1406 5.29505 11.6306 5.43505C11.6906 5.15505 11.7306 4.87505 11.7506 4.59505C11.8606 3.48505 11.7306 2.65505 11.3906 2.41505C11.3006 2.36505 11.2006 2.33505 11.1006 2.33505C10.8906 2.33505 10.2806 2.44505 9.31056 3.51505L9.31056 3.50505Z M8.14913 5.06014C8.35913 5.05014 8.56913 5.05014 8.77913 5.05014C8.98913 5.05014 9.18913 5.05014 9.39913 5.06014C9.19913 4.75014 8.98913 4.45014 8.76912 4.16014C8.55912 4.44015 8.34912 4.74014 8.14913 5.06014Z M6.43989 2.33767C6.33989 2.33767 6.23989 2.35767 6.14989 2.41767L6.14989 2.42767C5.80989 2.66767 5.66989 3.49767 5.78989 4.59767C5.81989 4.85767 5.85989 5.13767 5.90989 5.41767C6.40989 5.27767 6.90989 5.17767 7.40989 5.11767C7.70989 4.60767 8.02989 4.12767 8.37989 3.66767L8.23989 3.50767C7.88989 3.10767 7.48989 2.77767 7.04989 2.52767C6.85989 2.41767 6.64989 2.34767 6.43989 2.33767Z M3.50113 8.01074C3.50113 8.49074 4.02112 9.05074 4.86112 9.48074C5.08113 9.59074 5.29113 9.69074 5.52112 9.77074C5.66113 9.18074 5.84113 8.60074 6.05113 8.03074C5.84113 7.46074 5.66113 6.87074 5.51113 6.27074C5.29113 6.35074 5.08113 6.44074 4.86112 6.55074C4.03113 6.98074 3.50113 7.53074 3.50113 8.01074Z M7.684 8.02995C7.684 8.75995 8.174 9.35995 8.774 9.35995C9.374 9.35995 9.854 8.76995 9.854 8.02995C9.864 7.67995 9.744 7.32995 9.544 7.07995C9.334 6.82995 9.064 6.68995 8.774 6.68995L8.774 6.69995C8.174 6.69995 7.684 7.28995 7.684 8.02995Z M7.684 8.02995C7.684 8.75995 8.174 9.35995 8.774 9.35995C9.374 9.35995 9.854 8.76995 9.854 8.02995C9.864 7.67995 9.744 7.32995 9.544 7.07995C9.334 6.82995 9.064 6.68995 8.774 6.68995L8.774 6.69995C8.174 6.69995 7.684 7.28995 7.684 8.02995Z M7.684 8.02995C7.684 8.75995 8.174 9.35995 8.774 9.35995C9.374 9.35995 9.854 8.76995 9.854 8.02995C9.864 7.67995 9.744 7.32995 9.544 7.07995C9.334 6.82995 9.064 6.68995 8.774 6.68995L8.774 6.69995C8.174 6.69995 7.684 7.28995 7.684 8.02995Z M8.76881 3.18181C7.92881 2.21181 7.09881 1.65181 6.43881 1.65181C6.23881 1.64181 6.03881 1.71181 5.85881 1.83181C5.15881 2.32181 5.01881 3.78181 5.36881 5.61181C3.89881 6.14181 2.93881 7.02181 2.93881 8.02181C2.93881 9.01181 3.89881 9.90181 5.37881 10.4418C5.01881 12.2818 5.17881 13.7418 5.87881 14.2418C6.05881 14.3618 6.24881 14.4218 6.44881 14.4118C7.10881 14.4118 7.93881 13.8518 8.77881 12.8718C9.62881 13.8418 10.4588 14.4018 11.1188 14.4018C11.3188 14.4118 11.5088 14.3518 11.6888 14.2318C12.3888 13.7318 12.5388 12.2818 12.1888 10.4518C13.6588 9.91181 14.6088 9.03181 14.6088 8.03181L14.6088 8.04181C14.6088 7.04181 13.6488 6.15181 12.1788 5.61181C12.5288 3.77181 12.3788 2.31181 11.6688 1.81181C11.4988 1.70181 11.2988 1.64181 11.0988 1.64181C10.4488 1.64181 9.60881 2.20181 8.76881 3.18181Z M9.17175 3.66915C9.52175 4.12915 9.85175 4.61915 10.1518 5.12915C10.6518 5.18915 11.1418 5.28915 11.6318 5.42915C11.6917 5.14915 11.7318 4.86915 11.7517 4.58915C11.8617 3.47915 11.7318 2.64915 11.3918 2.40915C11.3018 2.35915 11.2017 2.32915 11.1018 2.32915C10.8918 2.32915 10.2817 2.43915 9.31175 3.50915C9.26175 3.55915 9.22175 3.60915 9.17175 3.66915Z M6.06838 9.957C6.37838 10.047 6.68837 10.117 6.99837 10.167C6.87838 9.957 6.76837 9.727 6.66838 9.507C6.56838 9.297 6.46838 9.077 6.37838 8.857C6.25838 9.227 6.14838 9.587 6.06838 9.957Z M6.36944 7.20332C6.45944 6.98332 6.55944 6.78332 6.65944 6.55332C6.76944 6.32332 6.86944 6.09332 6.98944 5.88332C6.66944 5.93332 6.35944 6.00332 6.04944 6.09332C6.14944 6.47332 6.24944 6.84332 6.36944 7.20332Z M10.8861 8.01824C10.7361 7.63824 10.5761 7.25824 10.3961 6.88824C10.2161 6.51824 10.0261 6.13824 9.83606 5.78824C9.48606 5.75824 9.14606 5.73824 8.77606 5.73824C8.41606 5.73824 8.05606 5.75824 7.71606 5.78824C7.51606 6.14824 7.32606 6.51824 7.14606 6.88824C6.97606 7.25824 6.81606 7.63824 6.66606 8.02824L6.66606 8.02824C6.81606 8.40824 6.97606 8.78824 7.15606 9.16824C7.32606 9.53824 7.51606 9.90824 7.71606 10.2582C8.06606 10.2982 8.41606 10.3082 8.76606 10.3182C9.13606 10.3182 9.48606 10.2982 9.83606 10.2682C10.0361 9.90824 10.2261 9.53824 10.3961 9.15824C10.5761 8.78824 10.7361 8.40824 10.8861 8.01824Z M10.5654 5.88769C10.5654 5.88769 10.5554 5.88769 10.5554 5.88769L10.5554 5.88769C10.5554 5.88769 10.5554 5.88769 10.5654 5.88769Z M10.8754 6.53769C10.9754 6.75769 11.0754 6.97769 11.1754 7.19769C11.2854 6.83769 11.3954 6.46769 11.4854 6.09769C11.1854 6.01769 10.8854 5.94769 10.5654 5.88769C10.6654 6.09769 10.7754 6.31769 10.8754 6.53769Z M10.8854 9.50535C10.7854 9.72535 10.6754 9.94535 10.5554 10.1654C10.8854 10.1154 11.1954 10.0454 11.4954 9.95535C11.4054 9.59535 11.2954 9.22535 11.1754 8.84535C11.0754 9.06535 10.9854 9.28535 10.8854 9.50535L10.8854 9.50535Z M8.14913 5.06007C8.35913 5.05007 8.56913 5.05007 8.77913 5.05007C8.98913 5.05007 9.18913 5.05007 9.39913 5.06007C9.19913 4.75007 8.98913 4.45007 8.76912 4.16007C8.55912 4.44007 8.34912 4.74007 8.14913 5.06007Z M8.37989 3.66767L8.23989 3.50767C7.88989 3.10767 7.48989 2.77767 7.04989 2.52767C6.85989 2.41767 6.64989 2.34767 6.43989 2.33767C6.33989 2.33767 6.23989 2.35767 6.14989 2.41767L6.14989 2.42767C5.80989 2.66767 5.66989 3.49767 5.78989 4.59767C5.81989 4.85767 5.85989 5.13767 5.90989 5.41767C6.40989 5.27767 6.90989 5.17767 7.40989 5.11767C7.70989 4.60767 8.02989 4.12767 8.37989 3.66767Z M6.0535 8.03074C5.8335 7.46074 5.6535 6.87074 5.5135 6.27074C5.2935 6.35074 5.0735 6.44074 4.8635 6.55074C4.0235 6.98074 3.5035 7.53074 3.5035 8.01074C3.5035 8.49074 4.0235 9.05074 4.8635 9.48074C5.0835 9.59074 5.2935 9.69074 5.5235 9.77074C5.6635 9.18074 5.8435 8.60074 6.0535 8.03074Z M8.38221 12.3824C8.03221 11.9224 7.70221 11.4324 7.40221 10.9224C6.90221 10.8624 6.41221 10.7624 5.91221 10.6224C5.86221 10.9024 5.82221 11.1824 5.80221 11.4624C5.69221 12.5624 5.82221 13.4024 6.16221 13.6324C6.25221 13.6924 6.35221 13.7224 6.45221 13.7224C6.67221 13.7224 7.27221 13.6124 8.24221 12.5424L8.38221 12.3824Z M8.78506 11.8864C8.78506 11.8864 8.78506 11.8864 8.78506 11.8864L8.78506 11.8864C8.78506 11.8864 8.78506 11.8864 8.78506 11.8864Z M9.40506 10.9864C9.19506 11.0064 8.98506 11.0064 8.77506 11.0064C8.56506 11.0064 8.35506 10.9964 8.15506 10.9864C8.36506 11.3064 8.57506 11.6064 8.78506 11.8864C8.99506 11.6064 9.20506 11.3064 9.40506 10.9864Z M11.4124 13.6269C11.7424 13.3869 11.8824 12.5569 11.7624 11.4569C11.7424 11.1969 11.7024 10.9169 11.6424 10.6369C11.1524 10.7769 10.6524 10.8769 10.1424 10.9369C9.85244 11.4469 9.53244 11.9269 9.18244 12.3869L9.32244 12.5369C10.2824 13.5969 10.9024 13.7169 11.1124 13.7169C11.2224 13.7169 11.3224 13.6869 11.4124 13.6269L11.4124 13.6269Z M12.6823 9.50376L12.6823 9.50376C13.5223 9.07376 14.0523 8.52376 14.0523 8.04376C14.0523 7.56376 13.5323 7.01376 12.6923 6.57376C12.4723 6.46376 12.2523 6.36376 12.0323 6.28376C11.8923 6.87376 11.7123 7.46376 11.5023 8.02376C11.7123 8.59376 11.8923 9.18376 12.0423 9.78376C12.2623 9.70376 12.4723 9.61376 12.6823 9.50376L12.6823 9.50376Z M9.85631 8.02431C9.85631 7.29431 9.37631 6.69431 8.77631 6.69431C8.17631 6.69431 7.68631 7.28431 7.68631 8.02431C7.68631 8.37431 7.79631 8.71431 8.00631 8.96431C8.20631 9.21431 8.48631 9.35431 8.77631 9.35431C9.37631 9.35431 9.85631 8.76431 9.85631 8.02431Z M0.57 1.20684L0 1.90684L0 17.9568L14.45 17.9568L15.01 17.2668L0.57 17.2668L0.57 1.20684Z " /><g opacity="1" transform="translate(114 142)  rotate(0 8 8)"><mask id="bg-mask-1" fill="white"><use xlink:href="#path_1"></use></mask><g mask="url(#bg-mask-1)" ><path id="分组 1" fill-rule="evenodd" style="fill:#000000" transform="translate(0 0.000010415448200574474)  rotate(0 8 7.999986979775899)" opacity="1" d="M5.94 11.55C5.9 11.63 5.87 11.66 5.81 11.69C5.76 11.72 5.71 11.72 5.48 11.72L5.21 11.72L5.13 11.68C5.09 11.65 5.05 11.61 5.03 11.56L5 11.49L5 8.36L5 5.22L5.05 5.16C5.08 5.13 5.13 5.09 5.17 5.06C5.23 5.03 5.26 5.03 5.53 5.03C5.85 5.03 5.9 5.04 5.98 5.13C6.01 5.16 6.88 6.47 7.91 8.04C8.95 9.62 10.37 11.77 11.07 12.82L12.34 14.74L12.4 14.7C12.97 14.33 13.57 13.8 14.04 13.26C15.06 12.09 15.71 10.68 15.93 9.17C15.99 8.73 16 8.6 16 8C16 7.41 15.99 7.28 15.93 6.84C15.49 3.83 13.36 1.31 10.46 0.37C9.94 0.21 9.4 0.09 8.79 0.02C8.64 0.01 7.61 -0.01 7.48 0C7.44 0.01 7.33 0.02 7.23 0.03C4.96 0.23 2.83 1.46 1.48 3.34C0.73 4.39 0.25 5.58 0.07 6.84C0.01 7.28 0 7.41 0 8C0 8.6 0.01 8.73 0.07 9.17C0.51 12.17 2.64 14.69 5.54 15.63C6.06 15.8 6.61 15.91 7.23 15.98C7.48 16.01 8.52 16.01 8.77 15.98C9.84 15.86 10.75 15.6 11.65 15.14C11.79 15.07 11.81 15.05 11.79 15.03C11.78 15.02 11.2 14.24 10.49 13.29L9.21 11.56L7.61 9.19C6.73 7.88 6 6.81 5.99 6.81C5.99 6.81 5.98 7.87 5.98 9.15C5.97 11.41 5.97 11.5 5.94 11.55Z M10.4237 9.95143L10.9137 10.7114L10.9237 7.90143C10.9237 5.94143 10.9237 5.07143 10.9137 5.03143C10.8837 4.95143 10.8237 4.88143 10.7537 4.84143C10.7037 4.81143 10.6637 4.81143 10.4237 4.81143C10.1838 4.81143 10.1537 4.81143 10.0938 4.85143C10.0238 4.89143 9.96375 4.96143 9.94375 5.04143C9.93375 5.08143 9.92375 5.82143 9.92375 7.14143L9.92375 9.19143L10.4237 9.95143Z " /></g></g><path id="分组 1" fill-rule="evenodd" fill="url(#linear_0)" transform="translate(137 143)  rotate(0 9 7.979220779220779)" opacity="1" d="M4.5 5.32C5.4 3.55 6.45 2.88 7.65 3.32C8.33 3.58 8.82 4.31 9.37 5.12C10.25 6.45 11.27 7.98 13.5 7.98C15.9 7.98 17.4 6.21 18 2.66C17.1 4.43 16.05 5.1 14.85 4.65C14.17 4.4 13.68 3.67 13.13 2.86C12.25 1.53 11.23 0 9 0C6.6 0 5.1 1.77 4.5 5.32Z M0 13.2992C0.9 11.5292 1.95 10.8592 3.15 11.2992C3.83 11.5592 4.32 12.2892 4.87 13.0992C5.75 14.4292 6.77 15.9592 9 15.9592C11.4 15.9592 12.9 14.1892 13.5 10.6392C12.6 12.4092 11.55 13.0792 10.35 12.6292C9.67 12.3792 9.18 11.6492 8.63 10.8392C7.75 9.50922 6.73 7.97922 4.5 7.97922C2.1 7.97922 0.6 9.74922 0 13.2992Z " /></g></g></svg>