<svg xmlns="http://www.w3.org/2000/svg" xmlns:xlink="http://www.w3.org/1999/xlink" width="890" height="890" viewBox="0 0 890 890" fill="none"><defs><rect id="path_0" x="0" y="0" width="890" height="890" /></defs><g opacity="1" transform="translate(0 0)  rotate(0 445 445)"><mask id="bg-mask-0" fill="white"><use xlink:href="#path_0"></use></mask><g mask="url(#bg-mask-0)" ><g opacity="1" transform="translate(71 71)  rotate(0 374 374)"><path id="圆形 3" fill-rule="evenodd" style="fill:#6DA0BF" transform="translate(0 0)  rotate(0 374 374)" opacity="0.59" d="M374,0C167.45,0 0,167.45 0,374C0,580.55 167.45,748 374,748C580.55,748 748,580.55 748,374C748,167.45 580.55,0 374,0Z " /><path  id="圆形 3" style="stroke:#383773; stroke-width:30; stroke-opacity:1; stroke-dasharray:0 0" transform="translate(0 0)  rotate(0 374 374)" d="M374,0C167.45,0 0,167.45 0,374C0,580.55 167.45,748 374,748C580.55,748 748,580.55 748,374C748,167.45 580.55,0 374,0Z " /><path id="路径 1" fill-rule="evenodd" style="fill:#383773" transform="translate(160 154)  rotate(0 214.03883081290937 219.75420697134007)" opacity="1" d="M186.85,411.23C186.85,426.85 199.56,439.51 215.24,439.51C231.04,439.51 243.63,426.85 243.63,411.23L243.63,90.64L384.09,231.11C394.08,241.09 410.44,241.15 420.51,231.09C430.63,220.96 430.57,204.73 420.52,194.68L233.34,7.5C228.06,2.23 221.01,-0.27 214.04,0.02C207.07,-0.27 200.01,2.23 194.74,7.5L7.56,194.68C-2.49,204.73 -2.55,220.96 7.57,231.09C17.63,241.15 34.01,241.09 43.98,231.11L186.85,88.24L186.85,411.23Z " /></g></g></g></svg>